<?xml version="1.0" encoding="utf-8"?>
<svg width="800px" height="800px" viewBox="0 0 32 32" version="1.1" xmlns="http://www.w3.org/2000/svg">
<title>shopping-basket-blank</title>
<path fill="#988a65" d="M30 13.25h-5.572l-5.723-10.606c-0.129-0.236-0.376-0.394-0.66-0.394-0.414 0-0.75 0.336-0.75 0.75 0 0.131 0.033 0.253 0.092 0.36l-0.002-0.004 5.338 9.894h-13.415l5.395-9.891c0.055-0.101 0.087-0.222 0.087-0.35 0-0.414-0.336-0.75-0.75-0.75-0.279 0-0.522 0.152-0.651 0.377l-0.002 0.004-5.787 10.609h-5.6c-0.414 0-0.75 0.336-0.75 0.75s0.336 0.75 0.75 0.75v0h1.389l1.913 14.35c0.050 0.369 0.364 0.65 0.742 0.65 0 0 0 0 0.001 0h20c0.379-0 0.693-0.281 0.744-0.646l0-0.004 1.913-14.35h1.298c0.414 0 0.75-0.336 0.75-0.75s-0.336-0.75-0.75-0.75v0zM25.389 28.25h-18.688l-1.8-13.5h22.287z"></path>
</svg>
