<svg width="269" height="322" viewBox="0 0 269 322" fill="none" xmlns="http://www.w3.org/2000/svg">
<rect width="269" height="322" fill="#E4E1D9"/>
<path d="M166.057 292.907C167.265 292.921 168.024 292.571 168.334 291.857C168.44 291.606 168.499 291.322 168.506 290.985C168.519 290.649 168.48 290.358 168.4 290.107C168.321 289.856 168.189 289.651 168.004 289.486C167.628 289.136 167.021 288.964 166.189 288.978H164.737V292.907H166.057ZM166.598 293.766C166.479 293.779 166.301 293.793 166.057 293.793H164.737V297.108H163.733V288.086H166.189C167.978 288.059 169.041 288.627 169.391 289.783C169.496 290.14 169.549 290.543 169.549 290.979C169.516 291.672 169.351 292.24 169.047 292.683C168.744 293.119 168.275 293.429 167.648 293.621L167.892 294.017C168.011 294.202 168.156 294.413 168.315 294.645L169.82 296.606L168.79 297.234C168.592 296.877 168.381 296.52 168.15 296.157L167.034 294.42C166.895 294.195 166.75 293.984 166.598 293.766ZM152.577 292.643C152.57 293.244 152.643 293.773 152.788 294.242C152.933 294.704 153.138 295.087 153.415 295.398C153.97 296.018 154.742 296.322 155.739 296.309C156.716 296.302 157.482 295.979 158.036 295.351C158.611 294.697 158.888 293.773 158.875 292.571C158.842 290.133 157.772 288.911 155.66 288.911C154.696 288.911 153.943 289.235 153.409 289.889C152.861 290.543 152.583 291.461 152.577 292.643ZM151.54 292.637C151.54 291.904 151.646 291.256 151.851 290.682C152.062 290.107 152.352 289.625 152.729 289.222C153.501 288.41 154.518 288 155.779 288C157.112 288 158.135 288.41 158.842 289.222C159.541 290.021 159.891 291.164 159.891 292.637C159.891 294.07 159.495 295.199 158.71 296.018C157.937 296.818 156.921 297.22 155.653 297.22C154.379 297.22 153.376 296.818 152.649 296.018C151.91 295.206 151.54 294.083 151.54 292.637ZM142.318 296.19H144.068C145.117 296.19 145.923 295.88 146.49 295.265C147.038 294.671 147.309 293.865 147.309 292.835V292.597C147.283 291.362 147.032 290.464 146.543 289.889C146.035 289.295 145.216 288.997 144.094 288.997H142.325V296.19H142.318ZM141.315 297.102V288.079H144.114C146.332 288.079 147.665 288.958 148.128 290.721C148.273 291.276 148.345 291.904 148.345 292.597V292.835C148.345 294.195 147.976 295.239 147.236 295.979C146.49 296.725 145.434 297.102 144.068 297.102H141.315ZM135.565 293.773L134.641 291.349C134.509 290.999 134.397 290.688 134.311 290.431L134.053 289.651C133.974 289.394 133.882 289.116 133.783 288.826C133.697 289.083 133.611 289.341 133.525 289.598C133.525 289.598 133.439 289.876 133.261 290.424C133.261 290.424 132.839 291.54 132 293.773H135.565ZM133.142 288.079H134.43L137.988 297.102H136.839L135.902 294.598H131.664L130.739 297.102H129.584L133.142 288.079ZM123.22 292.907C124.429 292.921 125.188 292.571 125.498 291.857C125.604 291.606 125.663 291.322 125.67 290.985C125.683 290.649 125.643 290.358 125.564 290.107C125.485 289.856 125.353 289.651 125.168 289.486C124.792 289.136 124.184 288.964 123.353 288.978H121.9V292.907H123.22ZM123.762 293.766C123.643 293.779 123.465 293.793 123.22 293.793H121.9V297.108H120.897V288.086H123.353C125.142 288.059 126.204 288.627 126.554 289.783C126.66 290.14 126.713 290.543 126.713 290.979C126.68 291.672 126.515 292.24 126.211 292.683C125.907 293.119 125.439 293.429 124.811 293.621L125.056 294.017C125.175 294.202 125.32 294.413 125.478 294.645L126.983 296.606L125.953 297.234C125.755 296.877 125.544 296.52 125.313 296.157L124.198 294.42C124.059 294.195 123.914 293.984 123.762 293.766ZM113.536 296.23C114.335 296.243 114.936 296.144 115.332 295.926C115.787 295.675 116.025 295.252 116.038 294.664C116.058 293.878 115.801 293.37 115.259 293.139C114.962 293.013 114.639 292.947 114.282 292.94C113.932 292.927 113.642 292.921 113.411 292.921H112.044V296.223H113.536V296.23ZM113.556 292.102C114.89 292.135 115.53 291.56 115.49 290.371C115.477 289.598 115.061 289.143 114.229 289.004C113.952 288.964 113.642 288.938 113.292 288.938H112.051V292.102H113.556ZM111.061 288.079H113.292C114.342 288.079 115.121 288.238 115.622 288.548C116.203 288.911 116.507 289.519 116.533 290.371C116.546 291.157 116.282 291.738 115.741 292.115C115.576 292.234 115.398 292.32 115.2 292.379C115.695 292.399 116.124 292.577 116.48 292.914C116.903 293.317 117.108 293.865 117.081 294.559C117.055 295.464 116.758 296.117 116.19 296.527C115.616 296.93 114.731 297.121 113.53 297.108H111.054V288.079H111.061ZM100.036 292.643C100.03 293.244 100.102 293.773 100.248 294.242C100.393 294.704 100.598 295.087 100.875 295.398C101.429 296.018 102.202 296.322 103.198 296.309C104.175 296.302 104.941 295.979 105.496 295.351C106.07 294.697 106.347 293.773 106.334 292.571C106.301 290.133 105.232 288.911 103.119 288.911C102.155 288.911 101.403 289.235 100.868 289.889C100.314 290.543 100.043 291.461 100.036 292.643ZM99 292.637C99 291.904 99.1056 291.256 99.3103 290.682C99.5215 290.107 99.812 289.625 100.188 289.222C100.961 288.41 101.977 288 103.238 288C104.572 288 105.595 288.41 106.301 289.222C107.001 290.021 107.351 291.164 107.351 292.637C107.351 294.07 106.955 295.199 106.169 296.018C105.397 296.818 104.38 297.22 103.113 297.22C101.839 297.22 100.835 296.818 100.109 296.018C99.3697 295.206 99 294.083 99 292.637Z" fill="#B82529"/>
<path d="M24.2479 269.681L23.6472 30.0806L21.0066 30.0872L21.6073 269.688L24.2479 269.681ZM244.846 267.607L22.921 268.255L22.9276 271.108L244.853 270.461L244.846 267.607ZM242.932 29.4333L243.533 269.034L246.173 269.027L245.573 29.4267L242.932 29.4333ZM22.3269 31.5072L244.252 30.8599L244.246 28.0066L22.3203 28.6605L22.3269 31.5072ZM22.9276 269.688L21.6073 269.695L21.6139 271.121L22.9342 271.115L22.9276 269.688ZM244.853 269.034L244.86 270.461L246.18 270.454L246.173 269.027L244.853 269.034ZM244.252 29.4333L245.573 29.4267L245.566 28L244.246 28.0066L244.252 29.4333ZM22.3269 30.0806L22.3203 28.6605L21 28.6671L21.0066 30.0938L22.3269 30.0806Z" fill="#B82529"/>
<path d="M74.8417 167.78C74.6965 169.359 74.5974 170.898 74.538 172.39C74.4786 173.883 74.4456 175.026 74.4456 175.818C74.439 176.611 74.4522 177.344 74.4852 178.031C74.5182 178.718 74.5446 179.319 74.5776 179.834L73.396 179.827C72.9273 177.08 72.353 174.92 71.673 173.355C70.9931 171.789 70.0953 170.66 68.9863 169.966C67.8706 169.273 66.4051 168.923 64.5897 168.916L62.9394 168.91L62.8008 198.275C62.7941 199.682 62.9196 200.732 63.1704 201.419C63.4213 202.106 63.9428 202.568 64.735 202.793C65.5205 203.017 66.6692 203.156 68.1809 203.196L68.1743 204.226C67.1445 204.153 65.8044 204.101 64.1606 204.081C62.5103 204.054 60.8335 204.041 59.1172 204.028C57.3282 204.021 55.6581 204.021 54.0935 204.028C52.529 204.041 51.2681 204.074 50.3109 204.14L50.3175 203.11C51.7962 203.083 52.9251 202.958 53.7172 202.74C54.5094 202.522 55.0375 202.066 55.3214 201.379C55.5986 200.692 55.7439 199.649 55.7505 198.235L55.8891 168.87L54.1925 168.863C52.4102 168.857 50.9447 169.194 49.8092 169.874C48.6738 170.554 47.7562 171.677 47.063 173.236C46.3699 174.795 45.789 176.948 45.3335 179.695L44.1518 179.689C44.2244 179.174 44.2707 178.573 44.2905 177.886C44.3103 177.199 44.3235 176.459 44.3235 175.673C44.3301 174.88 44.3037 173.744 44.2641 172.245C44.2178 170.752 44.132 169.213 44 167.635C45.5117 167.674 47.1753 167.721 48.9906 167.76C50.8126 167.806 52.628 167.826 54.45 167.84C56.2654 167.846 57.9355 167.853 59.4472 167.866C60.926 167.873 62.5697 167.879 64.3917 167.892C66.2137 167.899 68.029 167.892 69.851 167.866C71.6598 167.84 73.33 167.813 74.8417 167.78Z" fill="#B82227"/>
<path d="M83.2651 204.662C81.0008 204.649 79.357 204.061 78.3272 202.886C77.304 201.716 76.7957 200.237 76.8023 198.447C76.8089 197.007 77.1588 195.812 77.8453 194.874C78.5385 193.936 79.4231 193.17 80.5057 192.595C81.5883 192.014 82.7304 191.518 83.9384 191.089C85.1399 190.666 86.2753 190.257 87.3447 189.867C88.4075 189.477 89.2855 189.035 89.9787 188.54C90.6652 188.044 91.0151 187.404 91.0151 186.611L91.0349 182.853C91.0415 181.756 90.8831 180.851 90.5596 180.145C90.2361 179.438 89.7608 178.903 89.1271 178.54C88.4934 178.176 87.6946 177.991 86.7374 177.985C86.0178 177.985 85.2587 178.084 84.4731 178.282C83.681 178.487 83.0274 178.877 82.5125 179.458C83.4037 179.702 84.0968 180.151 84.5919 180.805C85.087 181.459 85.3313 182.252 85.3247 183.176C85.3181 184.24 84.9616 185.072 84.2553 185.673C83.5489 186.274 82.6643 186.565 81.6015 186.565C80.4661 186.558 79.6145 186.195 79.0336 185.468C78.4527 184.742 78.1688 183.903 78.1688 182.939C78.1754 181.974 78.4196 181.182 78.9015 180.548C79.3834 179.914 80.0568 179.346 80.915 178.83C81.7732 178.249 82.8756 177.793 84.2157 177.456C85.5557 177.12 87.0146 176.955 88.5924 176.961C90.1041 176.968 91.4376 177.139 92.606 177.47C93.7679 177.8 94.7647 178.381 95.5833 179.207C96.4018 179.999 96.9299 180.984 97.1676 182.153C97.4052 183.322 97.5175 184.748 97.5109 186.433L97.4448 200.547C97.4382 201.406 97.5307 202.014 97.7221 202.377C97.9069 202.74 98.2436 202.919 98.7255 202.925C99.1348 202.925 99.4979 202.826 99.8081 202.621C100.118 202.417 100.429 202.192 100.739 201.954L101.3 202.833C100.541 203.414 99.7487 203.876 98.9236 204.213C98.0984 204.55 97.1016 204.722 95.9331 204.715C93.9791 204.708 92.672 204.259 92.0251 203.381C91.3782 202.502 91.0349 201.498 91.0085 200.362C90.0711 201.901 88.9555 203.004 87.6484 203.672C86.3347 204.339 84.8758 204.669 83.2651 204.662ZM86.7242 201.789C87.4768 201.796 88.2161 201.591 88.9423 201.181C89.6618 200.772 90.3351 200.092 90.9623 199.127L91.0151 188.718C90.5662 189.405 89.9127 189.966 89.0479 190.409C88.1897 190.851 87.3183 191.34 86.4403 191.862C85.5623 192.39 84.8032 193.084 84.1629 193.936C83.5225 194.794 83.199 195.977 83.1924 197.489C83.1858 198.969 83.5159 200.052 84.1827 200.739C84.8494 201.439 85.6944 201.789 86.7242 201.789Z" fill="#B82227"/>
<path d="M120.259 177.119C121.322 177.126 122.207 177.35 122.906 177.8C123.606 178.249 124.128 178.817 124.471 179.504C124.808 180.191 124.979 180.917 124.973 181.67C124.966 182.806 124.629 183.744 123.956 184.497C123.283 185.25 122.398 185.626 121.296 185.62C120.266 185.613 119.427 185.336 118.774 184.781C118.127 184.226 117.803 183.473 117.803 182.509C117.81 181.65 118.028 180.93 118.457 180.349C118.886 179.768 119.381 179.306 119.929 178.962C119.553 178.757 119.124 178.685 118.642 178.751C117.539 178.85 116.582 179.319 115.75 180.151C114.925 180.99 114.272 181.98 113.803 183.13C113.334 184.279 113.097 185.369 113.09 186.399L113.031 199.127C113.024 200.811 113.447 201.934 114.305 202.509C115.156 203.077 116.411 203.367 118.061 203.374L118.054 204.457C117.262 204.417 116.127 204.371 114.628 204.312C113.136 204.252 111.585 204.219 109.968 204.213C108.628 204.206 107.301 204.226 105.974 204.272C104.647 204.318 103.663 204.358 103.01 204.384L103.016 203.301C104.284 203.308 105.188 203.057 105.723 202.542C106.258 202.026 106.528 201.049 106.535 199.609L106.614 183.381C106.621 181.835 106.376 180.693 105.881 179.953C105.386 179.213 104.469 178.837 103.129 178.83L103.135 177.747C104.231 177.852 105.294 177.912 106.324 177.918C107.591 177.925 108.806 177.872 109.954 177.753C111.103 177.641 112.159 177.463 113.123 177.225L113.097 182.582C113.513 181.624 114.06 180.732 114.734 179.913C115.407 179.094 116.219 178.42 117.163 177.892C118.14 177.377 119.163 177.113 120.259 177.119Z" fill="#B82227"/>
<path d="M136.829 169.471L136.789 177.972L143.377 178.005L143.371 179.035L136.782 179.002L136.683 199.504C136.677 200.739 136.895 201.617 137.344 202.133C137.786 202.648 138.42 202.912 139.245 202.912C140.037 202.919 140.757 202.621 141.41 202.02C142.064 201.426 142.651 200.422 143.173 199.015L144.097 199.431C143.575 201.109 142.77 202.509 141.681 203.619C140.591 204.728 139.073 205.283 137.113 205.27C135.944 205.263 134.961 205.111 134.155 204.821C133.35 204.524 132.657 204.101 132.076 203.546C131.323 202.753 130.821 201.809 130.571 200.706C130.32 199.603 130.194 198.143 130.208 196.327L130.287 178.962L125.758 178.943L125.765 177.912L130.293 177.932L130.326 170.772C131.561 170.746 132.709 170.627 133.779 170.429C134.848 170.231 135.865 169.914 136.829 169.471Z" fill="#B82227"/>
<path d="M152.104 204.985C149.84 204.972 148.196 204.384 147.166 203.209C146.143 202.04 145.635 200.56 145.642 198.77C145.648 197.33 145.998 196.135 146.685 195.197C147.378 194.259 148.262 193.493 149.345 192.918C150.428 192.337 151.57 191.842 152.778 191.412C153.979 190.99 155.115 190.58 156.184 190.19C157.247 189.801 158.125 189.358 158.818 188.863C159.504 188.367 159.854 187.727 159.854 186.934L159.874 183.176C159.881 182.08 159.722 181.175 159.399 180.468C159.075 179.761 158.6 179.226 157.966 178.863C157.333 178.5 156.534 178.315 155.577 178.308C154.857 178.308 154.098 178.407 153.312 178.605C152.52 178.81 151.867 179.2 151.352 179.781C152.243 180.025 152.936 180.475 153.431 181.128C153.926 181.782 154.171 182.575 154.164 183.5C154.157 184.563 153.801 185.395 153.095 185.996C152.388 186.591 151.504 186.888 150.441 186.888C149.305 186.881 148.454 186.518 147.873 185.792C147.292 185.065 147.008 184.226 147.008 183.262C147.015 182.298 147.259 181.505 147.741 180.871C148.223 180.237 148.896 179.669 149.754 179.154C150.612 178.572 151.715 178.117 153.055 177.78C154.395 177.443 155.854 177.278 157.432 177.284C158.943 177.291 160.277 177.463 161.445 177.793C162.607 178.123 163.604 178.704 164.423 179.53C165.241 180.323 165.769 181.307 166.007 182.476C166.244 183.645 166.357 185.072 166.35 186.756L166.284 200.871C166.278 201.729 166.37 202.337 166.561 202.7C166.746 203.063 167.083 203.242 167.565 203.248C167.974 203.248 168.337 203.149 168.647 202.945C168.958 202.74 169.268 202.515 169.578 202.277L170.139 203.156C169.38 203.737 168.588 204.199 167.763 204.536C166.938 204.873 165.941 205.045 164.772 205.038C162.818 205.032 161.511 204.583 160.864 203.704C160.217 202.826 159.874 201.822 159.848 200.686C158.91 202.225 157.795 203.328 156.488 203.995C155.181 204.662 153.715 204.992 152.104 204.985ZM155.57 202.119C156.323 202.126 157.062 201.921 157.788 201.511C158.508 201.102 159.181 200.421 159.808 199.457L159.861 189.048C159.412 189.735 158.759 190.296 157.894 190.739C157.036 191.181 156.164 191.67 155.286 192.192C154.408 192.72 153.649 193.414 153.009 194.266C152.368 195.124 152.045 196.307 152.038 197.819C152.032 199.299 152.362 200.382 153.029 201.069C153.689 201.762 154.54 202.112 155.57 202.119Z" fill="#B82227"/>
<path d="M79.5419 218.598L79.5353 219.682C78.8818 219.814 78.2678 220.177 77.7001 220.752C77.1324 221.333 76.5845 222.363 76.063 223.836L68.346 244.714L66.7352 247.125L56.2456 222.449C55.5987 221.141 54.9847 220.329 54.4038 220.018C53.8229 219.708 53.341 219.55 52.9647 219.55L52.9713 218.466C53.9681 218.572 55.0045 218.658 56.0872 218.711C57.1698 218.764 58.259 218.797 59.3549 218.803C60.6223 218.81 61.8502 218.783 63.0384 218.717C64.2201 218.658 65.3291 218.592 66.3589 218.526L66.3523 219.609C65.5602 219.602 64.8604 219.655 64.2399 219.754C63.6194 219.853 63.2167 220.137 63.0252 220.6C62.8338 221.062 62.9592 221.861 63.4015 222.997L69.7653 238.743L69.356 238.948L73.9439 226.709C74.8153 224.312 74.9407 222.561 74.3268 221.458C73.7129 220.355 72.5642 219.748 70.8875 219.642L70.8941 218.559C71.7193 218.631 72.5312 218.684 73.3366 218.724C74.142 218.764 74.9077 218.783 75.6273 218.783C76.3468 218.783 77.0598 218.77 77.7661 218.744C78.4659 218.711 79.06 218.664 79.5419 218.598ZM68.346 244.714L66.3655 249.906C65.7384 251.623 64.9925 252.838 64.1343 253.552C63.6194 253.994 62.9922 254.318 62.2529 254.523C61.5135 254.727 60.6949 254.827 59.8038 254.82C59.0116 254.813 58.2524 254.675 57.5131 254.397C56.7737 254.12 56.1598 253.704 55.6647 253.149C55.1696 252.594 54.9253 251.874 54.9253 250.982C54.9319 250.018 55.262 249.252 55.9155 248.671C56.5691 248.089 57.4669 247.805 58.5957 247.805C59.5925 247.812 60.4045 248.063 61.0382 248.565C61.672 249.067 61.9822 249.813 61.9822 250.811C61.9822 251.465 61.7842 252.046 61.4079 252.561C61.025 253.076 60.4903 253.466 59.8038 253.737C59.9754 253.77 60.1404 253.796 60.2923 253.816C60.4441 253.836 60.5761 253.842 60.6751 253.842C61.672 253.849 62.5631 253.525 63.3553 252.878C64.1475 252.231 64.7878 251.2 65.2763 249.794L67.1511 244.701L68.346 244.714Z" fill="#B82227"/>
<path d="M91.3188 210.204L91.2792 218.704L97.8674 218.737L97.8608 219.768L91.2726 219.735L91.1736 240.236C91.167 241.471 91.3848 242.35 91.8337 242.865C92.276 243.38 92.9098 243.644 93.7349 243.644C94.5271 243.651 95.2467 243.354 95.9002 242.753C96.5537 242.158 97.1413 241.154 97.6628 239.748L98.587 240.164C98.0655 241.841 97.2601 243.242 96.1708 244.351C95.0816 245.461 93.5633 246.016 91.6027 246.002C90.4342 245.996 89.4506 245.844 88.6453 245.553C87.8399 245.256 87.1467 244.833 86.5658 244.278C85.8133 243.486 85.3116 242.541 85.0607 241.438C84.8099 240.335 84.6844 238.876 84.6976 237.059L84.7768 219.695L80.2483 219.675L80.2549 218.645L84.7834 218.665L84.8165 211.505C86.0509 211.478 87.1996 211.359 88.269 211.161C89.345 210.97 90.355 210.646 91.3188 210.204Z" fill="#B82227"/>
<path d="M106.601 245.719C104.337 245.705 102.693 245.118 101.663 243.942C100.64 242.773 100.132 241.293 100.138 239.503C100.145 238.064 100.495 236.868 101.181 235.93C101.874 234.992 102.759 234.226 103.842 233.651C104.924 233.07 106.066 232.575 107.274 232.145C108.476 231.723 109.611 231.313 110.681 230.924C111.743 230.534 112.621 230.091 113.315 229.596C114.001 229.101 114.351 228.46 114.351 227.667L114.371 223.909C114.377 222.813 114.219 221.908 113.896 221.201C113.572 220.494 113.097 219.959 112.463 219.596C111.829 219.233 111.031 219.048 110.073 219.041C109.354 219.041 108.595 219.14 107.809 219.339C107.017 219.543 106.363 219.933 105.848 220.514C106.74 220.759 107.433 221.208 107.928 221.862C108.423 222.516 108.667 223.308 108.661 224.233C108.654 225.296 108.298 226.128 107.591 226.723C106.885 227.324 106 227.615 104.937 227.615C103.802 227.608 102.95 227.245 102.37 226.518C101.789 225.792 101.505 224.953 101.505 223.988C101.511 223.024 101.756 222.231 102.237 221.597C102.719 220.963 103.393 220.395 104.251 219.88C105.109 219.299 106.212 218.843 107.552 218.506C108.892 218.169 110.351 218.004 111.928 218.011C113.44 218.018 114.774 218.189 115.942 218.52C117.104 218.85 118.101 219.431 118.919 220.257C119.738 221.049 120.266 222.033 120.504 223.202C120.741 224.371 120.853 225.798 120.847 227.482L120.781 241.597C120.774 242.456 120.867 243.063 121.058 243.427C121.243 243.79 121.58 243.968 122.061 243.975C122.471 243.975 122.834 243.876 123.144 243.671C123.454 243.466 123.765 243.242 124.075 243.004L124.636 243.882C123.877 244.464 123.085 244.926 122.26 245.263C121.434 245.6 120.438 245.771 119.269 245.765C117.315 245.758 116.008 245.309 115.361 244.431C114.714 243.552 114.371 242.548 114.344 241.412C113.407 242.951 112.291 244.054 110.984 244.721C109.671 245.402 108.212 245.732 106.601 245.719ZM110.06 242.852C110.813 242.859 111.552 242.654 112.278 242.244C112.998 241.835 113.671 241.155 114.298 240.19L114.351 229.781C113.902 230.468 113.249 231.029 112.384 231.472C111.526 231.914 110.654 232.403 109.776 232.925C108.898 233.453 108.139 234.147 107.499 234.999C106.858 235.857 106.535 237.04 106.528 238.552C106.522 240.032 106.852 241.115 107.519 241.802C108.185 242.502 109.037 242.846 110.06 242.852Z" fill="#B82227"/>
<path d="M144.988 218.189C146.427 218.195 147.589 218.387 148.46 218.77C149.332 219.153 150.045 219.635 150.593 220.223C151.206 220.877 151.642 221.722 151.893 222.753C152.144 223.783 152.269 225.177 152.256 226.927L152.19 240.784C152.184 242.224 152.441 243.208 152.976 243.723C153.504 244.239 154.402 244.503 155.676 244.509L155.669 245.593C155.049 245.553 154.098 245.507 152.811 245.447C151.523 245.388 150.282 245.355 149.081 245.355C147.813 245.348 146.572 245.368 145.371 245.414C144.169 245.461 143.278 245.5 142.691 245.533L142.697 244.45C143.793 244.457 144.572 244.199 145.021 243.69C145.47 243.182 145.701 242.198 145.708 240.758L145.78 225.15C145.787 224.226 145.701 223.387 145.536 222.654C145.371 221.914 145.028 221.326 144.513 220.897C143.998 220.467 143.265 220.25 142.301 220.243C140.618 220.236 139.225 220.91 138.123 222.257C137.02 223.611 136.459 225.296 136.452 227.323L136.386 240.718C136.38 242.158 136.598 243.142 137.04 243.657C137.482 244.173 138.255 244.437 139.35 244.443L139.344 245.527C138.763 245.487 137.885 245.441 136.716 245.388C135.548 245.328 134.366 245.302 133.165 245.295C131.897 245.289 130.604 245.309 129.303 245.355C127.996 245.401 127.019 245.441 126.365 245.467L126.372 244.384C127.64 244.391 128.544 244.14 129.079 243.624C129.613 243.109 129.884 242.132 129.891 240.692L129.97 224.463C129.976 222.918 129.732 221.775 129.237 221.036C128.742 220.296 127.824 219.919 126.484 219.913L126.491 218.829C127.587 218.935 128.65 218.995 129.679 219.001C130.947 219.008 132.155 218.955 133.31 218.836C134.459 218.724 135.515 218.545 136.479 218.308L136.452 223.46C137.317 221.504 138.512 220.137 140.024 219.358C141.555 218.565 143.199 218.176 144.988 218.189Z" fill="#B82227"/>
<path d="M167.835 210.567L167.796 219.067L174.384 219.1L174.377 220.131L167.789 220.098L167.69 240.6C167.684 241.835 167.901 242.713 168.35 243.228C168.793 243.743 169.426 244.008 170.252 244.008C171.044 244.014 171.763 243.717 172.417 243.116C173.07 242.522 173.658 241.518 174.179 240.111L175.104 240.527C174.582 242.205 173.777 243.605 172.687 244.714C171.598 245.824 170.08 246.379 168.119 246.366C166.951 246.359 165.967 246.207 165.162 245.917C164.356 245.619 163.663 245.197 163.082 244.642C162.33 243.849 161.828 242.905 161.577 241.802C161.326 240.699 161.201 239.239 161.214 237.423L161.293 220.058L156.765 220.038L156.772 219.008L161.3 219.028L161.333 211.868C162.568 211.842 163.716 211.723 164.786 211.525C165.855 211.326 166.872 211.009 167.835 210.567Z" fill="#B82227"/>
<path d="M183.111 246.081C180.847 246.068 179.203 245.48 178.173 244.305C177.15 243.136 176.642 241.656 176.648 239.866C176.655 238.426 177.005 237.231 177.691 236.293C178.384 235.355 179.269 234.589 180.352 234.014C181.434 233.433 182.576 232.938 183.784 232.508C184.986 232.086 186.121 231.676 187.191 231.286C188.254 230.897 189.131 230.454 189.825 229.959C190.511 229.463 190.861 228.823 190.861 228.03L190.881 224.272C190.887 223.176 190.729 222.271 190.406 221.564C190.082 220.857 189.607 220.322 188.973 219.959C188.339 219.596 187.541 219.411 186.583 219.404C185.864 219.404 185.105 219.503 184.319 219.701C183.534 219.899 182.873 220.296 182.358 220.877C183.25 221.121 183.943 221.571 184.438 222.224C184.933 222.878 185.177 223.671 185.171 224.596C185.164 225.659 184.808 226.491 184.101 227.086C183.395 227.687 182.51 227.977 181.447 227.977C180.312 227.971 179.46 227.607 178.88 226.881C178.299 226.154 178.015 225.316 178.015 224.351C178.021 223.387 178.266 222.594 178.747 221.96C179.229 221.326 179.903 220.758 180.761 220.243C181.619 219.662 182.722 219.206 184.062 218.869C185.402 218.532 186.861 218.367 188.438 218.374C189.95 218.38 191.284 218.552 192.452 218.882C193.614 219.213 194.611 219.794 195.429 220.619C196.248 221.412 196.776 222.396 197.014 223.565C197.251 224.734 197.363 226.161 197.357 227.845L197.291 241.96C197.284 242.819 197.377 243.426 197.568 243.79C197.753 244.153 198.09 244.331 198.571 244.338C198.981 244.338 199.344 244.239 199.654 244.034C199.964 243.829 200.275 243.605 200.585 243.367L201.146 244.245C200.387 244.826 199.595 245.289 198.77 245.626C197.944 245.963 196.948 246.134 195.779 246.128C193.825 246.121 192.518 245.672 191.871 244.793C191.224 243.915 190.881 242.911 190.854 241.775C189.917 243.314 188.801 244.417 187.494 245.084C186.187 245.764 184.728 246.095 183.111 246.081ZM186.577 243.215C187.329 243.221 188.069 243.017 188.795 242.607C189.514 242.198 190.188 241.517 190.815 240.553L190.868 230.144C190.419 230.831 189.765 231.392 188.9 231.835C188.042 232.277 187.171 232.766 186.293 233.288C185.415 233.816 184.656 234.51 184.015 235.362C183.375 236.22 183.052 237.403 183.045 238.915C183.038 240.395 183.368 241.478 184.035 242.165C184.695 242.865 185.547 243.208 186.577 243.215Z" fill="#B82227"/>
<path d="M212.85 218.506C214.289 218.513 215.53 218.724 216.554 219.14C217.577 219.556 218.336 219.919 218.811 220.23C219.973 221.095 220.68 220.547 220.93 218.592L222.066 218.598C221.993 219.596 221.934 220.771 221.894 222.125C221.855 223.48 221.828 225.296 221.815 227.561L220.68 227.555C220.515 226.287 220.191 225.045 219.716 223.843C219.24 222.641 218.541 221.63 217.617 220.818C216.692 220.005 215.478 219.596 213.966 219.589C212.903 219.583 212.019 219.886 211.312 220.501C210.606 221.115 210.249 221.987 210.243 223.123C210.236 224.153 210.54 225.058 211.154 225.831C211.768 226.604 212.56 227.33 213.537 228.004C214.514 228.678 215.53 229.411 216.593 230.21C218.409 231.491 219.934 232.773 221.181 234.067C222.429 235.362 223.049 237.039 223.036 239.1C223.03 240.679 222.587 242.026 221.703 243.136C220.825 244.245 219.67 245.104 218.237 245.699C216.805 246.293 215.24 246.584 213.524 246.577C212.599 246.57 211.754 246.484 211.002 246.306C210.249 246.128 209.576 245.903 208.995 245.626C208.553 245.381 208.15 245.157 207.787 244.952C207.424 244.747 207.061 244.569 206.685 244.43C206.341 244.259 206.044 244.325 205.78 244.635C205.523 244.946 205.318 245.454 205.18 246.181L204.044 246.174C204.117 245.078 204.176 243.737 204.216 242.158C204.255 240.58 204.282 238.486 204.295 235.87L205.43 235.877C205.661 237.766 206.024 239.424 206.513 240.857C207.001 242.284 207.728 243.407 208.685 244.219C209.642 245.031 210.876 245.441 212.388 245.448C213.312 245.454 214.21 245.15 215.068 244.536C215.927 243.922 216.362 242.878 216.369 241.399C216.375 239.886 215.867 238.631 214.844 237.634C213.821 236.63 212.533 235.56 210.995 234.424C209.833 233.559 208.744 232.713 207.741 231.881C206.731 231.049 205.912 230.117 205.285 229.087C204.651 228.057 204.341 226.835 204.348 225.428C204.354 223.882 204.757 222.608 205.549 221.597C206.341 220.587 207.384 219.82 208.678 219.292C209.992 218.764 211.372 218.499 212.85 218.506Z" fill="#B82227"/>
</svg>
