<svg width="205" height="31" viewBox="0 0 205 31" fill="none" xmlns="http://www.w3.org/2000/svg">
<path d="M21.5652 0.129386C21.4656 1.29391 21.3992 2.40449 21.355 3.47196C21.3107 4.53944 21.355 5.35895 21.2886 5.93043C21.2222 6.50191 21.2886 6.91166 21.2886 7.36453C21.2886 7.8174 21.2886 8.20558 21.355 8.51828H20.5472C20.291 6.9516 19.8222 5.42504 19.1531 3.97878C18.7183 3.01344 18.0126 2.18739 17.1172 1.5958C16.2687 1.11281 15.3002 0.866634 14.3178 0.884181H13.5322L13.4437 20.3575C13.401 21.0522 13.4988 21.7483 13.7314 22.4063C13.8272 22.633 13.9778 22.8338 14.1705 22.9915C14.3632 23.1492 14.5921 23.2591 14.8378 23.312C15.6063 23.4903 16.3936 23.5808 17.1836 23.5815V24.2608L14.2957 24.1854C13.1007 24.1854 11.8393 24.1854 10.5336 24.1854C9.228 24.1854 8.04407 24.1854 6.89334 24.1854L4.12715 24.25V23.5599C4.92695 23.5724 5.72545 23.4928 6.50608 23.3228C6.75142 23.2691 6.97996 23.1588 7.1725 23.0012C7.36504 22.8436 7.51595 22.6432 7.61255 22.417C7.83351 21.7599 7.93461 21.0702 7.91129 20.3791L7.99981 0.808695H7.23634C6.2518 0.778644 5.27828 1.0177 4.4259 1.4988C3.52907 2.07016 2.8218 2.88299 2.38999 3.8386C1.70742 5.29179 1.20593 6.81946 0.89625 8.38889H0.08852C0.140029 8.00622 0.169583 7.62103 0.17704 7.23515C0.17704 6.78228 0.17704 6.29704 0.17704 5.80104C0.17704 5.30504 0.17704 4.41006 0.17704 3.34258C0.17704 2.2751 0.088518 1.18609 0 0L3.51859 0.0862792C4.79104 0.0862792 6.06349 0.0862792 7.347 0.0862792H10.8213H14.2957C15.5681 0.0862792 16.8516 0.0862792 18.1351 0.0862792L21.5652 0.129386Z" fill="#b82529"/>
<path d="M27.1086 24.1635C26.5208 24.2132 25.929 24.1361 25.3749 23.9375C24.8208 23.7389 24.318 23.4238 23.9018 23.0143C23.2361 22.2411 22.8853 21.2545 22.9167 20.2437C22.8809 19.4378 23.1125 18.6422 23.5769 17.9759C24.0227 17.3836 24.5949 16.8934 25.2537 16.5394C25.9498 16.1639 26.6794 15.8513 27.4335 15.6055C28.1985 15.3593 28.9216 15.1233 29.6237 14.877C30.2312 14.6761 30.8038 14.3854 31.3215 14.015C31.5229 13.8784 31.6873 13.6959 31.8005 13.4831C31.9137 13.2704 31.9723 13.0338 31.9712 12.7939V10.2594C31.9837 9.74386 31.8911 9.23103 31.6987 8.75095C31.5363 8.32517 31.234 7.96424 30.8394 7.72482C30.3837 7.46072 29.8593 7.33236 29.3303 7.35542C28.884 7.35277 28.4395 7.41148 28.0099 7.52985C27.6154 7.6397 27.2551 7.84429 26.9619 8.12503C27.5354 8.31705 28.036 8.67484 28.3976 9.15116C28.7366 9.58343 28.9174 10.1147 28.9111 10.6596C28.922 10.992 28.856 11.3224 28.7181 11.6263C28.5802 11.9301 28.3739 12.1995 28.1147 12.4143C27.6062 12.8436 26.9518 13.0706 26.2807 13.0505C25.9407 13.0732 25.6 13.0183 25.2854 12.8901C24.9708 12.7619 24.6908 12.5639 24.4677 12.3117C24.0638 11.8099 23.8524 11.1853 23.8703 10.5467C23.8513 9.989 24.0208 9.44078 24.3524 8.98701C24.7315 8.52715 25.1888 8.13486 25.7043 7.82747C26.4056 7.44984 27.162 7.17987 27.947 7.02705C28.8797 6.82767 29.8323 6.73133 30.787 6.73977C31.7127 6.7357 32.6352 6.84603 33.5327 7.06814C34.3248 7.24671 35.0505 7.6375 35.6287 8.19686C36.1329 8.70198 36.4753 9.34041 36.6138 10.0336C36.7754 10.938 36.8491 11.8554 36.8338 12.7735V21.6085C36.809 21.9853 36.8661 22.3631 37.0015 22.7167C37.0501 22.8187 37.1293 22.9037 37.2286 22.9605C37.3278 23.0174 37.4423 23.0433 37.5569 23.0348C37.7796 23.035 37.999 22.9822 38.1962 22.8809C38.3977 22.7698 38.5873 22.6392 38.7621 22.4909L39.087 23.045C38.6127 23.439 38.0645 23.7388 37.4731 23.9275C36.7973 24.1455 36.0886 24.2496 35.3771 24.2354C34.9049 24.2939 34.4254 24.2518 33.9713 24.1119C33.5173 23.9719 33.0996 23.7376 32.7467 23.4247C32.3257 22.8999 32.0903 22.2552 32.076 21.5879C31.5843 22.4097 30.8792 23.0894 30.0325 23.5581C29.1272 24.0027 28.1202 24.2112 27.1086 24.1635ZM29.6761 22.1113C30.0851 22.1184 30.4891 22.023 30.8499 21.8342C31.2719 21.5716 31.6297 21.2213 31.8979 20.8081V14.1484C31.6192 14.5908 31.2388 14.9633 30.787 15.2361C30.3049 15.5235 29.8229 15.8313 29.3198 16.17C28.8204 16.507 28.3961 16.9398 28.0727 17.4424C27.713 18.0672 27.5388 18.778 27.5697 19.4946C27.4911 20.2111 27.7017 20.9292 28.1566 21.4956C28.3483 21.701 28.5838 21.8626 28.8464 21.969C29.109 22.0754 29.3923 22.124 29.6761 22.1113Z" fill="#b82529"/>
<path d="M52.4639 6.77053C53.0294 6.74547 53.5886 6.9057 54.0665 7.22971C54.4643 7.50921 54.7795 7.90374 54.9754 8.36724C55.1608 8.82528 55.2573 9.3188 55.2587 9.81784C55.287 10.554 55.045 11.2729 54.5844 11.8215C54.3613 12.0753 54.0895 12.2748 53.7877 12.4062C53.4858 12.5377 53.1609 12.5981 52.8352 12.5833C52.2259 12.6225 51.6253 12.4137 51.1544 11.9989C50.9552 11.8037 50.7986 11.5642 50.6956 11.2974C50.5926 11.0305 50.5457 10.7427 50.5583 10.4544C50.5417 9.91606 50.678 9.38494 50.9491 8.93075C51.2143 8.52367 51.5452 8.17029 51.9264 7.88717C51.6464 7.7934 51.3464 7.7934 51.0664 7.88717C50.5154 7.98031 50.0078 8.26238 49.6201 8.69075C49.2016 9.15122 48.8698 9.69324 48.6429 10.2874C48.3981 10.8575 48.2683 11.4761 48.2618 12.1032V20.8484C48.212 21.2415 48.2508 21.6416 48.3749 22.0155C48.4989 22.3894 48.7047 22.7263 48.9751 22.9982C49.6304 23.4206 50.3903 23.6208 51.1544 23.5722V24.261L49.0826 24.1671C48.1706 24.1671 47.2226 24.1462 46.2389 24.1044C45.4082 24.1044 44.5776 24.1044 43.7372 24.1044L41.7827 24.1775V23.4783C42.0555 23.5108 42.3316 23.4851 42.5949 23.4027C42.8583 23.3203 43.1038 23.1828 43.317 22.9982C43.674 22.4465 43.8336 21.7762 43.7665 21.1093L43.8153 10.6735C43.8694 9.91328 43.7275 9.15176 43.4049 8.47158C43.227 8.21812 42.9897 8.01912 42.717 7.89456C42.4443 7.77 42.1456 7.72427 41.8511 7.76195V7.06277C42.5156 7.13582 43.1508 7.16711 43.8056 7.17754C44.6753 7.17754 45.4864 7.17757 46.2389 7.07321C46.9384 7.00697 47.6335 6.89544 48.3204 6.73926V9.80739C48.5619 9.21521 48.8919 8.66885 49.2976 8.18979C49.6994 7.71782 50.1842 7.3349 50.7244 7.06277C51.2779 6.8334 51.8711 6.73372 52.4639 6.77053Z" fill="#b82529"/>
<path d="M64.506 1.34766V7.07919H68.5137V7.78599H64.506L64.4093 21.8663C64.3592 22.3899 64.4926 22.9147 64.7854 23.3462C64.9232 23.4953 65.0903 23.6127 65.2754 23.6908C65.4606 23.7688 65.6598 23.8057 65.8598 23.7989C66.3082 23.7856 66.7394 23.6185 67.0847 23.3241C67.5702 22.8891 67.94 22.3342 68.1591 21.7117L68.7393 22.021C68.4041 23.0124 67.8314 23.9011 67.0739 24.6051C66.2303 25.3171 65.1547 25.6724 64.0655 25.599C63.3941 25.6137 62.7253 25.509 62.0885 25.2898C61.5555 25.107 61.0703 24.801 60.6703 24.3953C60.1663 23.8729 59.8258 23.2076 59.6925 22.4848C59.5187 21.5125 59.4431 20.5244 59.4669 19.5362V7.73079H56.6089V7.03504H59.4561V2.42996C60.3434 2.44043 61.2293 2.35525 62.0993 2.17591C62.9389 2.03169 63.7512 1.75217 64.506 1.34766Z" fill="#b82529"/>
<path d="M74.6487 25.5111C74.0093 25.5646 73.3656 25.4815 72.763 25.2676C72.1603 25.0536 71.6134 24.7141 71.1607 24.2729C70.4366 23.44 70.0551 22.377 70.0893 21.2881C70.0614 20.4211 70.3124 19.5673 70.8074 18.845C71.2923 18.2068 71.9146 17.6786 72.6311 17.2972C73.3883 16.8927 74.1819 16.556 75.0021 16.2913L77.3844 15.5063C78.0464 15.2929 78.6696 14.9795 79.2309 14.5778C79.45 14.4306 79.6288 14.2339 79.7519 14.0047C79.8751 13.7755 79.9388 13.5207 79.9376 13.2622V10.5316C79.957 9.97577 79.856 9.4222 79.6413 8.90654C79.4645 8.44782 79.1358 8.05899 78.7066 7.80105C78.215 7.51681 77.6483 7.3784 77.0766 7.40302C76.5873 7.39942 76.1 7.46273 75.629 7.591C75.1796 7.70072 74.7672 7.92159 74.4321 8.23214C75.0559 8.43902 75.6004 8.82447 75.9937 9.33764C76.3624 9.80333 76.5591 10.3757 76.5523 10.9628C76.563 11.3196 76.4919 11.6743 76.3441 12.0012C76.1962 12.3281 75.9753 12.6192 75.6974 12.8532C75.1391 13.3145 74.4244 13.5587 73.6912 13.5386C73.323 13.5639 72.9538 13.505 72.6133 13.3668C72.2728 13.2285 71.9705 13.0148 71.7307 12.7426C71.2828 12.2059 71.0483 11.5313 71.0695 10.8412C71.0471 10.2401 71.2316 9.64891 71.5939 9.16079C72.0062 8.66536 72.5036 8.24274 73.0643 7.91157C73.8271 7.50474 74.6498 7.21395 75.5036 7.04932C76.5182 6.83506 77.5543 6.73121 78.5926 6.73974C79.5995 6.73536 80.6029 6.85423 81.579 7.09351C82.4406 7.28589 83.2299 7.70691 83.8588 8.30953C84.4072 8.85372 84.7796 9.54159 84.9302 10.2884C85.106 11.2628 85.1862 12.2511 85.1696 13.2401V22.7584C85.1327 23.1602 85.1912 23.5648 85.3406 23.9413C85.3924 24.0551 85.4795 24.1504 85.5899 24.2138C85.7002 24.2772 85.8283 24.3056 85.9561 24.295C86.1947 24.2953 86.4296 24.2383 86.64 24.1292C86.8592 24.0095 87.0654 23.8688 87.2555 23.7091L87.6089 24.3061C87.0947 24.733 86.4979 25.0561 85.8535 25.2568C85.1411 25.487 84.3929 25.5955 83.6422 25.5774C83.1275 25.6451 82.6038 25.6031 82.1077 25.4541C81.6116 25.3052 81.155 25.053 80.7697 24.7151C80.3118 24.1497 80.0558 23.4551 80.0402 22.7363C79.5054 23.6216 78.7385 24.3539 77.8175 24.8589C76.8368 25.3374 75.7453 25.562 74.6487 25.5111ZM77.4414 23.3001C77.8862 23.3077 78.3256 23.205 78.718 23.0016C79.177 22.7187 79.5662 22.3413 79.8578 21.8961V14.7214C79.5547 15.198 79.141 15.5993 78.6496 15.8933C78.1367 16.2028 77.6009 16.5345 77.0538 16.8993C76.5105 17.2623 76.049 17.7287 75.6974 18.2701C75.3061 18.9432 75.1166 19.709 75.1502 20.4811C75.1002 20.8722 75.1309 21.2691 75.2405 21.6487C75.3501 22.0283 75.5364 22.3829 75.7886 22.6921C76.0052 22.8982 76.2647 23.0571 76.5497 23.1582C76.8347 23.2592 77.1387 23.3001 77.4414 23.278V23.3001Z" fill="#b82529"/>
<path d="M105.13 6.80459V7.50078C104.662 7.63854 104.242 7.91451 103.922 8.29497C103.427 8.94263 103.053 9.68057 102.819 10.4707L98.071 24.069L96.8315 26.4732L89.6673 9.40455C89.4669 8.75202 89.0783 8.17873 88.5538 7.76186C88.2657 7.58758 87.9416 7.48694 87.6084 7.46818V6.73926C88.3332 6.81541 89.0895 6.86984 89.8774 6.91335L92.1569 6.97862C93.0603 6.97862 93.9007 6.97863 94.6465 6.91335L96.7474 6.7937V7.51167C96.3331 7.50828 95.9189 7.53373 95.5079 7.58783C95.3484 7.59944 95.1936 7.64856 95.0553 7.73151C94.9169 7.81446 94.7987 7.92905 94.7095 8.06649C94.5625 8.33846 94.615 8.78448 94.8776 9.42632L99.0795 19.9134L98.8273 20.0983L101.317 12.9837C101.947 11.1234 102.052 9.72007 101.632 8.90417C101.424 8.47861 101.107 8.11994 100.717 7.8669C100.326 7.61385 99.8762 7.47601 99.4156 7.46818V6.78282L101.086 6.85897C101.674 6.85897 102.199 6.85897 102.641 6.85897H104.038L105.13 6.80459ZM98.071 24.0473L96.8105 27.7134C96.54 28.6475 96.0321 29.4891 95.3398 30.1502C94.988 30.4455 94.5799 30.6606 94.1423 30.7812C93.588 30.9379 93.0149 31.0112 92.4405 30.9988C91.8835 30.9916 91.3309 30.8962 90.8018 30.7159C90.2633 30.5502 89.7773 30.2385 89.3942 29.8129C89.2038 29.6 89.0565 29.3498 88.9608 29.0771C88.8652 28.8043 88.8233 28.5145 88.8374 28.2246C88.8251 27.9022 88.885 27.5811 89.0126 27.2867C89.1402 26.9923 89.3319 26.7324 89.5728 26.5276C90.1138 26.1292 90.7586 25.9098 91.4223 25.8981C92.086 25.8865 92.7376 26.0831 93.2914 26.4623C93.5246 26.6546 93.7094 26.9025 93.8301 27.1847C93.9508 27.4669 94.0039 27.7752 93.9847 28.0833C93.9847 28.554 93.8373 29.0121 93.5645 29.3887C93.2519 29.8251 92.8145 30.1487 92.3145 30.3134C92.4472 30.3265 92.5809 30.3265 92.7136 30.3134H93.0813C93.7246 30.3241 94.3505 30.0964 94.8461 29.6715C95.4339 29.1111 95.8717 28.4028 96.1171 27.6154L97.2937 24.069L98.071 24.0473Z" fill="#b82529"/>
<path d="M114.32 1.34766V7.07196H118.349V7.76683H114.32L114.266 21.8625C114.21 22.3877 114.341 22.9161 114.634 23.3515C114.772 23.5002 114.94 23.6165 115.126 23.6927C115.313 23.7688 115.513 23.8029 115.714 23.7926C116.163 23.7784 116.595 23.6159 116.945 23.3294C117.436 22.8929 117.808 22.3345 118.025 21.7081L118.609 22.028C118.278 23.0183 117.701 23.9039 116.934 24.5978C116.084 25.3061 115.005 25.664 113.91 25.6015C113.239 25.6115 112.571 25.5071 111.933 25.2927C111.393 25.1131 110.901 24.8072 110.497 24.3993C109.996 23.8733 109.654 23.2107 109.514 22.4912C109.345 21.5193 109.269 20.5331 109.287 19.5463L109.341 7.74475H106.478V7.04988H109.352V2.45061C110.24 2.45506 111.126 2.37011 111.998 2.19695C112.809 2.03283 113.592 1.74659 114.32 1.34766Z" fill="#b82529"/>
<path d="M124.168 25.5032C123.577 25.5591 122.982 25.477 122.426 25.2629C121.869 25.0488 121.365 24.708 120.948 24.2649C120.282 23.4346 119.93 22.376 119.959 21.2906C119.93 20.423 120.162 19.5679 120.622 18.847C121.07 18.2055 121.649 17.6768 122.316 17.2991C123.008 16.888 123.738 16.5509 124.494 16.2928C125.262 16.0275 125.998 15.7622 126.693 15.4968C127.303 15.2867 127.878 14.977 128.397 14.579C128.601 14.4308 128.767 14.2324 128.881 14.001C128.994 13.7697 129.052 13.5126 129.05 13.2522V10.5212C129.065 9.96543 128.972 9.41217 128.776 8.8958C128.608 8.44334 128.31 8.05697 127.924 7.79011C127.463 7.51458 126.938 7.38053 126.409 7.40315C125.958 7.40171 125.509 7.46114 125.072 7.58003C124.657 7.69341 124.276 7.91821 123.968 8.23241C124.547 8.43798 125.053 8.82354 125.42 9.3381C125.754 9.80649 125.932 10.3779 125.925 10.9634C125.941 11.3196 125.878 11.6748 125.741 12.001C125.604 12.3272 125.397 12.6155 125.136 12.8431C124.619 13.3031 123.961 13.5506 123.284 13.5397C122.944 13.5641 122.603 13.5049 122.289 13.3667C121.975 13.2285 121.696 13.0152 121.474 12.7436C121.061 12.2025 120.844 11.5243 120.864 10.8307C120.847 10.2318 121.021 9.64417 121.358 9.16115C121.738 8.66531 122.193 8.23937 122.705 7.90072C123.414 7.50509 124.172 7.21481 124.957 7.03825C125.894 6.83329 126.85 6.7332 127.808 6.73969C128.737 6.73122 129.663 6.84646 130.565 7.08252C131.359 7.27711 132.087 7.69789 132.669 8.29875C133.18 8.84408 133.524 9.53699 133.658 10.289C133.821 11.2634 133.895 12.2519 133.879 13.2411V22.7501C133.855 23.1552 133.909 23.5613 134.037 23.9443C134.088 24.0552 134.169 24.1478 134.27 24.2107C134.371 24.2736 134.488 24.304 134.605 24.298C134.827 24.2999 135.045 24.2388 135.236 24.1211C135.438 24.0053 135.629 23.8683 135.804 23.712L136.13 24.3091C135.654 24.7277 135.109 25.0501 134.521 25.26C133.858 25.485 133.165 25.5934 132.469 25.5807C131.995 25.6445 131.513 25.5995 131.057 25.4486C130.601 25.2978 130.182 25.0448 129.828 24.7071C129.397 24.1465 129.16 23.4488 129.155 22.728C128.652 23.6248 127.924 24.3591 127.05 24.8509C126.16 25.3287 125.166 25.5536 124.168 25.5032ZM126.745 23.2919C127.157 23.2971 127.563 23.1904 127.924 22.9822C128.349 22.7019 128.709 22.3239 128.976 21.8766V14.7117C128.695 15.188 128.309 15.5862 127.85 15.8727C127.377 16.1933 126.882 16.5251 126.388 16.8789C125.88 17.2426 125.45 17.7133 125.125 18.261C124.767 18.9357 124.593 19.7006 124.62 20.4724C124.533 21.2622 124.744 22.0564 125.209 22.6838C125.409 22.8934 125.65 23.0552 125.915 23.1582C126.18 23.2613 126.463 23.3031 126.745 23.2808V23.2919Z" fill="#b82529"/>
<path d="M150.554 6.82848C151.367 6.81091 152.177 6.93942 152.946 7.20791C153.506 7.41887 154.004 7.76797 154.396 8.22333C154.796 8.72929 155.077 9.321 155.215 9.95301C155.406 10.8962 155.488 11.8585 155.459 12.8208V22.3169C155.38 23.025 155.557 23.7379 155.957 24.3255C156.442 24.7317 157.067 24.9282 157.695 24.8724V25.6088L155.702 25.5084L153.078 25.4414C152.193 25.4414 151.318 25.4414 150.465 25.4414L148.517 25.5195V24.7831C148.785 24.8108 149.057 24.7781 149.311 24.6874C149.566 24.5968 149.798 24.4502 149.989 24.2586C150.329 23.6476 150.48 22.948 150.421 22.25V11.2697C150.435 10.7512 150.379 10.2332 150.255 9.72982C150.164 9.32893 149.947 8.96859 149.635 8.70315C149.231 8.42783 148.749 8.29451 148.262 8.32379C147.794 8.31122 147.329 8.40497 146.901 8.59813C146.474 8.7913 146.095 9.07893 145.793 9.43967C145.105 10.2531 144.742 11.2951 144.774 12.3633V22.1719C144.703 22.8742 144.855 23.5811 145.206 24.1916C145.394 24.3835 145.621 24.5311 145.872 24.6238C146.123 24.7164 146.391 24.7518 146.657 24.7273V25.4637L144.819 25.3744C144.01 25.3744 143.169 25.3075 142.316 25.3075C141.464 25.3075 140.512 25.3075 139.582 25.3075L137.478 25.3856V24.6492C137.788 24.6824 138.101 24.6531 138.399 24.5631C138.698 24.473 138.976 24.324 139.216 24.1247C139.627 23.5414 139.812 22.8272 139.737 22.1161L139.792 10.9573C139.845 10.1449 139.685 9.33276 139.327 8.60276C139.123 8.33133 138.852 8.11776 138.542 7.98284C138.231 7.84793 137.892 7.79625 137.556 7.8328V7.09635C138.297 7.1633 139.017 7.20791 139.77 7.20791C140.686 7.21782 141.603 7.1806 142.516 7.09635C143.313 7.03015 144.104 6.91085 144.885 6.73926V9.9195C145.382 8.82752 146.228 7.93538 147.288 7.38642C148.323 6.9612 149.438 6.77072 150.554 6.82848Z" fill="#b82529"/>
<path d="M166.886 1.34766V7.06553H170.925V7.76096H166.896L166.832 21.8681C166.778 22.39 166.908 22.9144 167.199 23.3472C167.337 23.4959 167.505 23.6125 167.692 23.6887C167.878 23.7649 168.078 23.799 168.279 23.7887C168.728 23.7745 169.16 23.6118 169.51 23.3251C170.002 22.8934 170.374 22.3378 170.591 21.7135L171.174 22.0225C170.841 23.0157 170.265 23.9051 169.5 24.6056C168.651 25.3172 167.57 25.6724 166.475 25.599C165.804 25.609 165.136 25.5045 164.498 25.2899C163.958 25.1102 163.466 24.8041 163.062 24.3958C162.561 23.8694 162.219 23.2063 162.079 22.4862C161.91 21.5136 161.834 20.5265 161.852 19.5389L161.917 7.73886H159.043V7.01036H161.917V2.40737C162.805 2.4173 163.692 2.33217 164.563 2.15344C165.372 2.00343 166.155 1.73191 166.886 1.34766Z" fill="#b82529"/>
<path d="M177.07 25.5129C176.43 25.5682 175.785 25.4849 175.182 25.2689C174.579 25.0529 174.032 24.7095 173.582 24.2636C172.867 23.4318 172.491 22.3734 172.525 21.2895C172.487 20.4228 172.733 19.5667 173.23 18.8461C173.714 18.2047 174.339 17.676 175.059 17.2982C175.807 16.8892 176.595 16.5522 177.41 16.2921C178.236 16.0268 179.031 15.7614 179.796 15.4961C180.451 15.2838 181.068 14.9742 181.625 14.5784C181.846 14.4307 182.027 14.2326 182.152 14.0014C182.277 13.7702 182.342 13.5129 182.341 13.2517V10.5319C182.348 9.97331 182.247 9.41844 182.045 8.89557C181.856 8.44417 181.532 8.05883 181.114 7.78995C180.617 7.51445 180.05 7.38033 179.478 7.40295C178.991 7.40079 178.505 7.46402 178.035 7.59088C177.604 7.70073 177.211 7.92237 176.899 8.23216C177.522 8.4378 178.065 8.82355 178.456 9.33778C178.817 9.80614 179.008 10.3776 179.001 10.9631C179.017 11.3206 178.948 11.6769 178.8 12.0046C178.653 12.3323 178.43 12.6227 178.149 12.8536C177.591 13.3123 176.88 13.5561 176.149 13.5391C175.783 13.5635 175.415 13.5043 175.076 13.3661C174.736 13.2279 174.435 13.0146 174.195 12.7431C173.749 12.202 173.516 11.5239 173.537 10.8304C173.52 10.2318 173.708 9.64466 174.07 9.16091C174.484 8.66502 174.979 8.23912 175.536 7.90049C176.3 7.50165 177.119 7.21122 177.967 7.03808C178.976 6.83259 180.004 6.73256 181.034 6.73961C182.042 6.73523 183.045 6.85411 184.022 7.09341C184.883 7.28132 185.67 7.70303 186.294 8.30956C186.847 8.84943 187.219 9.53924 187.362 10.2886C187.549 11.2616 187.629 12.2512 187.601 13.2406V22.76C187.576 23.1614 187.634 23.5637 187.771 23.943C187.827 24.0539 187.914 24.1466 188.023 24.2095C188.132 24.2724 188.258 24.3027 188.385 24.2968C188.622 24.297 188.857 24.24 189.066 24.1309C189.285 24.0112 189.49 23.8705 189.68 23.7108L190.043 24.3079C189.526 24.7285 188.933 25.051 188.294 25.2587C187.58 25.4897 186.83 25.5982 186.078 25.5793C185.567 25.6446 185.048 25.6013 184.555 25.4524C184.063 25.3035 183.61 25.0526 183.227 24.7169C182.771 24.1514 182.515 23.4568 182.5 22.7378C181.95 23.6294 181.166 24.3622 180.228 24.8607C179.249 25.336 178.162 25.5604 177.07 25.5129ZM179.842 23.3017C180.289 23.3054 180.731 23.199 181.125 22.9922C181.582 22.7079 181.969 22.3307 182.261 21.8866V14.7111C181.955 15.1879 181.539 15.5891 181.046 15.883C180.535 16.1926 180.001 16.5243 179.467 16.8891C178.923 17.2493 178.462 17.7163 178.115 18.2601C177.725 18.9337 177.532 19.6986 177.558 20.4713C177.47 21.2606 177.698 22.0526 178.194 22.6826C178.409 22.8907 178.667 23.0517 178.952 23.1547C179.236 23.2576 179.539 23.3002 179.842 23.2796V23.3017Z" fill="#b82529"/>
<path d="M197.668 6.74605C198.553 6.73371 199.435 6.85975 200.28 7.11935C200.848 7.28025 201.389 7.52453 201.883 7.84392C202.69 8.37091 203.183 8.03056 203.385 6.74605H204.125C204.125 7.39379 204.035 8.18424 204.013 9.11743C203.99 10.0506 204.013 11.3132 204.013 12.8502H203.262C203.15 11.9812 202.928 11.1292 202.6 10.3142C202.307 9.52137 201.818 8.81216 201.177 8.25013C200.497 7.7018 199.635 7.41666 198.755 7.4487C198.126 7.42512 197.51 7.62386 197.018 8.00863C196.776 8.20957 196.585 8.463 196.46 8.74888C196.336 9.03477 196.281 9.34522 196.301 9.65545C196.28 10.3171 196.502 10.964 196.928 11.4779C197.396 12.0544 197.948 12.5611 198.565 12.982L200.672 14.5081C201.752 15.2767 202.75 16.1483 203.654 17.11C204.487 18.0468 204.92 19.2614 204.864 20.5025C204.871 21.4878 204.54 22.4468 203.923 23.2252C203.284 24.0129 202.445 24.6224 201.49 24.9928C200.423 25.4177 199.279 25.6268 198.128 25.6076C197.486 25.6143 196.845 25.5404 196.222 25.388C195.725 25.2654 195.244 25.0886 194.787 24.861L193.924 24.4548L193.162 24.1255C193.046 24.0924 192.923 24.0982 192.811 24.142C192.699 24.1857 192.606 24.265 192.546 24.367C192.341 24.6575 192.199 24.9865 192.131 25.3331H191.391C191.391 24.5975 191.481 23.6863 191.503 22.6214C191.525 21.5564 191.503 20.1511 191.559 18.3835H192.31C192.421 19.5085 192.678 20.6151 193.072 21.6772C193.38 22.544 193.904 23.3215 194.597 23.9388C195.288 24.501 196.165 24.7976 197.063 24.7732C197.68 24.7759 198.28 24.5748 198.767 24.2023C199.046 23.9743 199.264 23.6833 199.402 23.3543C199.541 23.0254 199.596 22.6683 199.562 22.314C199.578 21.8464 199.496 21.3808 199.323 20.945C199.149 20.5091 198.888 20.1121 198.554 19.7779C197.753 18.9907 196.899 18.2571 195.998 17.5821C195.247 16.9783 194.53 16.3854 193.857 15.7926C193.217 15.2233 192.665 14.5649 192.22 13.8384C191.792 13.1037 191.575 12.2689 191.593 11.423C191.569 10.4745 191.873 9.54585 192.456 8.78808C193.038 8.05909 193.814 7.50083 194.698 7.17424C195.652 6.85028 196.659 6.70501 197.668 6.74605Z" fill="#b82529"/>
</svg>
