<svg width="133" height="17" viewBox="0 0 133 17" fill="none" xmlns="http://www.w3.org/2000/svg">
<path d="M14 0.070359C13.9354 0.703616 13.8923 1.30754 13.8635 1.88803C13.8348 2.46851 13.8635 2.91415 13.8204 3.22492C13.7773 3.53568 13.8204 3.75851 13.8204 4.00477C13.8204 4.25104 13.8204 4.46213 13.8635 4.63217H13.3392C13.1728 3.78022 12.8685 2.95009 12.4341 2.16363C12.1518 1.63869 11.6937 1.18948 11.1124 0.867785C10.5616 0.605135 9.93283 0.471269 9.29503 0.48081H8.78502L8.72756 11.0703C8.69987 11.448 8.76333 11.8266 8.91432 12.1843C8.97652 12.3076 9.07433 12.4168 9.19941 12.5026C9.32448 12.5883 9.47312 12.6481 9.63264 12.6769C10.1315 12.7738 10.6426 12.823 11.1555 12.8234V13.1928L9.28066 13.1518C8.50488 13.1518 7.686 13.1518 6.83838 13.1518C5.99077 13.1518 5.22217 13.1518 4.47512 13.1518L2.67933 13.187V12.8117C3.19855 12.8185 3.71693 12.7752 4.22371 12.6827C4.38299 12.6535 4.53135 12.5936 4.65635 12.5079C4.78134 12.4222 4.87931 12.3132 4.94203 12.1902C5.08547 11.8329 5.15111 11.4578 5.13597 11.082L5.19344 0.439762H4.6978C4.05864 0.42342 3.42663 0.553418 2.87327 0.815033C2.29105 1.12573 1.8319 1.56775 1.55157 2.0874C1.10845 2.87763 0.782885 3.70837 0.581841 4.56181H0.0574667C0.0909059 4.35372 0.110092 4.14425 0.114933 3.93441C0.114933 3.68815 0.114933 3.42428 0.114933 3.15456C0.114933 2.88484 0.114933 2.39815 0.114933 1.81767C0.114933 1.23718 0.0574654 0.644984 0 0L2.28425 0.0469179C3.11031 0.0469179 3.93638 0.0469179 4.76963 0.0469179H7.02515H9.28066C10.1067 0.0469179 10.94 0.0469179 11.7732 0.0469179L14 0.070359Z" fill="#B82529"/>
<path d="M17.5987 13.1397C17.2171 13.1667 16.8329 13.1248 16.4732 13.0168C16.1135 12.9088 15.787 12.7375 15.5169 12.5148C15.0847 12.0943 14.8569 11.5578 14.8773 11.0082C14.8541 10.5699 15.0045 10.1373 15.306 9.77495C15.5954 9.45283 15.9668 9.18628 16.3945 8.99376C16.8464 8.78959 17.3201 8.61961 17.8096 8.48596C18.3063 8.35204 18.7757 8.22372 19.2315 8.0898C19.6259 7.98056 19.9976 7.82248 20.3337 7.62106C20.4644 7.54678 20.5712 7.4475 20.6446 7.33181C20.7181 7.21611 20.7562 7.08748 20.7555 6.95703V5.57878C20.7636 5.29843 20.7035 5.01955 20.5786 4.75849C20.4731 4.52695 20.2769 4.33069 20.0207 4.20049C19.7249 4.05687 19.3844 3.98708 19.041 3.99962C18.7513 3.99818 18.4627 4.0301 18.1838 4.09447C17.9277 4.1542 17.6938 4.26546 17.5035 4.41812C17.8758 4.52254 18.2008 4.7171 18.4355 4.97612C18.6556 5.21119 18.773 5.50007 18.7689 5.79641C18.7759 5.97713 18.7331 6.15683 18.6436 6.32206C18.554 6.48729 18.4201 6.63377 18.2518 6.75057C17.9217 6.98402 17.4969 7.10747 17.0612 7.09653C16.8405 7.10888 16.6193 7.07903 16.4151 7.00931C16.2108 6.93959 16.0291 6.83192 15.8842 6.69479C15.622 6.42195 15.4848 6.08229 15.4964 5.735C15.4841 5.43173 15.5941 5.13362 15.8094 4.88686C16.0555 4.63679 16.3524 4.42347 16.687 4.25631C17.1423 4.05096 17.6334 3.90415 18.143 3.82105C18.7485 3.71263 19.3669 3.66024 19.9867 3.66483C20.5877 3.66262 21.1866 3.72261 21.7692 3.84339C22.2834 3.9405 22.7545 4.15301 23.1299 4.45718C23.4572 4.73186 23.6795 5.07904 23.7694 5.456C23.8743 5.9478 23.9222 6.44668 23.9123 6.9459V11.7503C23.8961 11.9552 23.9332 12.1607 24.0211 12.353C24.0527 12.4084 24.1041 12.4546 24.1685 12.4855C24.2329 12.5164 24.3073 12.5306 24.3817 12.5259C24.5263 12.5261 24.6687 12.4973 24.7967 12.4422C24.9275 12.3818 25.0506 12.3108 25.1641 12.2302L25.375 12.5315C25.0671 12.7457 24.7112 12.9088 24.3273 13.0114C23.8885 13.1299 23.4284 13.1865 22.9666 13.1788C22.66 13.2106 22.3487 13.1877 22.054 13.1116C21.7592 13.0355 21.488 12.9081 21.2589 12.738C20.9856 12.4526 20.8328 12.102 20.8235 11.7391C20.5043 12.186 20.0466 12.5556 19.4969 12.8105C18.9092 13.0523 18.2554 13.1657 17.5987 13.1397ZM19.2655 12.0237C19.531 12.0276 19.7933 11.9757 20.0275 11.873C20.3015 11.7303 20.5338 11.5398 20.7079 11.315V7.6936C20.527 7.93416 20.28 8.13671 19.9867 8.28509C19.6737 8.44133 19.3608 8.60875 19.0342 8.79289C18.71 8.97614 18.4345 9.21155 18.2246 9.48481C17.9911 9.82458 17.878 10.2111 17.8981 10.6008C17.847 10.9904 17.9838 11.3809 18.279 11.6889C18.4035 11.8006 18.5564 11.8885 18.7269 11.9463C18.8973 12.0042 19.0812 12.0306 19.2655 12.0237Z" fill="#B82529"/>
<path d="M34.0591 3.68156C34.4263 3.66793 34.7894 3.75506 35.0996 3.93126C35.3578 4.08324 35.5625 4.29778 35.6896 4.54984C35.81 4.79891 35.8726 5.06729 35.8736 5.33866C35.8919 5.73899 35.7348 6.12991 35.4358 6.42823C35.291 6.56626 35.1145 6.67471 34.9186 6.7462C34.7226 6.81769 34.5117 6.85053 34.3002 6.84249C33.9047 6.86379 33.5148 6.75024 33.209 6.5247C33.0798 6.41856 32.9781 6.28833 32.9112 6.1432C32.8444 5.99808 32.8139 5.84162 32.822 5.68482C32.8113 5.39207 32.8998 5.10325 33.0758 4.85627C33.2479 4.6349 33.4627 4.44273 33.7102 4.28878C33.5285 4.23778 33.3337 4.23778 33.1519 4.28878C32.7942 4.33942 32.4647 4.49281 32.213 4.72576C31.9413 4.97616 31.7259 5.2709 31.5786 5.594C31.4197 5.90401 31.3354 6.24042 31.3312 6.58143V11.337C31.2989 11.5508 31.324 11.7683 31.4046 11.9717C31.4851 12.175 31.6187 12.3582 31.7943 12.506C32.2197 12.7357 32.713 12.8446 33.209 12.8182V13.1927L31.8641 13.1417C31.272 13.1417 30.6566 13.1303 30.0179 13.1076C29.4787 13.1076 28.9394 13.1076 28.3938 13.1076L27.125 13.1473V12.7671C27.3021 12.7848 27.4813 12.7708 27.6523 12.726C27.8233 12.6812 27.9826 12.6064 28.121 12.506C28.3528 12.206 28.4564 11.8415 28.4129 11.4789L28.4446 5.80397C28.4797 5.39056 28.3875 4.97645 28.1781 4.60657C28.0626 4.46874 27.9086 4.36053 27.7315 4.2928C27.5545 4.22506 27.3606 4.20019 27.1694 4.22068V3.84047C27.6008 3.8802 28.0132 3.89721 28.4382 3.90289C29.0029 3.90289 29.5294 3.9029 30.0179 3.84615C30.4721 3.81013 30.9233 3.74948 31.3692 3.66455V5.33298C31.526 5.01095 31.7403 4.71385 32.0036 4.45334C32.2645 4.19668 32.5792 3.98846 32.9299 3.84047C33.2892 3.71574 33.6743 3.66154 34.0591 3.68156Z" fill="#B82529"/>
<path d="M41.8768 0.732422V3.84918H44.4785V4.23353H41.8768L41.814 11.8903C41.7815 12.175 41.868 12.4604 42.0581 12.695C42.1476 12.7761 42.2561 12.84 42.3763 12.8824C42.4965 12.9249 42.6258 12.9449 42.7557 12.9412C43.0468 12.934 43.3267 12.8431 43.5508 12.683C43.866 12.4465 44.1061 12.1447 44.2483 11.8062L44.625 11.9744C44.4074 12.5135 44.0356 12.9968 43.5439 13.3796C42.9962 13.7668 42.2979 13.96 41.5908 13.9201C41.1549 13.9281 40.7207 13.8712 40.3074 13.752C39.9613 13.6526 39.6463 13.4861 39.3866 13.2655C39.0594 12.9815 38.8384 12.6197 38.7519 12.2266C38.6391 11.6979 38.59 11.1606 38.6054 10.6232V4.20351H36.75V3.82518H38.5984V1.32097C39.1744 1.32666 39.7495 1.28034 40.3143 1.18282C40.8594 1.10439 41.3867 0.952391 41.8768 0.732422Z" fill="#B82529"/>
<path d="M48.4613 13.8725C48.0463 13.9016 47.6284 13.8564 47.2371 13.7401C46.8459 13.6238 46.4908 13.4391 46.197 13.1992C45.7269 12.7463 45.4792 12.1683 45.5014 11.5761C45.4833 11.1046 45.6462 10.6403 45.9676 10.2475C46.2824 9.9005 46.6864 9.61329 47.1515 9.40589C47.6431 9.18592 48.1583 9.00283 48.6907 8.85885L50.2373 8.43201C50.6671 8.31594 51.0717 8.14554 51.4361 7.92706C51.5783 7.84703 51.6944 7.74007 51.7743 7.61543C51.8543 7.49079 51.8956 7.35222 51.8949 7.21168V5.72679C51.9075 5.42454 51.8419 5.12351 51.7025 4.8431C51.5877 4.59365 51.3743 4.38221 51.0957 4.24194C50.7766 4.08738 50.4087 4.01211 50.0375 4.0255C49.7199 4.02354 49.4035 4.05797 49.0977 4.12772C48.806 4.18738 48.5382 4.3075 48.3207 4.47637C48.7257 4.58887 49.0792 4.79847 49.3345 5.07753C49.5738 5.33077 49.7015 5.642 49.6971 5.96125C49.7041 6.1553 49.6579 6.34816 49.562 6.52594C49.466 6.70372 49.3226 6.86199 49.1421 6.98925C48.7797 7.24013 48.3157 7.37292 47.8397 7.36197C47.6007 7.37573 47.361 7.34372 47.14 7.26855C46.9189 7.19337 46.7226 7.07711 46.567 6.92911C46.2762 6.63726 46.1239 6.27041 46.1378 5.89513C46.1232 5.56829 46.2429 5.24679 46.4782 4.98136C46.7458 4.71195 47.0688 4.48213 47.4327 4.30204C47.9279 4.08081 48.462 3.92269 49.0163 3.83316C49.675 3.71665 50.3476 3.66017 51.0217 3.66482C51.6753 3.66243 52.3267 3.72707 52.9605 3.85719C53.5198 3.9618 54.0322 4.19075 54.4404 4.51845C54.7965 4.81438 55.0383 5.18844 55.136 5.59455C55.2502 6.12439 55.3022 6.66182 55.2914 7.19964V12.3756C55.2675 12.5941 55.3055 12.8141 55.4024 13.0189C55.436 13.0808 55.4926 13.1326 55.5643 13.1671C55.6359 13.2016 55.719 13.217 55.802 13.2112C55.9569 13.2114 56.1094 13.1804 56.246 13.1211C56.3883 13.056 56.5222 12.9795 56.6456 12.8926L56.875 13.2173C56.5412 13.4494 56.1538 13.6251 55.7354 13.7343C55.2729 13.8594 54.7872 13.9184 54.2998 13.9086C53.9657 13.9454 53.6258 13.9225 53.3037 13.8415C52.9816 13.7605 52.6852 13.6234 52.4351 13.4397C52.1378 13.1322 51.9716 12.7545 51.9615 12.3636C51.6143 12.845 51.1164 13.2433 50.5185 13.5178C49.8818 13.7781 49.1732 13.9002 48.4613 13.8725ZM50.2743 12.6702C50.5631 12.6743 50.8484 12.6185 51.1031 12.5079C51.4011 12.3541 51.6537 12.1488 51.8431 11.9067V8.00518C51.6463 8.26434 51.3777 8.48259 51.0587 8.64244C50.7257 8.81076 50.3779 8.9911 50.0227 9.18948C49.67 9.38691 49.3704 9.64052 49.1421 9.93491C48.8881 10.301 48.7651 10.7174 48.7869 11.1372C48.7545 11.35 48.7744 11.5658 48.8455 11.7722C48.9167 11.9786 49.0376 12.1715 49.2013 12.3396C49.3419 12.4517 49.5104 12.5381 49.6955 12.593C49.8805 12.648 50.0778 12.6702 50.2743 12.6582V12.6702Z" fill="#B82529"/>
<path d="M68.25 3.70008V4.07866C67.9458 4.15357 67.6733 4.30364 67.4658 4.51053C67.1441 4.86273 66.9012 5.26401 66.7497 5.69368L63.6673 13.0883L62.8626 14.3957L58.2116 5.11391C58.0815 4.75908 57.8293 4.44732 57.4888 4.22063C57.3017 4.12586 57.0913 4.07114 56.875 4.06093V3.66455C57.3455 3.70596 57.8365 3.73556 58.348 3.75922L59.8279 3.79472C60.4143 3.79472 60.9599 3.79472 61.4441 3.75922L62.808 3.69416V4.08458C62.539 4.08274 62.2702 4.09658 62.0033 4.126C61.8998 4.13231 61.7993 4.15902 61.7095 4.20413C61.6196 4.24924 61.5429 4.31155 61.485 4.38629C61.3895 4.53418 61.4236 4.77673 61.5941 5.12576L64.3219 10.8285L64.1583 10.9291L65.7745 7.06021C66.1837 6.04862 66.2519 5.28549 65.9791 4.84181C65.8439 4.61039 65.6384 4.41536 65.3848 4.27775C65.1313 4.14015 64.8392 4.06519 64.5402 4.06093V3.68824L65.6245 3.72965C66.0064 3.72965 66.3474 3.72965 66.6338 3.72965H67.5408L68.25 3.70008ZM63.6673 13.0765L62.8489 15.0701C62.6734 15.5781 62.3436 16.0357 61.8942 16.3952C61.6658 16.5558 61.4009 16.6728 61.1167 16.7383C60.7569 16.8236 60.3849 16.8634 60.012 16.8567C59.6504 16.8528 59.2916 16.8009 58.9481 16.7029C58.5985 16.6128 58.283 16.4432 58.0343 16.2118C57.9107 16.0961 57.8151 15.96 57.753 15.8117C57.6909 15.6633 57.6637 15.5057 57.6729 15.3481C57.6649 15.1728 57.7038 14.9982 57.7866 14.8381C57.8694 14.678 57.9939 14.5367 58.1503 14.4253C58.5015 14.2086 58.9201 14.0893 59.351 14.083C59.7819 14.0766 60.2049 14.1836 60.5644 14.3898C60.7157 14.4943 60.8357 14.6291 60.9141 14.7826C60.9925 14.9361 61.0269 15.1037 61.0145 15.2713C61.0145 15.5273 60.9187 15.7763 60.7417 15.9811C60.5387 16.2185 60.2548 16.3944 59.9302 16.484C60.0163 16.4911 60.1031 16.4911 60.1893 16.484H60.428C60.8456 16.4898 61.2519 16.366 61.5737 16.1349C61.9553 15.8302 62.2395 15.445 62.3988 15.0168L63.1626 13.0883L63.6673 13.0765Z" fill="#B82529"/>
<path d="M74.2161 0.732422V3.84525H76.8317V4.22311H74.2161L74.181 11.8882C74.1445 12.1738 74.2291 12.4612 74.4194 12.6979C74.5092 12.7788 74.6183 12.842 74.7394 12.8835C74.8604 12.9249 74.9905 12.9434 75.1207 12.9378C75.412 12.9301 75.6925 12.8417 75.9201 12.6859C76.2387 12.4486 76.4802 12.1449 76.6213 11.8043L77 11.9782C76.7855 12.5167 76.4109 12.9983 75.9131 13.3757C75.3611 13.7608 74.6608 13.9555 73.9496 13.9215C73.5139 13.9269 73.0802 13.8701 72.6663 13.7535C72.3154 13.6559 71.9961 13.4895 71.7336 13.2677C71.4084 12.9817 71.1868 12.6213 71.0955 12.2301C70.9861 11.7016 70.9368 11.1653 70.9482 10.6287L70.9833 4.21111H69.125V3.83325H70.9903V1.3322C71.5669 1.33462 72.1424 1.28842 72.7084 1.19426C73.2349 1.10501 73.743 0.94936 74.2161 0.732422Z" fill="#B82529"/>
<path d="M80.6088 13.8683C80.2255 13.8986 79.8394 13.854 79.4781 13.7376C79.1167 13.6211 78.7891 13.4358 78.5187 13.1948C78.0863 12.7434 77.8578 12.1677 77.8766 11.5774C77.8576 11.1057 78.0082 10.6407 78.3069 10.2486C78.5981 9.8998 78.9737 9.61231 79.4066 9.40689C79.8559 9.18335 80.3296 9.00003 80.8205 8.85971C81.3191 8.71541 81.7973 8.57113 82.2481 8.42682C82.6444 8.31259 83.0178 8.14417 83.3546 7.92776C83.4868 7.84715 83.5946 7.73923 83.6684 7.61344C83.7423 7.48765 83.7799 7.34782 83.7781 7.20624V5.72114C83.7883 5.41892 83.7279 5.11806 83.6005 4.83726C83.4913 4.59122 83.298 4.38111 83.0472 4.236C82.7482 4.08617 82.4074 4.01327 82.0637 4.02557C81.771 4.02479 81.4795 4.0571 81.1962 4.12175C80.9263 4.18341 80.6792 4.30565 80.479 4.47652C80.8551 4.5883 81.1838 4.79797 81.4216 5.07778C81.6387 5.33249 81.7539 5.64323 81.7495 5.96162C81.7599 6.15529 81.7191 6.34846 81.6302 6.52585C81.5413 6.70325 81.4067 6.86002 81.2372 6.98377C80.9017 7.23391 80.4746 7.3685 80.035 7.36257C79.8144 7.37586 79.5934 7.34367 79.3894 7.26852C79.1855 7.19336 79.0042 7.07734 78.8602 6.92968C78.5919 6.63542 78.4514 6.26663 78.464 5.88947C78.453 5.56379 78.566 5.24422 78.785 4.98156C79.0312 4.71192 79.3267 4.4803 79.6593 4.29614C80.1196 4.081 80.6115 3.92315 81.1211 3.82714C81.7298 3.71568 82.3503 3.66126 82.9721 3.66479C83.5752 3.66018 84.1765 3.72285 84.7617 3.85121C85.2774 3.95703 85.7501 4.18585 86.1278 4.51259C86.4593 4.80914 86.6828 5.18593 86.7698 5.59486C86.8758 6.12472 86.9239 6.66229 86.9133 7.20022V12.3711C86.8979 12.5914 86.9327 12.8122 87.0157 13.0205C87.0491 13.0808 87.1018 13.1312 87.1674 13.1654C87.2329 13.1996 87.3085 13.2161 87.3846 13.2129C87.5285 13.2139 87.6701 13.1806 87.7944 13.1167C87.9256 13.0537 88.0492 12.9792 88.1633 12.8942L88.375 13.2189C88.0659 13.4465 87.7116 13.6218 87.3299 13.736C86.8999 13.8583 86.4499 13.9173 85.998 13.9103C85.6902 13.9451 85.3775 13.9206 85.0815 13.8386C84.7855 13.7566 84.5133 13.619 84.2836 13.4353C84.0037 13.1305 83.8495 12.751 83.8464 12.3591C83.5198 12.8468 83.0472 13.2461 82.4803 13.5135C81.9023 13.7733 81.2571 13.8956 80.6088 13.8683ZM82.2822 12.6657C82.5495 12.6686 82.813 12.6106 83.0472 12.4974C83.3236 12.3449 83.5571 12.1394 83.7303 11.8961V7.99991C83.5477 8.25891 83.2971 8.47544 82.9994 8.63123C82.6921 8.8056 82.371 8.986 82.05 9.1784C81.7205 9.37619 81.4414 9.63214 81.2303 9.92998C80.9982 10.2969 80.8848 10.7128 80.9025 11.1325C80.8458 11.562 80.9832 11.9939 81.285 12.335C81.415 12.449 81.5713 12.537 81.7434 12.5931C81.9155 12.6491 82.0993 12.6718 82.2822 12.6597V12.6657Z" fill="#B82529"/>
<path d="M97.7389 3.71307C98.2668 3.70352 98.7925 3.77339 99.2914 3.9194C99.655 4.03412 99.9788 4.22395 100.233 4.47158C100.493 4.74672 100.675 5.06848 100.765 5.41216C100.889 5.92506 100.942 6.44837 100.923 6.97162V12.1356C100.872 12.5206 100.987 12.9083 101.247 13.2278C101.562 13.4487 101.967 13.5556 102.375 13.5252V13.9257L101.081 13.8711L99.3777 13.8346C98.8027 13.8346 98.2348 13.8346 97.6813 13.8346L96.4163 13.8771V13.4766C96.5907 13.4917 96.7669 13.4739 96.9322 13.4246C97.0975 13.3753 97.2478 13.2956 97.3723 13.1914C97.5929 12.8592 97.6906 12.4787 97.6526 12.0992V6.12819C97.6615 5.84623 97.6252 5.56455 97.5448 5.29079C97.4858 5.07279 97.3446 4.87684 97.1423 4.7325C96.8802 4.58278 96.5669 4.51028 96.251 4.52621C95.947 4.51937 95.6451 4.57035 95.3676 4.67539C95.0901 4.78043 94.8442 4.93684 94.6481 5.13302C94.2017 5.57536 93.966 6.142 93.9868 6.72285V12.0567C93.9407 12.4386 94.0388 12.823 94.2671 13.155C94.3888 13.2593 94.5363 13.3396 94.6991 13.39C94.862 13.4404 95.036 13.4596 95.2087 13.4463V13.8468L94.0155 13.7982C93.4908 13.7982 92.9446 13.7618 92.3911 13.7618C91.8376 13.7618 91.2195 13.7618 90.6157 13.7618L89.25 13.8043V13.4038C89.4511 13.4219 89.6545 13.406 89.8482 13.357C90.042 13.308 90.2222 13.227 90.3785 13.1186C90.645 12.8014 90.7651 12.413 90.7163 12.0263L90.7523 5.95826C90.7867 5.51649 90.6826 5.07487 90.4504 4.67791C90.3177 4.53031 90.1421 4.41417 89.9406 4.3408C89.7391 4.26744 89.5185 4.23934 89.3003 4.25921V3.85873C89.7819 3.89514 90.2491 3.9194 90.7379 3.9194C91.3329 3.92479 91.9279 3.90455 92.5205 3.85873C93.0377 3.82273 93.5516 3.75786 94.0587 3.66455V5.39394C94.3809 4.80013 94.9303 4.31499 95.6184 4.01647C96.2903 3.78524 97.0142 3.68166 97.7389 3.71307Z" fill="#B82529"/>
<path d="M108.341 0.732422V3.84176H110.964V4.21992H108.348L108.306 11.8912C108.271 12.1751 108.356 12.4602 108.544 12.6956C108.634 12.7765 108.743 12.8398 108.864 12.8813C108.985 12.9227 109.115 12.9413 109.246 12.9357C109.537 12.9279 109.817 12.8395 110.045 12.6836C110.364 12.4488 110.606 12.1467 110.746 11.8072L111.125 11.9753C110.909 12.5153 110.535 12.9989 110.038 13.3799C109.487 13.7669 108.785 13.96 108.075 13.9201C107.639 13.9255 107.205 13.8687 106.791 13.752C106.44 13.6543 106.121 13.4878 105.859 13.2658C105.533 12.9796 105.312 12.619 105.22 12.2274C105.111 11.6985 105.061 11.1617 105.073 10.6247L105.115 4.20791H103.25V3.81175H105.115V1.30868C105.692 1.31409 106.268 1.26779 106.833 1.1706C107.358 1.08903 107.866 0.941375 108.341 0.732422Z" fill="#B82529"/>
<path d="M114.953 13.8735C114.537 13.9036 114.119 13.8583 113.727 13.7408C113.336 13.6234 112.981 13.4366 112.688 13.1941C112.224 12.7418 111.98 12.1663 112.003 11.5768C111.977 11.1055 112.138 10.64 112.46 10.2482C112.774 9.89935 113.18 9.61184 113.647 9.40643C114.133 9.184 114.644 9.00077 115.174 8.85933C115.71 8.71503 116.226 8.57072 116.723 8.42643C117.148 8.31099 117.548 8.14265 117.91 7.9274C118.054 7.84709 118.171 7.73939 118.252 7.61365C118.333 7.48791 118.375 7.34797 118.375 7.20596V5.72694C118.379 5.4232 118.314 5.12147 118.183 4.83714C118.06 4.59167 117.849 4.38212 117.578 4.23591C117.255 4.08609 116.887 4.01316 116.516 4.02546C116.2 4.02429 115.884 4.05867 115.58 4.12766C115.3 4.18739 115.045 4.30792 114.842 4.47638C115.246 4.58821 115.599 4.79797 115.852 5.0776C116.087 5.33229 116.211 5.64305 116.206 5.96142C116.217 6.15584 116.172 6.34958 116.076 6.52779C115.98 6.70599 115.836 6.86392 115.653 6.98949C115.291 7.2389 114.829 7.37151 114.355 7.36225C114.117 7.37554 113.878 7.34335 113.658 7.2682C113.438 7.19305 113.242 7.07703 113.087 6.92938C112.797 6.63514 112.645 6.26641 112.659 5.88928C112.648 5.56375 112.77 5.24448 113.006 4.98142C113.274 4.71176 113.596 4.48016 113.957 4.29602C114.453 4.07913 114.984 3.9212 115.535 3.82705C116.19 3.7153 116.858 3.66091 117.527 3.66474C118.18 3.66236 118.832 3.727 119.466 3.85714C120.025 3.95932 120.536 4.18864 120.941 4.51847C121.3 4.81205 121.542 5.18716 121.634 5.59465C121.756 6.12376 121.808 6.66189 121.789 7.19994V12.3765C121.773 12.5948 121.811 12.8135 121.9 13.0198C121.936 13.0801 121.993 13.1305 122.064 13.1647C122.134 13.1989 122.216 13.2154 122.298 13.2122C122.453 13.2123 122.605 13.1813 122.741 13.122C122.883 13.0569 123.016 12.9804 123.139 12.8935L123.375 13.2182C123.039 13.447 122.654 13.6223 122.239 13.7353C121.776 13.8609 121.289 13.9199 120.801 13.9096C120.469 13.9451 120.132 13.9216 119.812 13.8406C119.493 13.7596 119.199 13.6232 118.95 13.4407C118.654 13.1331 118.488 12.7554 118.478 12.3644C118.121 12.8493 117.612 13.2478 117.003 13.5188C116.368 13.7773 115.662 13.8994 114.953 13.8735ZM116.752 12.6711C117.043 12.6731 117.33 12.6152 117.586 12.5027C117.882 12.3481 118.133 12.143 118.323 11.9015V7.99955C118.124 8.25886 117.854 8.47701 117.534 8.63684C117.202 8.80518 116.855 8.98557 116.509 9.18398C116.156 9.37984 115.857 9.63378 115.631 9.92949C115.378 10.2958 115.253 10.7117 115.27 11.1319C115.212 11.5611 115.36 11.9918 115.683 12.3344C115.822 12.4476 115.99 12.5351 116.174 12.5911C116.359 12.6471 116.556 12.6703 116.752 12.659V12.6711Z" fill="#B82529"/>
<path d="M128.325 3.66824C128.9 3.66153 129.472 3.73007 130.021 3.87124C130.39 3.95874 130.741 4.09157 131.061 4.26526C131.585 4.55183 131.905 4.36675 132.036 3.66824H132.517C132.517 4.02048 132.458 4.45032 132.444 4.95778C132.429 5.46525 132.444 6.15183 132.444 6.98766H131.956C131.884 6.51507 131.74 6.05177 131.527 5.60855C131.337 5.17744 131.019 4.79178 130.603 4.48615C130.161 4.18797 129.602 4.03292 129.031 4.05034C128.623 4.03752 128.222 4.14559 127.903 4.35483C127.746 4.46409 127.622 4.60191 127.541 4.75737C127.46 4.91283 127.425 5.08165 127.437 5.25035C127.424 5.61013 127.568 5.96191 127.845 6.24138C128.149 6.55489 128.507 6.83042 128.907 7.05929L130.275 7.88916C130.976 8.30712 131.624 8.78109 132.211 9.30408C132.752 9.81352 133.033 10.474 132.997 11.1489C133.001 11.6847 132.786 12.2062 132.386 12.6295C131.971 13.0578 131.426 13.3893 130.807 13.5907C130.114 13.8217 129.371 13.9355 128.623 13.925C128.207 13.9286 127.791 13.8885 127.386 13.8056C127.064 13.7389 126.751 13.6428 126.455 13.519L125.895 13.2981L125.4 13.119C125.325 13.101 125.245 13.1042 125.172 13.128C125.099 13.1518 125.039 13.1949 125 13.2504C124.867 13.4084 124.775 13.5872 124.73 13.7757H124.25C124.25 13.3757 124.308 12.8802 124.323 12.3011C124.337 11.722 124.323 10.9578 124.359 9.99661H124.847C124.919 10.6084 125.085 11.2101 125.342 11.7877C125.541 12.259 125.881 12.6819 126.331 13.0175C126.78 13.3233 127.349 13.4846 127.932 13.4713C128.333 13.4727 128.723 13.3634 129.038 13.1608C129.219 13.0368 129.361 12.8786 129.451 12.6997C129.541 12.5208 129.577 12.3266 129.555 12.1339C129.565 11.8797 129.512 11.6265 129.399 11.3895C129.287 11.1525 129.117 10.9366 128.9 10.7548C128.38 10.3268 127.826 9.92785 127.241 9.5608C126.753 9.23244 126.288 8.91005 125.851 8.58766C125.435 8.27813 125.077 7.92008 124.788 7.52499C124.51 7.12547 124.37 6.67153 124.381 6.21154C124.365 5.69574 124.563 5.19075 124.941 4.77869C125.319 4.38226 125.823 4.07869 126.397 3.90109C127.016 3.72492 127.67 3.64593 128.325 3.66824Z" fill="#B82529"/>
</svg>
