<svg width="274" height="318" viewBox="0 0 274 318" fill="none" xmlns="http://www.w3.org/2000/svg">
<rect width="274" height="318" fill="#E4E1D9"/>
<path d="M67.2612 166.921C67.1266 168.272 67.0274 169.573 66.9778 170.831C66.9282 172.089 66.907 173.056 66.907 173.731C66.907 174.584 66.9282 175.381 66.9636 176.127C66.9991 176.873 67.0416 177.527 67.077 178.096H65.8584C65.6034 175.615 65.2633 173.653 64.8382 172.217C64.4132 170.781 63.6622 169.743 62.5995 169.11C61.5368 168.478 59.8932 168.158 57.6686 168.165L54.8064 168.172L54.8914 198.449C54.8985 199.871 55.0331 200.93 55.2952 201.641C55.5644 202.352 56.0816 202.828 56.8609 203.07C57.6402 203.319 58.7738 203.475 60.2545 203.539V204.605C59.3335 204.534 58.1645 204.499 56.7547 204.485C55.3377 204.47 53.9066 204.463 52.4614 204.47C50.8673 204.477 49.3795 204.485 47.9839 204.506C46.5882 204.527 45.4617 204.577 44.6187 204.648V203.582C46.1064 203.511 47.2329 203.347 48.0122 203.091C48.7915 202.842 49.3087 202.359 49.5708 201.648C49.833 200.937 49.9605 199.871 49.9605 198.456L49.8755 168.179L47.0133 168.186C44.8241 168.193 43.1876 168.513 42.1107 169.16C41.0338 169.8 40.2829 170.838 39.8649 172.281C39.4469 173.717 39.1139 175.679 38.873 178.16H37.6545C37.7253 177.591 37.7678 176.937 37.782 176.191C37.7961 175.445 37.8032 174.648 37.8032 173.795C37.8032 173.12 37.7749 172.153 37.7182 170.895C37.6615 169.637 37.5624 168.336 37.4136 166.985C38.9014 167.013 40.5167 167.049 42.2666 167.077C44.0165 167.106 45.7735 167.12 47.5446 167.12C49.3087 167.113 50.9169 167.113 52.3693 167.106C53.8216 167.099 55.4157 167.099 57.1656 167.092C58.9155 167.084 60.6725 167.063 62.4436 167.02C64.2006 166.999 65.8088 166.956 67.2612 166.921Z" fill="#B82227"/>
<path d="M78.4406 204.932C76.1452 204.939 74.4732 204.364 73.4247 203.219C72.3762 202.067 71.8519 200.539 71.8448 198.62C71.8377 197.127 72.1991 195.897 72.9217 194.916C73.6443 193.935 74.5724 193.139 75.6989 192.513C76.8253 191.887 78.0226 191.354 79.2766 190.906C80.5306 190.458 81.7208 190.025 82.8544 189.591C83.9808 189.165 84.9089 188.681 85.6316 188.148C86.3542 187.615 86.7155 186.94 86.7155 186.122L86.7084 182.823C86.7013 181.331 86.4817 180.2 86.0354 179.418C85.589 178.636 85.001 178.117 84.2571 177.854C83.5132 177.591 82.6843 177.456 81.7633 177.463C80.8778 177.463 79.9355 177.591 78.9295 177.84C77.9235 178.089 77.1229 178.608 76.5207 179.39C77.1937 179.532 77.7747 179.88 78.2706 180.449C78.7665 181.018 79.0145 181.743 79.0216 182.632C79.0216 183.52 78.7453 184.224 78.1785 184.736C77.6117 185.255 76.8891 185.511 76.0035 185.511C74.9762 185.511 74.2253 185.191 73.7506 184.53C73.2688 183.876 73.028 183.143 73.028 182.326C73.028 181.402 73.2547 180.655 73.7081 180.087C74.1686 179.518 74.7495 178.985 75.4509 178.487C76.2586 177.918 77.3142 177.428 78.6036 177.015C79.893 176.603 81.3524 176.397 82.9748 176.39C84.4272 176.383 85.6599 176.553 86.6872 176.887C87.7144 177.222 88.5646 177.705 89.2376 178.345C90.1586 179.191 90.7608 180.229 91.0513 181.451C91.3347 182.674 91.4835 184.139 91.4906 185.838L91.5331 200.631C91.5331 201.484 91.6606 202.11 91.9086 202.522C92.1565 202.928 92.5816 203.134 93.1838 203.134C93.6797 203.134 94.1119 203.027 94.4803 202.814C94.8487 202.601 95.21 202.33 95.5642 202.01L96.1523 202.913C95.4155 203.482 94.707 203.951 94.0339 204.328C93.3609 204.705 92.4612 204.89 91.3276 204.897C89.4856 204.904 88.267 204.428 87.6648 203.468C87.0627 202.515 86.758 201.413 86.758 200.169C85.6316 202.053 84.3563 203.311 82.9252 203.958C81.4941 204.605 79.9993 204.925 78.4406 204.932ZM80.7715 202.8C81.8342 202.8 82.8756 202.487 83.8958 201.861C84.9231 201.236 85.8724 200.198 86.7509 198.74L86.7226 188.312C86.1912 189.094 85.3765 189.719 84.2642 190.181C83.1519 190.643 82.0042 191.155 80.8211 191.71C79.6379 192.264 78.6248 193.011 77.7818 193.956C76.9387 194.902 76.5136 196.238 76.5207 197.98C76.5278 199.615 76.9316 200.823 77.7534 201.62C78.5611 202.401 79.5671 202.8 80.7715 202.8Z" fill="#B82227"/>
<path d="M115.061 176.312C116.017 176.312 116.853 176.503 117.583 176.887C118.305 177.278 118.872 177.783 119.283 178.402C119.694 179.02 119.899 179.724 119.899 180.506C119.899 181.394 119.63 182.176 119.085 182.852C118.539 183.527 117.802 183.868 116.889 183.868C116.145 183.868 115.493 183.634 114.926 183.157C114.359 182.681 114.076 181.999 114.069 181.11C114.069 180.435 114.253 179.859 114.621 179.375C114.99 178.899 115.408 178.515 115.861 178.231C115.613 177.875 115.238 177.698 114.749 177.705C113.261 177.712 111.972 178.274 110.881 179.39C109.79 180.513 108.932 181.849 108.323 183.413C107.707 184.977 107.402 186.413 107.409 187.728L107.438 199.01C107.445 200.752 107.948 201.911 108.961 202.494C109.974 203.077 111.341 203.368 113.07 203.361V204.477C112.255 204.442 111.107 204.399 109.62 204.356C108.132 204.307 106.559 204.285 104.901 204.292C103.697 204.292 102.507 204.328 101.324 204.385C100.14 204.442 99.2477 204.491 98.6455 204.527V203.411C100.091 203.411 101.125 203.141 101.749 202.607C102.372 202.074 102.67 201.065 102.67 199.572L102.627 182.916C102.62 181.316 102.337 180.143 101.77 179.383C101.203 178.622 100.14 178.245 98.5889 178.245V177.129C99.7224 177.236 100.813 177.285 101.876 177.278C102.903 177.278 103.881 177.214 104.816 177.086C105.751 176.958 106.609 176.774 107.388 176.518L107.409 183.172C107.792 182.141 108.352 181.103 109.074 180.051C109.797 179.006 110.668 178.124 111.695 177.413C112.694 176.674 113.821 176.312 115.061 176.312Z" fill="#B82227"/>
<path d="M131.583 168.179L131.604 177.065L139.454 177.044V178.11L131.604 178.131L131.661 198.726C131.668 200.396 131.965 201.562 132.574 202.238C133.177 202.913 134.013 203.247 135.068 203.24C136.131 203.24 137.045 202.799 137.824 201.932C138.596 201.065 139.269 199.593 139.829 197.539L140.892 197.802C140.545 199.863 139.85 201.598 138.809 203.02C137.768 204.441 136.173 205.152 134.02 205.159C132.815 205.159 131.824 205.01 131.051 204.719C130.272 204.42 129.585 203.986 128.983 203.418C128.203 202.607 127.658 201.633 127.36 200.496C127.056 199.366 126.9 197.851 126.9 195.975L126.85 178.153L121.763 178.167V177.1L126.85 177.086L126.829 168.946C127.714 168.911 128.557 168.833 129.372 168.726C130.166 168.605 130.91 168.428 131.583 168.179Z" fill="#B82227"/>
<path d="M149.924 204.74C147.629 204.747 145.957 204.178 144.908 203.027C143.86 201.875 143.335 200.347 143.328 198.427C143.321 196.934 143.682 195.704 144.405 194.723C145.128 193.742 146.056 192.946 147.182 192.321C148.309 191.695 149.506 191.162 150.76 190.714C152.014 190.266 153.204 189.825 154.338 189.399C155.464 188.972 156.392 188.489 157.115 187.956C157.838 187.423 158.199 186.747 158.199 185.93L158.192 182.631C158.185 181.138 157.965 180.008 157.519 179.226C157.072 178.444 156.484 177.925 155.741 177.662C154.997 177.399 154.168 177.264 153.247 177.271C152.361 177.271 151.419 177.399 150.413 177.648C149.407 177.897 148.606 178.415 148.004 179.197C148.677 179.34 149.258 179.688 149.754 180.257C150.25 180.825 150.498 181.551 150.505 182.439C150.505 183.328 150.229 184.032 149.662 184.543C149.095 185.062 148.372 185.318 147.487 185.318C146.46 185.318 145.709 184.998 145.234 184.337C144.752 183.683 144.511 182.951 144.511 182.133C144.511 181.209 144.738 180.463 145.191 179.894C145.652 179.325 146.233 178.792 146.934 178.295C147.742 177.726 148.798 177.235 150.087 176.823C151.376 176.411 152.836 176.205 154.458 176.197C155.911 176.19 157.143 176.361 158.171 176.695C159.198 177.029 160.048 177.513 160.721 178.152C161.642 178.998 162.244 180.036 162.535 181.259C162.818 182.482 162.967 183.946 162.974 185.645L163.016 200.439C163.016 201.292 163.144 201.918 163.392 202.33C163.64 202.735 164.065 202.941 164.667 202.941C165.163 202.941 165.595 202.835 165.964 202.621C166.332 202.408 166.693 202.138 167.048 201.818L167.636 202.721C166.899 203.29 166.19 203.759 165.517 204.136C164.844 204.512 163.945 204.697 162.811 204.704C160.969 204.711 159.75 204.235 159.148 203.275C158.546 202.323 158.241 201.221 158.241 199.977C157.115 201.861 155.84 203.126 154.409 203.766C152.97 204.406 151.476 204.733 149.924 204.74ZM152.248 202.6C153.31 202.6 154.352 202.287 155.372 201.662C156.399 201.036 157.349 199.998 158.227 198.541L158.199 188.112C157.668 188.894 156.853 189.52 155.741 189.982C154.628 190.444 153.481 190.956 152.297 191.51C151.114 192.065 150.101 192.811 149.258 193.757C148.415 194.702 147.99 196.039 147.997 197.78C148.004 199.415 148.408 200.624 149.23 201.42C150.037 202.209 151.05 202.607 152.248 202.6Z" fill="#B82227"/>
<path d="M76.301 217.515V218.581C75.6279 218.652 75.0116 218.958 74.4448 219.491C73.878 220.024 73.3538 220.97 72.8649 222.313L64.2287 245.218H63.329L53.5097 221.673C52.8366 220.294 52.1707 219.448 51.5118 219.15C50.86 218.851 50.3216 218.702 49.8965 218.702V217.586C50.6758 217.692 51.4905 217.771 52.3336 217.82C53.1838 217.87 54.1048 217.899 55.0895 217.891C56.1877 217.891 57.3424 217.849 58.561 217.778C59.7796 217.707 60.9202 217.628 61.9829 217.557V218.673C61.0973 218.673 60.3109 218.737 59.6237 218.865C58.9365 218.993 58.5043 219.363 58.3272 219.989C58.1501 220.607 58.3626 221.666 58.9719 223.152L65.5394 239.36L65.2206 239.467L71.2213 223.593C71.8872 221.816 71.9581 220.579 71.4196 219.868C70.8883 219.157 69.6839 218.737 67.8136 218.602V217.536C68.7346 217.572 69.4997 217.6 70.1231 217.636C70.7395 217.671 71.4551 217.685 72.2698 217.685C73.0845 217.685 73.8143 217.664 74.4731 217.628C75.1249 217.586 75.7342 217.55 76.301 217.515ZM64.2358 245.218L62.4434 249.846C61.7774 251.588 61.0194 252.832 60.1692 253.578C59.6025 254.111 58.9365 254.474 58.1572 254.673C57.3779 254.872 56.6765 254.972 56.0389 254.972C55.3658 254.972 54.7565 254.851 54.211 254.602C53.6584 254.353 53.2263 253.991 52.9075 253.514C52.5887 253.038 52.4257 252.462 52.4257 251.787C52.4257 250.934 52.6666 250.251 53.1625 249.739C53.6584 249.221 54.3456 248.965 55.2312 248.965C55.9751 248.965 56.6127 249.171 57.1441 249.597C57.6754 250.024 57.9446 250.642 57.9446 251.46C57.9446 252.064 57.8029 252.562 57.5266 252.953C57.2433 253.344 56.9103 253.649 56.5206 253.863C56.5915 253.898 56.6552 253.912 56.7048 253.912C56.7615 253.912 56.804 253.912 56.8394 253.912C57.7959 253.912 58.6389 253.578 59.3828 252.924C60.1196 252.263 60.7714 251.211 61.3382 249.754L63.2369 244.799L64.2358 245.218Z" fill="#B82227"/>
<path d="M87.7849 208.65L87.8062 217.537L95.6559 217.515V218.582L87.8062 218.603L87.8628 239.198C87.8699 240.868 88.1675 242.034 88.7768 242.709C89.3789 243.385 90.2149 243.719 91.2705 243.712C92.3262 243.705 93.2472 243.271 94.0265 242.404C94.7987 241.536 95.4717 240.065 96.0314 238.01L97.0941 238.273C96.747 240.335 96.0527 242.07 95.0112 243.491C93.9698 244.913 92.3758 245.624 90.2149 245.631C89.0105 245.631 88.0258 245.482 87.2465 245.19C86.4672 244.892 85.7799 244.458 85.1777 243.889C84.3984 243.079 83.8529 242.105 83.5554 240.968C83.2507 239.837 83.0949 238.33 83.0949 236.446L83.0453 218.624L77.9585 218.638V217.572L83.0453 217.558L83.024 209.418C83.9096 209.383 84.7527 209.304 85.5674 209.198C86.3751 209.077 87.1119 208.899 87.7849 208.65Z" fill="#B82227"/>
<path d="M106.127 245.205C103.832 245.212 102.16 244.643 101.111 243.491C100.063 242.34 99.5387 240.811 99.5316 238.892C99.5245 237.399 99.8858 236.169 100.608 235.188C101.331 234.207 102.259 233.411 103.386 232.785C104.512 232.16 105.709 231.626 106.963 231.179C108.217 230.731 109.408 230.29 110.541 229.863C111.668 229.437 112.596 228.953 113.318 228.42C114.041 227.887 114.402 227.212 114.402 226.394L114.395 223.096C114.388 221.603 114.168 220.472 113.722 219.691C113.276 218.909 112.688 218.39 111.944 218.127C111.2 217.864 110.371 217.736 109.45 217.736C108.565 217.736 107.622 217.864 106.616 218.112C105.61 218.361 104.81 218.88 104.207 219.662C104.88 219.804 105.461 220.153 105.957 220.721C106.453 221.29 106.701 222.015 106.708 222.904C106.708 223.792 106.432 224.496 105.865 225.008C105.298 225.527 104.576 225.783 103.69 225.783C102.663 225.783 101.912 225.463 101.437 224.802C100.956 224.148 100.715 223.408 100.715 222.598C100.715 221.674 100.941 220.927 101.395 220.359C101.855 219.79 102.436 219.257 103.138 218.759C103.945 218.191 105.001 217.7 106.29 217.288C107.58 216.875 109.039 216.669 110.662 216.662C112.114 216.662 113.347 216.826 114.374 217.16C115.401 217.494 116.251 217.977 116.924 218.617C117.845 219.463 118.448 220.501 118.738 221.724C119.021 222.946 119.17 224.411 119.177 226.11L119.22 240.904C119.22 241.757 119.347 242.382 119.595 242.795C119.843 243.2 120.268 243.406 120.871 243.406C121.366 243.406 121.799 243.299 122.167 243.079C122.535 242.866 122.897 242.603 123.251 242.276L123.839 243.178C123.095 243.747 122.394 244.216 121.721 244.593C121.048 244.97 120.148 245.155 119.014 245.162C117.172 245.169 115.954 244.693 115.352 243.733C114.749 242.78 114.445 241.678 114.438 240.434C113.311 242.318 112.036 243.577 110.605 244.223C109.174 244.877 107.679 245.205 106.127 245.205ZM108.451 243.072C109.514 243.072 110.555 242.759 111.575 242.133C112.603 241.508 113.552 240.47 114.431 239.013L114.402 228.584C113.871 229.366 113.056 229.991 111.944 230.453C110.832 230.916 109.684 231.427 108.501 231.982C107.318 232.536 106.305 233.283 105.461 234.228C104.618 235.174 104.193 236.51 104.2 238.252C104.207 239.887 104.611 241.096 105.433 241.892C106.241 242.681 107.254 243.079 108.451 243.072Z" fill="#B82227"/>
<path d="M144.065 216.584C145.411 216.584 146.53 216.755 147.43 217.11C148.33 217.466 149.088 217.956 149.69 218.596C150.363 219.307 150.845 220.188 151.128 221.255C151.412 222.321 151.56 223.757 151.567 225.563L151.603 239.766C151.61 241.259 151.922 242.269 152.538 242.795C153.154 243.321 154.189 243.591 155.641 243.584V244.7C155.039 244.664 154.118 244.622 152.885 244.572C151.645 244.522 150.448 244.501 149.279 244.501C148.11 244.501 146.97 244.536 145.857 244.586C144.745 244.643 143.902 244.693 143.342 244.728V243.612C144.617 243.612 145.517 243.342 146.041 242.809C146.573 242.276 146.835 241.266 146.828 239.773L146.785 224.397C146.785 223.295 146.693 222.285 146.509 221.361C146.332 220.437 145.928 219.698 145.312 219.129C144.688 218.567 143.746 218.283 142.471 218.283C140.246 218.29 138.454 219.229 137.094 221.091C135.733 222.954 135.06 225.257 135.067 227.987L135.096 239.802C135.103 241.295 135.365 242.304 135.896 242.83C136.428 243.363 137.327 243.626 138.603 243.619V244.735C138.036 244.7 137.2 244.657 136.088 244.607C134.975 244.558 133.835 244.536 132.666 244.536C131.497 244.536 130.299 244.572 129.06 244.629C127.82 244.686 126.906 244.735 126.304 244.771V243.655C127.749 243.648 128.783 243.385 129.407 242.852C130.023 242.318 130.328 241.309 130.328 239.816L130.285 223.16C130.278 221.56 129.995 220.387 129.428 219.627C128.861 218.866 127.798 218.489 126.247 218.489V217.373C127.38 217.48 128.472 217.529 129.534 217.522C130.561 217.522 131.539 217.458 132.474 217.33C133.41 217.202 134.267 217.018 135.046 216.762L135.06 223.039C135.974 220.622 137.249 218.944 138.893 217.999C140.544 217.067 142.265 216.591 144.065 216.584Z" fill="#B82227"/>
<path d="M167.325 208.43L167.346 217.316L175.196 217.295V218.361L167.346 218.382L167.403 238.977C167.41 240.647 167.707 241.813 168.317 242.489C168.919 243.164 169.755 243.498 170.81 243.491C171.873 243.491 172.787 243.05 173.566 242.183C174.339 241.316 175.012 239.844 175.571 237.79L176.634 238.053C176.287 240.114 175.592 241.849 174.551 243.271C173.51 244.692 171.916 245.403 169.755 245.41C168.55 245.41 167.566 245.261 166.786 244.97C166.007 244.671 165.32 244.237 164.718 243.669C163.938 242.858 163.393 241.884 163.095 240.747C162.791 239.617 162.635 238.11 162.635 236.226L162.585 218.404L157.498 218.418V217.351L162.585 217.337L162.564 209.197C163.449 209.162 164.292 209.084 165.107 208.977C165.908 208.863 166.652 208.686 167.325 208.43Z" fill="#B82227"/>
<path d="M185.666 244.991C183.371 244.998 181.699 244.429 180.65 243.278C179.602 242.126 179.077 240.598 179.07 238.678C179.063 237.185 179.425 235.955 180.147 234.974C180.87 233.993 181.798 233.197 182.924 232.572C184.051 231.946 185.248 231.413 186.502 230.965C187.756 230.517 188.946 230.076 190.08 229.65C191.206 229.223 192.135 228.74 192.857 228.207C193.58 227.673 193.941 226.998 193.941 226.181L193.934 222.882C193.927 221.389 193.707 220.259 193.261 219.477C192.815 218.695 192.227 218.176 191.483 217.913C190.739 217.65 189.91 217.515 188.989 217.522C188.103 217.522 187.161 217.65 186.155 217.899C185.149 218.147 184.348 218.666 183.746 219.448C184.419 219.591 185 219.939 185.496 220.508C185.992 221.076 186.24 221.801 186.247 222.69C186.247 223.579 185.971 224.283 185.404 224.794C184.837 225.313 184.115 225.569 183.229 225.569C182.202 225.569 181.451 225.249 180.976 224.588C180.494 223.934 180.254 223.202 180.254 222.384C180.254 221.46 180.48 220.714 180.934 220.145C181.394 219.576 181.975 219.043 182.676 218.546C183.484 217.977 184.54 217.486 185.829 217.074C187.119 216.662 188.578 216.456 190.2 216.448C191.653 216.441 192.885 216.612 193.913 216.946C194.94 217.28 195.79 217.764 196.463 218.403C197.384 219.249 197.986 220.287 198.277 221.51C198.56 222.733 198.709 224.197 198.716 225.896L198.759 240.69C198.759 241.543 198.886 242.169 199.134 242.581C199.382 242.986 199.807 243.192 200.409 243.192C200.905 243.192 201.337 243.086 201.706 242.872C202.074 242.659 202.436 242.389 202.79 242.069L203.378 242.972C202.634 243.541 201.933 244.01 201.26 244.387C200.586 244.763 199.687 244.948 198.553 244.955C196.711 244.962 195.493 244.486 194.89 243.526C194.288 242.574 193.984 241.472 193.977 240.228C192.85 242.112 191.575 243.37 190.144 244.017C188.713 244.664 187.218 244.984 185.666 244.991ZM187.99 242.858C189.053 242.858 190.094 242.545 191.114 241.92C192.142 241.294 193.091 240.256 193.969 238.799L193.941 228.37C193.41 229.152 192.595 229.778 191.483 230.24C190.37 230.702 189.223 231.214 188.04 231.768C186.856 232.323 185.843 233.069 185 234.015C184.157 234.96 183.732 236.297 183.739 238.038C183.746 239.673 184.15 240.882 184.972 241.678C185.78 242.46 186.793 242.858 187.99 242.858Z" fill="#B82227"/>
<path d="M215.28 216.392C216.697 216.385 217.894 216.612 218.886 217.074C219.878 217.536 220.601 217.956 221.061 218.347C222.23 219.299 222.939 218.66 223.18 216.427H224.398C224.327 217.423 224.278 218.603 224.249 219.968C224.221 221.332 224.207 223.167 224.214 225.477H222.995C222.783 224.162 222.414 222.889 221.897 221.652C221.38 220.415 220.629 219.392 219.637 218.603C218.645 217.806 217.356 217.408 215.762 217.415C214.522 217.415 213.488 217.771 212.659 218.46C211.83 219.157 211.419 220.174 211.419 221.524C211.419 222.591 211.745 223.501 212.383 224.261C213.02 225.022 213.856 225.733 214.883 226.38C215.911 227.034 217.023 227.752 218.227 228.527C220.247 229.835 221.961 231.157 223.378 232.501C224.795 233.844 225.51 235.614 225.51 237.818C225.518 239.453 225.092 240.818 224.249 241.92C223.406 243.022 222.301 243.861 220.941 244.429C219.581 244.998 218.086 245.29 216.463 245.29C215.684 245.29 214.954 245.233 214.26 245.112C213.573 244.991 212.907 244.806 212.269 244.557C211.915 244.38 211.554 244.166 211.178 243.925C210.81 243.676 210.441 243.413 210.087 243.128C209.733 242.844 209.414 242.858 209.131 243.157C208.847 243.463 208.635 244.053 208.5 244.941H207.282C207.345 243.804 207.402 242.425 207.43 240.79C207.459 239.162 207.473 236.993 207.466 234.299H208.684C208.939 236.283 209.294 238.024 209.761 239.51C210.222 240.996 210.951 242.162 211.943 242.986C212.935 243.818 214.317 244.23 216.081 244.223C217.143 244.223 218.192 243.847 219.233 243.1C220.275 242.354 220.792 241.038 220.785 239.162C220.778 237.598 220.211 236.325 219.078 235.337C217.944 234.349 216.506 233.304 214.777 232.209C213.502 231.399 212.305 230.581 211.192 229.771C210.08 228.96 209.173 228.036 208.479 227.013C207.785 225.989 207.437 224.745 207.437 223.287C207.43 221.695 207.792 220.387 208.514 219.378C209.237 218.368 210.2 217.614 211.398 217.138C212.616 216.633 213.906 216.392 215.28 216.392Z" fill="#B82227"/>
<path d="M250.071 25.0002L24 25.6162L24.6622 270.325L250.733 269.709L250.071 25.0002Z" stroke="#B82227" stroke-width="4" stroke-miterlimit="10"/>
<path d="M100.785 294.488C100.785 293.75 100.889 293.092 101.096 292.514C101.307 291.936 101.602 291.445 101.98 291.043C102.758 290.223 103.785 289.812 105.062 289.812C106.41 289.812 107.441 290.223 108.156 291.043C108.863 291.852 109.217 293 109.217 294.488C109.217 295.938 108.818 297.076 108.021 297.904C107.244 298.713 106.215 299.117 104.934 299.117C103.648 299.117 102.637 298.713 101.898 297.904C101.156 297.088 100.785 295.949 100.785 294.488ZM101.828 294.5C101.824 295.105 101.895 295.643 102.039 296.111C102.184 296.576 102.395 296.965 102.672 297.277C103.23 297.906 104.012 298.213 105.016 298.197C106.004 298.189 106.777 297.867 107.336 297.23C107.914 296.57 108.195 295.635 108.18 294.424C108.148 291.963 107.066 290.732 104.934 290.732C103.961 290.732 103.203 291.061 102.66 291.717C102.113 292.377 101.836 293.305 101.828 294.5ZM112.962 289.889H115.218C116.28 289.889 117.066 290.047 117.573 290.363C118.163 290.73 118.47 291.344 118.493 292.203C118.505 292.996 118.238 293.582 117.691 293.961C117.523 294.078 117.341 294.168 117.146 294.23C117.646 294.25 118.077 294.43 118.441 294.77C118.87 295.176 119.073 295.729 119.05 296.428C119.027 297.338 118.726 298 118.148 298.414C117.57 298.82 116.675 299.016 115.464 299H112.962V289.889ZM115.488 293.949C116.831 293.984 117.482 293.402 117.439 292.203C117.427 291.422 117.003 290.961 116.167 290.82C115.89 290.777 115.573 290.756 115.218 290.756H113.964V293.949H115.488ZM115.464 298.121C116.273 298.137 116.878 298.035 117.28 297.816C117.741 297.562 117.98 297.139 117.995 296.545C118.015 295.752 117.753 295.238 117.21 295.004C116.913 294.879 116.585 294.812 116.226 294.805C115.87 294.793 115.577 294.787 115.347 294.787H113.964V298.121H115.464ZM125.789 295.631C125.668 295.646 125.487 295.654 125.245 295.654H123.914V299H122.901V289.895H125.379C127.184 289.871 128.262 290.441 128.614 291.605C128.723 291.969 128.776 292.371 128.772 292.812C128.741 293.516 128.571 294.088 128.262 294.529C127.954 294.971 127.483 295.285 126.85 295.473L127.096 295.871C127.217 296.059 127.36 296.27 127.524 296.504L129.041 298.484L127.998 299.117C127.799 298.758 127.584 298.396 127.354 298.033L126.229 296.281C126.092 296.066 125.946 295.85 125.789 295.631ZM125.245 294.764C126.463 294.775 127.229 294.422 127.541 293.703C127.651 293.453 127.709 293.16 127.717 292.824C127.729 292.484 127.694 292.189 127.612 291.939C127.534 291.689 127.401 291.48 127.213 291.312C126.834 290.961 126.223 290.789 125.379 290.797H123.914V294.764H125.245ZM135.265 289.895H136.566L140.158 299H138.998L138.054 296.475H133.771L132.839 299H131.673L135.265 289.895ZM137.714 295.637L136.783 293.188C136.65 292.832 136.539 292.523 136.449 292.262L136.191 291.477C136.109 291.215 136.017 290.938 135.916 290.645C135.826 290.902 135.74 291.162 135.658 291.424C135.658 291.424 135.568 291.701 135.388 292.256C135.388 292.256 134.964 293.383 134.117 295.637H137.714ZM143.516 299V289.895H146.341C148.579 289.895 149.93 290.783 150.395 292.561C150.54 293.123 150.612 293.754 150.612 294.453V294.693C150.612 296.064 150.239 297.123 149.493 297.869C148.739 298.623 147.673 299 146.294 299H143.516ZM144.53 298.08H146.294C147.352 298.08 148.167 297.77 148.737 297.148C149.288 296.551 149.563 295.732 149.563 294.693V294.453C149.54 293.207 149.282 292.297 148.79 291.723C148.274 291.121 147.45 290.82 146.317 290.82H144.53V298.08ZM153.848 294.488C153.848 293.75 153.951 293.092 154.158 292.514C154.369 291.936 154.664 291.445 155.043 291.043C155.82 290.223 156.848 289.812 158.125 289.812C159.473 289.812 160.504 290.223 161.219 291.043C161.926 291.852 162.279 293 162.279 294.488C162.279 295.938 161.881 297.076 161.084 297.904C160.307 298.713 159.277 299.117 157.996 299.117C156.711 299.117 155.699 298.713 154.961 297.904C154.219 297.088 153.848 295.949 153.848 294.488ZM154.891 294.5C154.887 295.105 154.957 295.643 155.102 296.111C155.246 296.576 155.457 296.965 155.734 297.277C156.293 297.906 157.074 298.213 158.078 298.197C159.066 298.189 159.84 297.867 160.398 297.23C160.977 296.57 161.258 295.635 161.242 294.424C161.211 291.963 160.129 290.732 157.996 290.732C157.023 290.732 156.266 291.061 155.723 291.717C155.176 292.377 154.898 293.305 154.891 294.5ZM169.048 295.631C168.927 295.646 168.745 295.654 168.503 295.654H167.173V299H166.159V289.895H168.638C170.443 289.871 171.521 290.441 171.872 291.605C171.982 291.969 172.034 292.371 172.03 292.812C171.999 293.516 171.829 294.088 171.521 294.529C171.212 294.971 170.741 295.285 170.109 295.473L170.355 295.871C170.476 296.059 170.618 296.27 170.782 296.504L172.3 298.484L171.257 299.117C171.058 298.758 170.843 298.396 170.613 298.033L169.488 296.281C169.351 296.066 169.204 295.85 169.048 295.631ZM168.503 294.764C169.722 294.775 170.488 294.422 170.8 293.703C170.909 293.453 170.968 293.16 170.976 292.824C170.988 292.484 170.952 292.189 170.87 291.939C170.792 291.689 170.659 291.48 170.472 291.312C170.093 290.961 169.482 290.789 168.638 290.797H167.173V294.764H168.503Z" fill="#B82227"/>
</svg>
