<svg width="68" height="33" viewBox="0 0 68 33" fill="none" xmlns="http://www.w3.org/2000/svg">
<path d="M11.6737 0.0550001C11.6187 0.652498 11.5812 1.235 11.5587 1.79999C11.5363 2.36499 11.5238 2.79749 11.5238 3.09749C11.5213 3.39749 11.5263 3.67499 11.5388 3.93498C11.5512 4.19498 11.5612 4.42249 11.5737 4.61749L11.1265 4.61498C10.9491 3.57499 10.7317 2.75749 10.4743 2.16499C10.217 1.5725 9.87716 1.145 9.45738 0.882497C9.03511 0.619998 8.48041 0.487499 7.79328 0.484999L7.16862 0.482497L7.11615 11.5975C7.11365 12.13 7.16113 12.5275 7.25607 12.7875C7.35102 13.0475 7.54841 13.2225 7.84825 13.3075C8.14559 13.3925 8.58036 13.445 9.15255 13.46L9.15005 13.85C8.76026 13.8225 8.25303 13.8025 7.63087 13.795C7.00621 13.785 6.37155 13.78 5.7219 13.775C5.04477 13.7725 4.41261 13.7725 3.82043 13.775C3.22825 13.78 2.75101 13.7925 2.38871 13.8175L2.39121 13.4275C2.9509 13.4175 3.37817 13.37 3.67801 13.2875C3.97785 13.205 4.17774 13.0325 4.28518 12.7725C4.39012 12.5125 4.44509 12.1175 4.44759 11.5825L4.50007 0.467497L3.85791 0.464999C3.18328 0.462499 2.62858 0.589998 2.19881 0.847497C1.76904 1.105 1.42173 1.52999 1.15937 2.11999C0.897014 2.70999 0.677134 3.52499 0.504727 4.56499L0.0574688 4.56249C0.0849539 4.36749 0.102444 4.13998 0.10994 3.87998C0.117436 3.61999 0.122433 3.33998 0.122433 3.04249C0.124932 2.74249 0.114937 2.31249 0.0999454 1.74499C0.0824548 1.18 0.049973 0.597498 0 0C0.57219 0.015 1.20185 0.0325005 1.88898 0.0475005C2.5786 0.0650004 3.26573 0.0724991 3.95536 0.0774991C4.64249 0.0799991 5.27465 0.0824974 5.84684 0.0874974C6.40653 0.0899974 7.0287 0.0924995 7.71832 0.0974995C8.40795 0.0999995 9.09508 0.0974974 9.7847 0.0874974C10.4693 0.0774975 11.1015 0.0675001 11.6737 0.0550001Z" fill="#B82227"/>
<path d="M14.862 14.0153C14.0049 14.0103 13.3828 13.7878 12.993 13.3428C12.6057 12.9003 12.4133 12.3403 12.4158 11.6628C12.4183 11.1178 12.5507 10.6653 12.8106 10.3103C13.0729 9.95533 13.4078 9.66533 13.8175 9.44783C14.2273 9.22783 14.6596 9.04033 15.1168 8.87784C15.5716 8.71784 16.0014 8.56283 16.4061 8.41533C16.8084 8.26784 17.1407 8.10033 17.4031 7.91283C17.663 7.72533 17.7954 7.48284 17.7954 7.18284L17.8029 5.76034C17.8054 5.34534 17.7454 5.00284 17.623 4.73534C17.5005 4.46784 17.3206 4.26535 17.0808 4.12785C16.8409 3.99035 16.5386 3.92034 16.1763 3.91784C15.9039 3.91784 15.6166 3.95534 15.3192 4.03034C15.0194 4.10784 14.772 4.25534 14.5771 4.47534C14.9144 4.56784 15.1768 4.73784 15.3642 4.98534C15.5516 5.23284 15.644 5.53284 15.6415 5.88284C15.639 6.28534 15.5041 6.60034 15.2368 6.82784C14.9694 7.05534 14.6346 7.16534 14.2323 7.16534C13.8025 7.16284 13.4802 7.02534 13.2603 6.75034C13.0405 6.47534 12.933 6.15784 12.933 5.79284C12.9355 5.42784 13.028 5.12784 13.2104 4.88784C13.3928 4.64784 13.6476 4.43284 13.9725 4.23784C14.2973 4.01784 14.7146 3.84534 15.2218 3.71785C15.729 3.59035 16.2812 3.52785 16.8784 3.53035C17.4506 3.53285 17.9553 3.59784 18.3976 3.72284C18.8373 3.84784 19.2146 4.06784 19.5244 4.38034C19.8343 4.68034 20.0342 5.05285 20.1241 5.49534C20.2141 5.93784 20.2565 6.47784 20.2541 7.11534L20.2291 12.4578C20.2266 12.7828 20.2615 13.0128 20.334 13.1503C20.404 13.2878 20.5314 13.3553 20.7138 13.3578C20.8687 13.3578 21.0061 13.3203 21.1236 13.2428C21.241 13.1653 21.3585 13.0803 21.4759 12.9903L21.6883 13.3228C21.4009 13.5428 21.1011 13.7178 20.7888 13.8453C20.4764 13.9728 20.0991 14.0378 19.6569 14.0353C18.9173 14.0328 18.4225 13.8628 18.1777 13.5303C17.9328 13.1978 17.8029 12.8178 17.7929 12.3878C17.4381 12.9703 17.0158 13.3878 16.5211 13.6403C16.0238 13.8928 15.4716 14.0178 14.862 14.0153ZM16.1713 12.9278C16.4561 12.9303 16.736 12.8528 17.0108 12.6978C17.2832 12.5428 17.538 12.2853 17.7754 11.9203L17.7954 7.98033C17.6255 8.24033 17.3781 8.45284 17.0508 8.62034C16.726 8.78784 16.3961 8.97283 16.0638 9.17033C15.7315 9.37033 15.4442 9.63283 15.2018 9.95533C14.9594 10.2803 14.837 10.7278 14.8345 11.3003C14.832 11.8603 14.9569 12.2703 15.2093 12.5303C15.4616 12.7953 15.7815 12.9278 16.1713 12.9278Z" fill="#B82227"/>
<path d="M28.8643 3.58989C29.2666 3.59239 29.6014 3.67739 29.8663 3.84739C30.1311 4.01739 30.3285 4.23239 30.4584 4.49239C30.5859 4.75239 30.6508 5.02739 30.6483 5.31239C30.6458 5.74239 30.5184 6.09738 30.2635 6.38238C30.0087 6.66738 29.6739 6.80989 29.2566 6.80738C28.8668 6.80488 28.5495 6.69988 28.3021 6.48988C28.0572 6.27988 27.9348 5.99488 27.9348 5.62988C27.9373 5.30488 28.0197 5.03239 28.1822 4.81239C28.3446 4.59239 28.532 4.41739 28.7394 4.28739C28.5969 4.20989 28.4345 4.18239 28.2521 4.20739C27.8348 4.24489 27.4725 4.42239 27.1577 4.73738C26.8454 5.05488 26.598 5.42988 26.4206 5.86488C26.2432 6.29988 26.1533 6.71238 26.1508 7.10238L26.1283 11.9199C26.1258 12.5574 26.2857 12.9824 26.6105 13.1999C26.9328 13.4149 27.4076 13.5249 28.0322 13.5274L28.0297 13.9374C27.7299 13.9224 27.3001 13.9049 26.7329 13.8824C26.1683 13.8599 25.5811 13.8474 24.9689 13.8449C24.4617 13.8424 23.9594 13.8499 23.4572 13.8674C22.955 13.8849 22.5827 13.8999 22.3353 13.9099L22.3378 13.4999C22.8176 13.5024 23.1599 13.4074 23.3623 13.2124C23.5647 13.0174 23.6671 12.6474 23.6696 12.1024L23.6996 5.95988C23.7021 5.37489 23.6096 4.94239 23.4222 4.66239C23.2348 4.38239 22.8875 4.23989 22.3803 4.23739L22.3828 3.82739C22.7976 3.86739 23.1999 3.88989 23.5896 3.89239C24.0694 3.89489 24.5291 3.87489 24.9639 3.82989C25.3987 3.78739 25.7985 3.71989 26.1633 3.62989L26.1533 5.65739C26.3107 5.29489 26.5181 4.95739 26.7729 4.64739C27.0278 4.33739 27.3351 4.08239 27.6924 3.88239C28.0622 3.68739 28.4495 3.58739 28.8643 3.58989Z" fill="#B82227"/>
<path d="M35.136 0.695312L35.121 3.9128L37.6147 3.9253L37.6122 4.3153L35.1185 4.3028L35.0811 12.0628C35.0786 12.5303 35.161 12.8628 35.3309 13.0578C35.4983 13.2528 35.7382 13.3528 36.0505 13.3528C36.3504 13.3553 36.6227 13.2428 36.8701 13.0153C37.1175 12.7903 37.3398 12.4103 37.5372 11.8778L37.887 12.0353C37.6897 12.6703 37.3848 13.2003 36.9725 13.6203C36.5603 14.0403 35.9856 14.2503 35.2435 14.2453C34.8012 14.2428 34.4289 14.1853 34.1241 14.0753C33.8192 13.9628 33.5569 13.8028 33.337 13.5928C33.0522 13.2928 32.8623 12.9353 32.7673 12.5178C32.6724 12.1003 32.6249 11.5478 32.6299 10.8603L32.6599 4.2878L30.9458 4.2803L30.9483 3.8903L32.6624 3.8978L32.6749 1.18781C33.1421 1.17781 33.5769 1.13281 33.9817 1.05781C34.3864 0.982811 34.7712 0.862812 35.136 0.695312Z" fill="#B82227"/>
<path d="M40.9178 14.1374C40.0607 14.1324 39.4386 13.9099 39.0488 13.4649C38.6615 13.0224 38.4691 12.4624 38.4716 11.7849C38.4741 11.2399 38.6065 10.7874 38.8664 10.4324C39.1287 10.0774 39.4635 9.7874 39.8733 9.5699C40.2831 9.3499 40.7154 9.1624 41.1726 8.9999C41.6274 8.8399 42.0571 8.6849 42.4619 8.5374C42.8642 8.3899 43.1965 8.2224 43.4589 8.0349C43.7187 7.8474 43.8512 7.60491 43.8512 7.30491L43.8587 5.88241C43.8612 5.46741 43.8012 5.12491 43.6788 4.85741C43.5563 4.58991 43.3764 4.38742 43.1366 4.24992C42.8967 4.11242 42.5944 4.04242 42.2321 4.03992C41.9597 4.03992 41.6724 4.07741 41.375 4.15241C41.0752 4.22991 40.8278 4.37741 40.6329 4.59741C40.9702 4.68991 41.2326 4.85991 41.42 5.10741C41.6074 5.35491 41.6998 5.65491 41.6973 6.00491C41.6948 6.40741 41.5599 6.72241 41.2926 6.94991C41.0252 7.1749 40.6904 7.28741 40.2881 7.28741C39.8583 7.28491 39.536 7.14741 39.3161 6.87241C39.0962 6.59741 38.9888 6.27991 38.9888 5.91491C38.9913 5.54991 39.0837 5.24992 39.2662 5.00992C39.4486 4.76992 39.7034 4.55492 40.0282 4.35992C40.3531 4.13992 40.7703 3.96741 41.2776 3.83992C41.7848 3.71242 42.337 3.64992 42.9342 3.65242C43.5064 3.65492 44.0111 3.71992 44.4533 3.84492C44.8931 3.96992 45.2704 4.18992 45.5802 4.50242C45.8901 4.80242 46.09 5.17491 46.1799 5.61741C46.2699 6.05991 46.3123 6.59991 46.3098 7.2374L46.2849 12.5799C46.2824 12.9049 46.3173 13.1349 46.3898 13.2724C46.4598 13.4099 46.5872 13.4774 46.7696 13.4799C46.9245 13.4799 47.0619 13.4424 47.1794 13.3649C47.2968 13.2874 47.4142 13.2024 47.5317 13.1124L47.7441 13.4449C47.4567 13.6649 47.1569 13.8399 46.8446 13.9674C46.5322 14.0949 46.1549 14.1599 45.7127 14.1574C44.9731 14.1549 44.4783 13.9849 44.2335 13.6524C43.9886 13.3199 43.8587 12.9399 43.8487 12.5099C43.4939 13.0924 43.0716 13.5099 42.5769 13.7624C42.0821 14.0149 41.5274 14.1399 40.9178 14.1374ZM42.2295 13.0524C42.5144 13.0549 42.7942 12.9774 43.0691 12.8224C43.3414 12.6674 43.5963 12.4099 43.8337 12.0449L43.8537 8.1049C43.6838 8.3649 43.4364 8.57741 43.1091 8.7449C42.7843 8.9124 42.4544 9.0974 42.1221 9.2949C41.7898 9.4949 41.5024 9.7574 41.2601 10.0799C41.0177 10.4049 40.8953 10.8524 40.8928 11.4249C40.8903 11.9849 41.0152 12.3949 41.2676 12.6549C41.5174 12.9174 41.8398 13.0499 42.2295 13.0524Z" fill="#B82227"/>
<path d="M13.4527 19.2897L13.4502 19.6997C13.2029 19.7497 12.9705 19.8872 12.7556 20.1047C12.5407 20.3247 12.3334 20.7147 12.136 21.2722L9.21504 29.1747L8.60537 30.0872L4.63502 20.7472C4.39015 20.2522 4.15778 19.9447 3.93789 19.8272C3.71801 19.7097 3.53561 19.6497 3.39319 19.6497L3.39569 19.2397C3.77298 19.2797 4.16527 19.3122 4.57505 19.3322C4.98483 19.3522 5.3971 19.3647 5.81188 19.3672C6.29162 19.3697 6.75637 19.3597 7.20612 19.3347C7.65338 19.3122 8.07316 19.2872 8.46294 19.2622L8.46045 19.6722C8.16061 19.6697 7.89575 19.6897 7.66088 19.7272C7.42601 19.7647 7.27359 19.8722 7.20113 20.0472C7.12867 20.2222 7.17614 20.5247 7.34355 20.9547L9.75225 26.9147L9.59733 26.9922L11.3339 22.3597C11.6637 21.4522 11.7112 20.7897 11.4788 20.3722C11.2464 19.9547 10.8117 19.7247 10.177 19.6847L10.1795 19.2747C10.4918 19.3022 10.7992 19.3222 11.104 19.3372C11.4089 19.3522 11.6987 19.3597 11.971 19.3597C12.2434 19.3597 12.5133 19.3547 12.7806 19.3447C13.0455 19.3322 13.2703 19.3147 13.4527 19.2897ZM9.21504 29.1747L8.46544 31.1397C8.22807 31.7897 7.94573 32.2497 7.6209 32.5197C7.42601 32.6872 7.18864 32.8097 6.90879 32.8872C6.62894 32.9647 6.31911 33.0022 5.98179 32.9997C5.68195 32.9972 5.39461 32.9447 5.11476 32.8397C4.83491 32.7347 4.60253 32.5772 4.41513 32.3672C4.22774 32.1572 4.13529 31.8847 4.13529 31.5472C4.13778 31.1822 4.26272 30.8922 4.51008 30.6722C4.75745 30.4522 5.09727 30.3447 5.52454 30.3447C5.90183 30.3472 6.20916 30.4422 6.44903 30.6322C6.68891 30.8222 6.80634 31.1047 6.80634 31.4822C6.80634 31.7297 6.73138 31.9497 6.58896 32.1447C6.44404 32.3397 6.24165 32.4872 5.98179 32.5897C6.04675 32.6022 6.10922 32.6122 6.16669 32.6197C6.22416 32.6272 6.27413 32.6297 6.31161 32.6297C6.68891 32.6322 7.02622 32.5097 7.32606 32.2647C7.6259 32.0197 7.86827 31.6297 8.05317 31.0972L8.76278 29.1697L9.21504 29.1747Z" fill="#B82227"/>
<path d="M17.9103 16.1123L17.8953 19.3298L20.389 19.3423L20.3865 19.7323L17.8928 19.7198L17.8554 27.4798C17.8529 27.9473 17.9353 28.2798 18.1052 28.4748C18.2726 28.6698 18.5125 28.7698 18.8248 28.7698C19.1247 28.7723 19.397 28.6598 19.6444 28.4323C19.8918 28.2073 20.1141 27.8273 20.3115 27.2948L20.6613 27.4523C20.4639 28.0873 20.1591 28.6173 19.7468 29.0373C19.3346 29.4573 18.7599 29.6673 18.0178 29.6623C17.5755 29.6598 17.2032 29.6023 16.8984 29.4923C16.5935 29.3798 16.3312 29.2198 16.1113 29.0098C15.8265 28.7098 15.6366 28.3523 15.5416 27.9348C15.4467 27.5173 15.3992 26.9648 15.4042 26.2773L15.4342 19.7048L13.7201 19.6973L13.7226 19.3073L15.4367 19.3148L15.4492 16.6048C15.9164 16.5948 16.3512 16.5498 16.756 16.4748C17.1632 16.4023 17.5455 16.2798 17.9103 16.1123Z" fill="#B82227"/>
<path d="M23.6947 29.5549C22.8377 29.5499 22.2155 29.3274 21.8257 28.8824C21.4385 28.4399 21.2461 27.8799 21.2486 27.2024C21.2511 26.6574 21.3835 26.2049 21.6433 25.8499C21.9057 25.4949 22.2405 25.2049 22.6503 24.9874C23.0601 24.7674 23.4923 24.5799 23.9496 24.4174C24.4044 24.2574 24.8341 24.1024 25.2389 23.9549C25.6412 23.8074 25.9735 23.6399 26.2359 23.4524C26.4957 23.2649 26.6281 23.0224 26.6281 22.7224L26.6356 21.2999C26.6381 20.8849 26.5782 20.5425 26.4557 20.275C26.3333 20.0075 26.1534 19.805 25.9135 19.6675C25.6737 19.53 25.3713 19.46 25.009 19.4575C24.7367 19.4575 24.4493 19.495 24.152 19.57C23.8522 19.6475 23.6048 19.795 23.4099 20.015C23.7472 20.1075 24.0096 20.2775 24.197 20.525C24.3844 20.7725 24.4768 21.0725 24.4743 21.4225C24.4718 21.8249 24.3369 22.1399 24.0695 22.3649C23.8022 22.5924 23.4674 22.7024 23.0651 22.7024C22.6353 22.6999 22.313 22.5624 22.0931 22.2874C21.8732 22.0124 21.7658 21.695 21.7658 21.33C21.7683 20.965 21.8607 20.6649 22.0431 20.4249C22.2255 20.1849 22.4804 19.97 22.8052 19.775C23.13 19.555 23.5473 19.3825 24.0545 19.255C24.5618 19.1275 25.114 19.065 25.7111 19.0675C26.2833 19.07 26.7881 19.135 27.2303 19.26C27.6701 19.385 28.0474 19.605 28.3572 19.9175C28.667 20.2174 28.8669 20.59 28.9569 21.0325C29.0468 21.475 29.0893 22.0149 29.0868 22.6524L29.0618 27.9949C29.0593 28.3199 29.0943 28.5499 29.1668 28.6874C29.2367 28.8249 29.3642 28.8924 29.5466 28.8949C29.7015 28.8949 29.8389 28.8574 29.9563 28.7799C30.0738 28.7024 30.1912 28.6174 30.3087 28.5274L30.521 28.8599C30.2337 29.0799 29.9339 29.2549 29.6215 29.3824C29.3092 29.5099 28.9319 29.5749 28.4896 29.5724C27.75 29.5699 27.2553 29.3999 27.0104 29.0674C26.7656 28.7349 26.6356 28.3549 26.6256 27.9249C26.2708 28.5074 25.8486 28.9249 25.3538 29.1774C24.8566 29.4349 24.3044 29.5599 23.6947 29.5549ZM25.004 28.4699C25.2889 28.4724 25.5687 28.3949 25.8436 28.2399C26.1159 28.0849 26.3708 27.8274 26.6082 27.4624L26.6281 23.5224C26.4582 23.7824 26.2109 23.9949 25.8836 24.1624C25.5587 24.3299 25.2289 24.5149 24.8966 24.7124C24.5643 24.9124 24.2769 25.1749 24.0346 25.4974C23.7922 25.8224 23.6698 26.2699 23.6673 26.8424C23.6648 27.4024 23.7897 27.8124 24.042 28.0724C24.2944 28.3374 24.6167 28.4674 25.004 28.4699Z" fill="#B82227"/>
<path d="M38.2243 19.1349C38.769 19.1374 39.2088 19.2099 39.5386 19.3549C39.8685 19.4999 40.1383 19.6824 40.3457 19.9049C40.5781 20.1524 40.743 20.4724 40.8379 20.8624C40.9329 21.2524 40.9804 21.7799 40.9754 22.4424L40.9504 27.6874C40.9479 28.2324 41.0453 28.6049 41.2477 28.7998C41.4476 28.9948 41.7874 29.0948 42.2697 29.0973L42.2672 29.5074C42.0323 29.4924 41.6725 29.4749 41.1852 29.4524C40.698 29.4299 40.2283 29.4173 39.7735 29.4173C39.2938 29.4148 38.824 29.4224 38.3693 29.4399C37.9145 29.4574 37.5772 29.4724 37.3548 29.4849L37.3573 29.0749C37.7721 29.0774 38.0669 28.9799 38.2368 28.7874C38.4067 28.5949 38.4942 28.2224 38.4967 27.6774L38.5242 21.7699C38.5267 21.4199 38.4942 21.1024 38.4317 20.8249C38.3693 20.5449 38.2393 20.3224 38.0444 20.1599C37.8495 19.9974 37.5722 19.9149 37.2074 19.9124C36.5702 19.9099 36.043 20.1649 35.6258 20.6749C35.2085 21.1874 34.9961 21.8249 34.9936 22.5924L34.9686 27.6624C34.9661 28.2074 35.0486 28.5799 35.216 28.7749C35.3834 28.9699 35.6757 29.0699 36.0905 29.0724L36.088 29.4824C35.8681 29.4674 35.5358 29.4499 35.0935 29.4299C34.6513 29.4074 34.204 29.3973 33.7493 29.3948C33.2695 29.3923 32.7798 29.3998 32.2876 29.4173C31.7928 29.4348 31.423 29.4499 31.1757 29.4599L31.1782 29.0498C31.6579 29.0523 32.0002 28.9574 32.2026 28.7624C32.405 28.5674 32.5074 28.1974 32.5099 27.6524L32.5399 21.5099C32.5424 20.9249 32.45 20.4924 32.2626 20.2124C32.0752 19.9324 31.7279 19.7899 31.2206 19.7874L31.2231 19.3774C31.6379 19.4174 32.0402 19.4399 32.43 19.4424C32.9097 19.4449 33.367 19.4249 33.8042 19.3799C34.239 19.3374 34.6388 19.2699 35.0036 19.1799L34.9936 21.1299C35.3209 20.3899 35.7732 19.8724 36.3454 19.5774C36.925 19.2774 37.5472 19.1299 38.2243 19.1349Z" fill="#B82227"/>
<path d="M46.8721 16.25L46.8571 19.4675L49.3508 19.48L49.3483 19.87L46.8546 19.8575L46.8171 27.6175C46.8146 28.085 46.8971 28.4175 47.067 28.6125C47.2344 28.8075 47.4743 28.9075 47.7866 28.9075C48.0865 28.91 48.3588 28.7975 48.6062 28.57C48.8535 28.345 49.0759 27.965 49.2733 27.4325L49.6231 27.59C49.4257 28.225 49.1209 28.755 48.7086 29.175C48.2963 29.595 47.7217 29.805 46.9796 29.8C46.5373 29.7975 46.165 29.74 45.8602 29.63C45.5553 29.5175 45.293 29.3575 45.0731 29.1475C44.7882 28.8475 44.5983 28.49 44.5034 28.0725C44.4085 27.655 44.361 27.1025 44.366 26.415L44.396 19.8425L42.6819 19.835L42.6844 19.445L44.3985 19.4525L44.4109 16.7425C44.8782 16.7325 45.313 16.6875 45.7177 16.6125C46.1225 16.5375 46.5073 16.4175 46.8721 16.25Z" fill="#B82227"/>
<path d="M52.654 29.6921C51.7969 29.6871 51.1748 29.4646 50.785 29.0196C50.3977 28.5771 50.2053 28.0171 50.2078 27.3396C50.2103 26.7946 50.3427 26.3421 50.6026 25.9871C50.8649 25.6321 51.1997 25.3421 51.6095 25.1246C52.0193 24.9046 52.4516 24.7171 52.9088 24.5546C53.3636 24.3946 53.7933 24.2396 54.1981 24.0921C54.6004 23.9446 54.9327 23.7771 55.1951 23.5896C55.4549 23.4021 55.5874 23.1596 55.5874 22.8596L55.5949 21.4372C55.5974 21.0222 55.5374 20.6797 55.415 20.4122C55.2925 20.1447 55.1126 19.9422 54.8728 19.8047C54.6329 19.6672 54.3306 19.5972 53.9683 19.5947C53.6959 19.5947 53.4086 19.6322 53.1112 19.7072C52.8139 19.7822 52.564 19.9322 52.3691 20.1522C52.7064 20.2447 52.9688 20.4147 53.1562 20.6622C53.3436 20.9097 53.436 21.2097 53.4335 21.5596C53.431 21.9621 53.2961 22.2772 53.0288 22.5022C52.7614 22.7297 52.4266 22.8396 52.0243 22.8396C51.5945 22.8371 51.2722 22.6996 51.0523 22.4246C50.8325 22.1496 50.725 21.8322 50.725 21.4672C50.7275 21.1022 50.82 20.8022 51.0024 20.5622C51.1848 20.3222 51.4396 20.1072 51.7644 19.9122C52.0893 19.6922 52.5065 19.5197 53.0138 19.3922C53.521 19.2647 54.0732 19.2022 54.6704 19.2047C55.2426 19.2072 55.7473 19.2722 56.1896 19.3972C56.6293 19.5222 57.0066 19.7422 57.3164 20.0547C57.6263 20.3547 57.8262 20.7272 57.9161 21.1697C58.0061 21.6122 58.0485 22.1522 58.046 22.7896L58.0211 28.1321C58.0186 28.4571 58.0535 28.6871 58.126 28.8246C58.196 28.9621 58.3234 29.0296 58.5058 29.0321C58.6607 29.0321 58.7981 28.9946 58.9156 28.9171C59.033 28.8396 59.1505 28.7546 59.2679 28.6646L59.4803 28.9971C59.1929 29.2171 58.8931 29.3921 58.5808 29.5196C58.2684 29.6471 57.8911 29.7121 57.4489 29.7096C56.7093 29.7071 56.2145 29.5371 55.9697 29.2046C55.7248 28.8721 55.5949 28.4921 55.5849 28.0621C55.2301 28.6446 54.8078 29.0621 54.3131 29.3146C53.8183 29.5721 53.2661 29.6971 52.654 29.6921ZM53.9658 28.6071C54.2506 28.6096 54.5304 28.5321 54.8053 28.3771C55.0777 28.2221 55.3325 27.9646 55.5699 27.5996L55.5899 23.6596C55.42 23.9196 55.1726 24.1321 54.8453 24.2996C54.5205 24.4671 54.1906 24.6521 53.8583 24.8496C53.526 25.0496 53.2387 25.3121 52.9963 25.6346C52.7539 25.9596 52.6315 26.4071 52.629 26.9796C52.6265 27.5396 52.7514 27.9496 53.0038 28.2096C53.2536 28.4746 53.576 28.6046 53.9658 28.6071Z" fill="#B82227"/>
<path d="M63.9105 19.2549C64.4552 19.2574 64.9249 19.3374 65.3122 19.4949C65.6995 19.6524 65.9868 19.7899 66.1667 19.9074C66.6065 20.2349 66.8739 20.0274 66.9688 19.2874L67.3986 19.2899C67.3711 19.6674 67.3486 20.1124 67.3336 20.6249C67.3186 21.1374 67.3086 21.8249 67.3036 22.6824L66.8739 22.6799C66.8114 22.1999 66.689 21.7299 66.5091 21.2749C66.3292 20.8199 66.0643 20.4374 65.7145 20.1299C65.3647 19.8224 64.9049 19.6674 64.3327 19.6649C63.9305 19.6624 63.5956 19.7774 63.3283 20.0099C63.0609 20.2424 62.926 20.5724 62.9235 21.0024C62.921 21.3924 63.0359 21.7349 63.2683 22.0274C63.5007 22.3199 63.8005 22.5949 64.1703 22.8499C64.5401 23.1049 64.9249 23.3824 65.3272 23.6849C66.0143 24.1699 66.5915 24.6549 67.0638 25.1449C67.536 25.6349 67.7709 26.2699 67.7659 27.0499C67.7634 27.6474 67.596 28.1574 67.2612 28.5774C66.9288 28.9974 66.4916 29.3224 65.9494 29.5474C65.4072 29.7724 64.815 29.8824 64.1653 29.8799C63.8155 29.8774 63.4957 29.8449 63.2108 29.7774C62.926 29.7099 62.6711 29.6249 62.4513 29.5199C62.2838 29.4274 62.1314 29.3424 61.994 29.2649C61.8566 29.1874 61.7192 29.1199 61.5767 29.0674C61.4468 29.0024 61.3344 29.0274 61.2344 29.1449C61.137 29.2624 61.0595 29.4549 61.007 29.7299L60.5773 29.7274C60.6048 29.3124 60.6272 28.8049 60.6422 28.2074C60.6572 27.6099 60.6672 26.8174 60.6722 25.8274L61.102 25.8299C61.1894 26.5449 61.3269 27.1724 61.5118 27.7149C61.6967 28.2549 61.9715 28.6799 62.3338 28.9874C62.6961 29.2949 63.1634 29.4499 63.7356 29.4524C64.0854 29.4549 64.4252 29.3399 64.75 29.1074C65.0748 28.8749 65.2397 28.4799 65.2422 27.9199C65.2447 27.3474 65.0523 26.8724 64.6651 26.4949C64.2778 26.1149 63.7905 25.7099 63.2083 25.2799C62.7686 24.9524 62.3563 24.6324 61.9765 24.3174C61.5942 24.0024 61.2844 23.6499 61.047 23.2599C60.8071 22.8699 60.6897 22.4074 60.6922 21.8749C60.6947 21.2899 60.8471 20.8074 61.147 20.4249C61.4468 20.0424 61.8416 19.7524 62.3313 19.5524C62.8286 19.3524 63.3508 19.2524 63.9105 19.2549Z" fill="#B82227"/>
</svg>
