<svg width="446" height="542" viewBox="0 0 446 542" fill="none" xmlns="http://www.w3.org/2000/svg">
<path d="M443.935 9.91204e-05L0 1.23779L1.51255 542L445.447 540.762L443.935 9.91204e-05Z" fill="#E4E1D9"/>
<path d="M103.511 293.282C103.297 295.443 103.148 297.533 103.062 299.55C102.987 301.56 102.955 303.106 102.955 304.187C102.955 305.559 102.955 306.834 103.041 308.023C103.126 309.212 103.169 310.271 103.222 311.179H101.289C101.022 307.999 100.478 304.849 99.665 301.766C99.1639 299.703 97.8877 297.92 96.1076 296.794C94.4197 295.778 91.8344 295.26 88.277 295.281H83.726L83.8649 343.775C83.8014 345.503 84.0179 347.23 84.5059 348.887C84.708 349.442 85.0399 349.939 85.4734 350.336C85.9069 350.734 86.4289 351.019 86.995 351.167C88.7382 351.639 90.5321 351.893 92.3365 351.924V353.631C90.8729 353.512 89.0248 353.458 86.7813 353.437C84.5379 353.415 82.2518 353.437 79.9656 353.437C77.4231 353.437 75.0622 353.437 72.8508 353.437C70.6394 353.437 68.8447 353.556 67.5093 353.664V351.999C69.3327 351.969 71.1451 351.708 72.9042 351.221C73.4698 351.064 73.9899 350.772 74.4211 350.369C74.8523 349.967 75.182 349.466 75.3826 348.908C75.8661 347.251 76.0754 345.523 76.0023 343.796L75.8634 295.303H71.3765C67.9046 295.303 65.2979 295.822 63.5887 296.859C61.791 297.985 60.4992 299.777 59.9885 301.852C59.1899 304.937 58.6643 308.087 58.4181 311.266H56.4845C56.6043 310.218 56.672 309.164 56.6875 308.11C56.6875 306.91 56.6875 305.635 56.6875 304.273C56.6875 303.192 56.6875 301.647 56.5486 299.626C56.4097 297.605 56.3029 295.53 56.0679 293.368L63.781 293.509C66.5585 293.559 69.3503 293.584 72.1564 293.584H79.8267H87.4437C90.2213 293.584 93.0166 293.548 95.8298 293.476C98.6501 293.411 101.203 293.336 103.511 293.282Z" fill="#B82529"/>
<path d="M124.027 350.23C125.861 350.21 127.652 349.687 129.196 348.72C131.161 347.442 132.782 345.72 133.921 343.699V326.899C132.903 328.273 131.491 329.32 129.863 329.909C128.018 330.659 126.128 331.485 124.171 332.376C122.261 333.233 120.55 334.465 119.147 335.995C117.627 337.829 116.88 340.161 117.057 342.515C117.057 345.145 117.735 347.09 119.102 348.372C119.758 348.984 120.53 349.462 121.375 349.781C122.22 350.1 123.121 350.253 124.027 350.23ZM120.181 353.664C116.379 353.664 113.622 352.752 111.887 350.904C110.08 348.855 109.145 346.207 109.275 343.504C109.183 341.378 109.808 339.282 111.054 337.538C112.284 335.942 113.849 334.623 115.645 333.669C117.54 332.65 119.518 331.785 121.559 331.083C123.638 330.355 125.606 329.659 127.473 328.964C129.105 328.398 130.65 327.615 132.064 326.638C132.617 326.284 133.07 325.799 133.382 325.23C133.695 324.661 133.857 324.024 133.854 323.378V318.064C133.962 316.173 133.579 314.285 132.742 312.576C132.117 311.41 131.071 310.512 129.808 310.055C128.48 309.616 127.084 309.407 125.683 309.436C124.105 309.454 122.534 309.654 121.003 310.033C119.416 310.389 118.006 311.272 117.012 312.533C118.146 312.772 119.167 313.372 119.914 314.239C120.75 315.222 121.189 316.471 121.148 317.749C121.182 318.379 121.075 319.008 120.835 319.594C120.595 320.179 120.227 320.707 119.758 321.14C118.768 321.996 117.477 322.443 116.156 322.389C115.451 322.448 114.741 322.335 114.091 322.06C113.441 321.785 112.871 321.357 112.432 320.814C111.651 319.787 111.233 318.539 111.243 317.26C111.179 315.968 111.572 314.695 112.354 313.652C113.193 312.673 114.162 311.807 115.234 311.077C116.856 310.021 118.633 309.212 120.503 308.675C122.847 307.988 125.282 307.647 127.729 307.664C129.805 307.617 131.875 307.889 133.865 308.469C135.432 308.932 136.872 309.734 138.079 310.816C139.58 312.146 140.628 313.895 141.08 315.826C141.586 318.147 141.829 320.516 141.803 322.889L141.88 346.71C141.811 347.76 142.026 348.809 142.503 349.752C142.725 350.091 143.039 350.363 143.41 350.538C143.781 350.712 144.195 350.783 144.604 350.741C145.354 350.759 146.095 350.579 146.75 350.22C147.395 349.858 147.996 349.424 148.539 348.926L149.518 350.383C148.407 351.223 147.237 351.985 146.016 352.665C144.634 353.324 143.106 353.638 141.569 353.578C138.523 353.578 136.511 352.828 135.522 351.274C134.506 349.686 133.984 347.843 134.021 345.971C132.595 348.588 130.384 350.715 127.684 352.067C125.33 353.121 122.77 353.666 120.181 353.664Z" fill="#B82529"/>
<path d="M177.968 307.661C179.323 307.63 180.665 307.951 181.876 308.595C182.932 309.176 183.835 310.026 184.502 311.066C185.176 312.155 185.509 313.439 185.455 314.737C185.4 316.035 184.962 317.283 184.2 318.305C183.794 318.843 183.275 319.274 182.683 319.562C182.091 319.85 181.443 319.988 180.792 319.964C179.677 319.978 178.596 319.564 177.749 318.8C177.308 318.39 176.96 317.881 176.731 317.311C176.502 316.74 176.397 316.123 176.425 315.504C176.399 314.488 176.7 313.493 177.28 312.681C177.811 311.941 178.464 311.309 179.208 310.814C179.012 310.528 178.751 310.299 178.448 310.149C178.145 309.999 177.812 309.933 177.478 309.957C176.354 309.957 175.242 310.201 174.211 310.673C173.18 311.145 172.252 311.836 171.486 312.703C169.756 314.595 168.409 316.837 167.526 319.294C166.631 321.52 166.15 323.907 166.108 326.324V344.69C166.108 347.524 166.893 349.413 168.464 350.358C170.434 351.404 172.628 351.892 174.831 351.775V353.588C173.57 353.533 171.798 353.456 169.485 353.39C167.171 353.324 164.743 353.28 162.19 353.291C160.325 353.291 158.48 353.346 156.646 353.434L152.477 353.664V351.852C154.718 351.852 156.323 351.413 157.292 350.545C158.261 349.677 158.72 348.029 158.72 345.602L158.657 318.492C158.792 316.474 158.325 314.462 157.323 312.736C156.448 311.498 154.805 310.88 152.394 310.88V308.979C154.088 309.15 155.789 309.231 157.49 309.221C159.013 309.228 160.534 309.125 162.044 308.913C163.398 308.729 164.734 308.417 166.035 307.98V318.822C166.694 317.022 167.558 315.314 168.609 313.736C169.708 312.058 171.085 310.603 172.674 309.441C174.204 308.248 176.065 307.623 177.968 307.661Z" fill="#B82529"/>
<path d="M205.265 294.719V309.218H217.65V310.958H205.265L205.35 344.559C205.35 347.278 205.828 349.183 206.794 350.284C207.293 350.841 207.905 351.277 208.585 351.561C209.266 351.844 209.998 351.968 210.731 351.924C211.562 351.927 212.384 351.741 213.14 351.38C213.895 351.018 214.565 350.49 215.103 349.832C216.647 347.707 217.733 345.263 218.286 342.665L219.963 343.094C219.526 346.16 218.399 349.075 216.673 351.605C215.028 353.928 212.513 355.084 209.118 355.095C207.526 355.143 205.938 354.901 204.427 354.379C203.216 353.903 202.108 353.18 201.169 352.254C199.93 350.923 199.045 349.28 198.601 347.487C198.062 345.07 197.82 342.591 197.879 340.111L197.805 311.035H189.772V309.295H197.805V296.007C199.206 296.007 200.532 295.831 201.827 295.655C203 295.463 204.152 295.149 205.265 294.719Z" fill="#B82529"/>
<path d="M237.094 350.262C238.864 350.238 240.593 349.714 242.085 348.748C243.981 347.461 245.545 345.733 246.648 343.708L246.594 326.89C245.606 328.261 244.244 329.309 242.676 329.905C240.894 330.645 239.069 331.473 237.18 332.365C235.337 333.228 233.686 334.461 232.328 335.99C230.866 337.831 230.145 340.164 230.31 342.522C230.31 345.156 230.964 347.105 232.285 348.389C232.921 349.013 233.675 349.501 234.501 349.822C235.327 350.144 236.209 350.294 237.094 350.262ZM233.38 353.658C229.719 353.658 227.046 352.754 225.372 350.893C223.627 348.836 222.724 346.179 222.849 343.469C222.76 341.343 223.364 339.247 224.567 337.503C225.751 335.899 227.263 334.573 229 333.617C230.835 332.605 232.744 331.739 234.711 331.026C236.722 330.301 238.625 329.593 240.422 328.904C241.997 328.34 243.489 327.56 244.855 326.585C245.387 326.228 245.824 325.743 246.125 325.173C246.427 324.603 246.584 323.966 246.583 323.319V317.996C246.68 316.119 246.311 314.248 245.51 312.553C244.909 311.382 243.898 310.482 242.676 310.028C241.395 309.584 240.047 309.371 238.693 309.396C237.168 309.413 235.651 309.618 234.174 310.006C232.642 310.362 231.28 311.247 230.32 312.51C231.418 312.742 232.406 313.344 233.122 314.219C233.932 315.203 234.356 316.454 234.314 317.735C234.346 318.366 234.243 318.996 234.012 319.583C233.78 320.169 233.425 320.698 232.972 321.131C232.018 321.986 230.776 322.435 229.505 322.383C228.822 322.443 228.136 322.329 227.508 322.051C226.879 321.774 226.33 321.342 225.908 320.794C225.146 319.773 224.738 318.525 224.749 317.245C224.687 315.951 225.066 314.675 225.823 313.631C226.633 312.65 227.568 311.783 228.603 311.051C230.155 310.01 231.852 309.21 233.637 308.678C235.899 307.984 238.252 307.643 240.615 307.666C242.62 307.613 244.62 307.885 246.54 308.471C248.057 308.934 249.452 309.737 250.619 310.822C252.063 312.154 253.07 313.901 253.507 315.83C253.995 318.156 254.232 320.528 254.216 322.906L254.28 346.778C254.213 347.83 254.421 348.881 254.881 349.826C255.097 350.164 255.401 350.434 255.759 350.607C256.117 350.78 256.516 350.849 256.91 350.806C257.633 350.827 258.349 350.65 258.982 350.294C259.6 349.924 260.18 349.49 260.71 348.999L261.655 350.458C260.584 351.3 259.454 352.06 258.273 352.733C256.94 353.397 255.464 353.715 253.979 353.658C251.038 353.658 249.092 352.889 248.14 351.35C247.158 349.756 246.655 347.906 246.691 346.027C245.317 348.653 243.181 350.789 240.572 352.145C238.304 353.15 235.855 353.666 233.38 353.658Z" fill="#B82529"/>
<path d="M98.1993 416.993L95.2691 424.484C94.5244 426.748 93.2539 428.807 91.5597 430.496C90.6319 431.352 89.4985 431.958 88.2674 432.257C87.1389 432.555 85.978 432.715 84.8104 432.735C83.7833 432.753 82.7647 432.549 81.8253 432.137C80.9581 431.773 80.2179 431.164 79.6962 430.387C79.1565 429.559 78.8811 428.589 78.9061 427.604C78.8798 427.008 78.9729 426.413 79.1801 425.854C79.3873 425.294 79.7045 424.78 80.1133 424.343C80.5539 423.91 81.0819 423.575 81.6626 423.36C82.2434 423.144 82.8636 423.053 83.4825 423.092C84.6133 423.062 85.7194 423.423 86.6102 424.114C87.0508 424.477 87.3987 424.938 87.6256 425.46C87.8525 425.981 87.9521 426.548 87.9162 427.115C87.9484 427.966 87.7105 428.807 87.2357 429.517C86.804 430.122 86.2416 430.623 85.5896 430.985C85.6852 431.032 85.7901 431.058 85.8969 431.061H86.1163C87.6513 431.067 89.1321 430.5 90.2647 429.474C91.7059 428.032 92.7979 426.285 93.4583 424.364L96.5531 416.385L98.1993 416.993ZM117.888 372.354V374.072C116.742 374.215 115.676 374.731 114.859 375.54C113.666 376.844 112.785 378.397 112.28 380.084L98.1774 416.993H96.7178L80.6839 379.051C79.5865 376.834 78.489 375.478 77.3916 374.985C76.5723 374.571 75.6759 374.326 74.7577 374.268V372.474C76.0307 372.637 77.3587 372.768 78.7414 372.844C80.1242 372.92 81.6278 372.974 83.23 372.963C85.0299 372.963 86.9065 372.898 88.9039 372.779C90.9013 372.659 92.745 372.539 94.4789 372.42V374.224C93.1919 374.21 91.9062 374.312 90.6379 374.529C90.1402 374.582 89.6708 374.784 89.2923 375.109C88.9138 375.433 88.6443 375.864 88.5198 376.344C88.2344 377.334 88.5198 379.041 89.6172 381.443L100.328 407.535L99.8126 407.698L109.624 382.15C110.721 379.291 110.831 377.29 109.953 376.149C109.075 375.007 107.122 374.322 104.071 374.105V372.387L107.835 372.55C108.845 372.55 110.03 372.626 111.336 372.626C112.642 372.626 113.86 372.626 114.936 372.539L117.888 372.354Z" fill="#B82529"/>
<path d="M136.284 359.415V373.232H148.663V374.889H136.284L136.368 406.908C136.368 409.509 136.846 411.324 137.811 412.374C138.311 412.903 138.923 413.317 139.603 413.586C140.284 413.854 141.016 413.971 141.747 413.926C142.577 413.919 143.395 413.734 144.146 413.385C144.897 413.035 145.562 412.529 146.096 411.901C147.646 409.876 148.732 407.543 149.279 405.061L150.955 405.47C150.52 408.395 149.393 411.177 147.666 413.59C146.022 415.794 143.508 416.906 140.103 416.916C138.511 416.961 136.924 416.731 135.414 416.234C134.205 415.776 133.098 415.088 132.157 414.209C130.92 412.939 130.036 411.374 129.59 409.667C129.051 407.363 128.808 405.002 128.868 402.638L128.794 374.921H120.764V373.263H128.794V360.611C130.194 360.559 131.531 360.433 132.815 360.265C133.998 360.104 135.161 359.819 136.284 359.415Z" fill="#B82529"/>
<path d="M168.083 413.589C169.85 413.566 171.576 413.054 173.062 412.113C174.959 410.873 176.524 409.202 177.623 407.241V390.939C176.634 392.273 175.268 393.292 173.695 393.871C171.925 394.588 170.089 395.389 168.201 396.254C166.356 397.085 164.705 398.281 163.35 399.765C161.888 401.548 161.167 403.808 161.332 406.092C161.332 408.654 161.998 410.542 163.307 411.786C163.941 412.384 164.69 412.851 165.51 413.161C166.33 413.471 167.205 413.616 168.083 413.589ZM164.369 416.922C160.706 416.922 158.038 416.029 156.364 414.243C154.619 412.25 153.717 409.677 153.842 407.052C153.758 404.99 154.361 402.958 155.559 401.263C156.746 399.714 158.257 398.434 159.991 397.509C161.821 396.52 163.73 395.68 165.7 394.999C167.707 394.303 169.607 393.607 171.409 392.943C172.985 392.394 174.476 391.634 175.842 390.686C176.376 390.343 176.815 389.873 177.119 389.321C177.422 388.769 177.581 388.151 177.58 387.523V382.366C177.678 380.548 177.309 378.735 176.507 377.094C175.906 375.96 174.896 375.087 173.674 374.648C172.392 374.223 171.045 374.016 169.692 374.036C168.168 374.052 166.65 374.25 165.174 374.627C163.644 374.961 162.283 375.816 161.332 377.041C162.424 377.274 163.405 377.856 164.123 378.697C164.93 379.655 165.354 380.87 165.314 382.113C165.347 382.724 165.244 383.335 165.012 383.903C164.78 384.472 164.426 384.983 163.972 385.403C163.015 386.224 161.775 386.654 160.506 386.605C159.825 386.665 159.139 386.556 158.511 386.289C157.883 386.022 157.333 385.605 156.911 385.076C156.148 384.084 155.741 382.872 155.752 381.628C155.69 380.378 156.069 379.145 156.825 378.138C157.632 377.182 158.567 376.337 159.605 375.628C161.161 374.628 162.856 373.854 164.638 373.33C166.9 372.661 169.252 372.334 171.613 372.359C173.616 372.315 175.615 372.575 177.537 373.129C179.051 373.584 180.443 374.361 181.615 375.407C183.06 376.7 184.067 378.396 184.502 380.268C184.995 382.52 185.232 384.819 185.21 387.122L185.275 410.236C185.206 411.255 185.414 412.274 185.876 413.189C186.09 413.518 186.393 413.781 186.751 413.951C187.11 414.12 187.509 414.189 187.904 414.148C188.628 414.165 189.343 413.99 189.975 413.642C190.596 413.287 191.175 412.867 191.703 412.387L192.647 413.79C191.576 414.606 190.446 415.346 189.267 416.004C187.933 416.644 186.458 416.948 184.974 416.89C182.034 416.89 180.088 416.148 179.136 414.665C178.156 413.119 177.65 411.329 177.677 409.509C176.3 412.048 174.166 414.112 171.56 415.424C169.302 416.431 166.848 416.942 164.369 416.922Z" fill="#B82529"/>
<path d="M224.88 370.924C226.667 370.867 228.449 371.149 230.134 371.757C231.469 372.263 232.675 373.066 233.665 374.107C234.752 375.294 235.525 376.742 235.914 378.315C236.416 380.553 236.645 382.845 236.597 385.14L236.66 407.57C236.66 409.93 237.154 411.532 238.12 412.355C239.087 413.177 240.695 413.615 242.965 413.604V415.377C242.03 415.377 240.59 415.249 238.656 415.174C236.723 415.1 234.852 415.057 233.024 415.057C231.195 415.057 229.42 415.121 227.675 415.196C225.931 415.271 224.617 415.367 223.745 415.42V413.658C225.742 413.658 227.15 413.23 227.948 412.387C228.747 411.543 229.188 409.941 229.178 407.58L229.104 383.239C229.12 381.626 228.975 380.016 228.674 378.432C228.45 377.077 227.793 375.834 226.803 374.897C225.537 373.913 223.958 373.438 222.369 373.562C220.715 373.537 219.081 373.93 217.614 374.705C216.146 375.481 214.891 376.615 213.962 378.005C211.772 381.199 210.665 385.031 210.809 388.921V407.623C210.809 409.984 211.23 411.586 212.06 412.419C212.89 413.252 214.298 413.679 216.263 413.668V415.431L212.333 415.228C210.599 415.153 208.813 415.121 206.995 415.121C205.177 415.121 203.296 415.121 201.352 415.26L197.044 415.484V413.722C199.303 413.722 200.921 413.295 201.898 412.451C202.876 411.607 203.338 410.005 203.338 407.644L203.275 381.284C203.411 379.322 202.94 377.365 201.93 375.687C201.047 374.484 199.39 373.882 196.959 373.882V372.12C198.667 372.286 200.382 372.365 202.098 372.355C203.634 372.361 205.168 372.261 206.69 372.056C208.056 371.877 209.403 371.573 210.715 371.148V381.092C212.144 377.268 214.13 374.609 216.705 373.113C219.194 371.668 222.013 370.913 224.88 370.924Z" fill="#B82529"/>
<path d="M261.361 359.415V373.234H273.74V374.892H261.361L261.445 406.916C261.445 409.508 261.923 411.323 262.888 412.373C263.387 412.904 263.999 413.32 264.679 413.59C265.359 413.86 266.092 413.978 266.824 413.936C267.655 413.931 268.475 413.745 269.226 413.394C269.977 413.042 270.642 412.533 271.173 411.9C272.717 409.875 273.802 407.546 274.356 405.07L276.032 405.479C275.595 408.4 274.468 411.179 272.743 413.59C271.099 415.804 268.585 416.906 265.179 416.916C263.588 416.961 262.001 416.73 260.491 416.234C259.28 415.78 258.173 415.091 257.234 414.209C255.995 412.94 255.11 411.374 254.667 409.666C254.127 407.362 253.885 404.999 253.945 402.635L253.871 374.924H245.841V373.266H253.871V360.601C255.271 360.548 256.597 360.433 257.892 360.265C259.076 360.108 260.239 359.823 261.361 359.415Z" fill="#B82529"/>
<path d="M294.072 413.486C295.774 413.466 297.437 412.942 298.869 411.975C300.694 410.69 302.2 408.964 303.262 406.941L303.21 390.145C302.259 391.514 300.947 392.561 299.437 393.156C297.732 393.895 295.964 394.722 294.145 395.613C292.37 396.474 290.78 397.706 289.472 399.233C288.069 401.074 287.375 403.403 287.529 405.756C287.529 408.387 288.17 410.334 289.431 411.616C290.048 412.236 290.776 412.721 291.573 413.042C292.37 413.363 293.219 413.514 294.072 413.486ZM290.496 416.922C286.971 416.922 284.397 416.019 282.784 414.16C281.106 412.109 280.236 409.46 280.355 406.757C280.268 404.63 280.849 402.532 282.009 400.788C283.147 399.186 284.604 397.865 286.278 396.918C288.043 395.906 289.882 395.045 291.778 394.341C293.714 393.616 295.547 392.913 297.277 392.232C298.793 391.661 300.228 390.878 301.546 389.905C302.059 389.55 302.48 389.065 302.77 388.496C303.061 387.927 303.212 387.29 303.21 386.644V381.295C303.311 379.402 302.956 377.514 302.177 375.805C301.598 374.635 300.625 373.736 299.448 373.282C298.214 372.84 296.916 372.626 295.613 372.652C294.144 372.668 292.682 372.873 291.261 373.261C289.785 373.616 288.473 374.5 287.55 375.761C288.607 375.993 289.558 376.595 290.248 377.468C291.027 378.45 291.436 379.701 291.395 380.98C291.427 381.61 291.327 382.239 291.104 382.825C290.881 383.411 290.539 383.939 290.103 384.372C289.185 385.225 287.989 385.673 286.764 385.622C286.107 385.682 285.446 385.568 284.841 385.291C284.236 385.013 283.707 384.582 283.301 384.035C282.567 383.015 282.174 381.769 282.185 380.49C282.125 379.198 282.49 377.923 283.218 376.881C283.999 375.901 284.899 375.035 285.896 374.304C287.391 373.265 289.025 372.466 290.744 371.934C292.922 371.241 295.188 370.9 297.463 370.923C299.394 370.87 301.32 371.141 303.169 371.728C304.63 372.189 305.973 372.992 307.097 374.076C308.49 375.403 309.461 377.149 309.878 379.077C310.353 381.399 310.581 383.769 310.56 386.144L310.622 409.986C310.558 411.036 310.757 412.086 311.201 413.03C311.409 413.367 311.702 413.637 312.046 413.809C312.391 413.982 312.775 414.051 313.155 414.008C313.851 414.029 314.54 413.853 315.15 413.497C315.746 413.128 316.303 412.694 316.814 412.203L317.724 413.66C316.691 414.499 315.603 415.258 314.467 415.932C313.183 416.596 311.762 416.914 310.333 416.857C307.5 416.857 305.626 416.088 304.709 414.552C303.765 412.958 303.277 411.113 303.303 409.235C301.978 411.856 299.922 413.988 297.411 415.345C295.239 416.383 292.881 416.921 290.496 416.922Z" fill="#B82529"/>
<path d="M337.493 370.925C339.436 370.854 341.371 371.22 343.159 372C344.377 372.523 345.524 373.202 346.573 374.02C348.413 375.545 349.533 374.525 349.903 370.968H351.827C351.711 372.548 351.637 374.428 351.584 376.609C351.531 378.79 351.521 381.702 351.584 385.376H349.671C349.334 383.284 348.755 381.239 347.948 379.284C347.188 377.385 345.966 375.714 344.396 374.428C342.641 373.096 340.484 372.427 338.296 372.537C336.528 372.482 334.799 373.073 333.423 374.202C332.755 374.812 332.233 375.568 331.896 376.413C331.559 377.258 331.416 378.17 331.477 379.08C331.443 380.673 331.98 382.223 332.989 383.442C334.12 384.767 335.447 385.906 336.922 386.816L342.207 390.233C345.089 392.089 347.8 394.207 350.305 396.561C351.423 397.65 352.3 398.968 352.878 400.427C353.455 401.887 353.721 403.455 353.656 405.027C353.745 407.371 353.044 409.676 351.669 411.56C350.319 413.337 348.527 414.717 346.478 415.556C344.243 416.48 341.85 416.944 339.438 416.921C338.276 416.93 337.116 416.836 335.97 416.642C334.887 416.456 333.825 416.161 332.799 415.761C332.212 415.453 331.64 415.116 331.086 414.751C330.505 414.353 329.923 413.934 329.363 413.483C329.27 413.374 329.155 413.286 329.025 413.226C328.896 413.166 328.755 413.135 328.612 413.135C328.47 413.135 328.329 413.166 328.2 413.226C328.071 413.286 327.955 413.374 327.862 413.483C327.285 414.323 326.945 415.308 326.879 416.33H324.912C325.018 414.514 325.103 412.322 325.145 409.712C325.187 407.101 325.219 403.673 325.208 399.387H327.122C327.445 402.197 328.011 404.972 328.813 407.681C329.4 409.828 330.595 411.752 332.249 413.214C334.116 414.637 336.422 415.334 338.751 415.18C340.547 415.132 342.282 414.508 343.709 413.397C345.337 412.201 346.147 410.109 346.14 407.122C346.169 405.967 345.943 404.821 345.478 403.766C345.014 402.712 344.322 401.777 343.455 401.03C341.329 399.203 339.071 397.54 336.7 396.056C334.691 394.767 332.813 393.47 331.065 392.166C329.419 390.962 327.989 389.479 326.836 387.783C325.754 385.943 325.187 383.837 325.198 381.693C325.209 379.549 325.798 377.449 326.9 375.621C328.036 374.01 329.608 372.771 331.425 372.053C333.356 371.281 335.417 370.898 337.493 370.925Z" fill="#B82529"/>
<path d="M41.1863 449.121L40.2053 63.7274H35.9399L36.921 449.121H41.1863ZM397.526 445.785L39.043 446.847V451.426L397.526 450.364V445.785ZM394.423 62.6862L395.404 448.09H399.669L398.688 62.6969L394.423 62.6862ZM38.0833 66.0222L396.566 64.9598V60.3915L38.0833 61.4539V66.0222ZM39.0537 449.121H36.921V451.415H39.0537V449.121ZM397.537 448.058V450.353H399.669V448.058H397.537ZM396.556 62.6862H398.688V60.3809H396.556V62.6862ZM38.0726 63.7486V61.4326H35.9399V63.7274L38.0726 63.7486Z" fill="#B82529"/>
<path d="M267.125 492.112C269.065 492.112 270.281 491.568 270.775 490.481C270.955 490.051 271.048 489.592 271.05 489.128C271.076 488.667 271.019 488.206 270.881 487.764C270.762 487.394 270.543 487.061 270.246 486.8C269.414 486.19 268.374 485.908 267.336 486.011H265.008V492.112H267.125ZM267.992 493.444C267.802 493.444 267.506 493.444 267.125 493.444H265.008V498.571H263.4V484.647H267.336C270.204 484.647 271.918 485.488 272.468 487.282C272.654 487.884 272.739 488.51 272.722 489.138C272.716 490.076 272.438 490.993 271.918 491.783C271.364 492.5 270.572 493.011 269.675 493.229L270.066 493.844C270.257 494.131 270.479 494.46 270.744 494.818L273.156 497.894L271.495 498.868C271.177 498.315 270.839 497.761 270.437 497.197L268.659 494.501C268.468 494.162 268.236 493.814 267.992 493.475V493.444ZM245.517 491.701C245.5 492.54 245.614 493.377 245.855 494.183C246.049 494.845 246.392 495.458 246.86 495.977C247.331 496.467 247.909 496.848 248.552 497.093C249.195 497.338 249.886 497.44 250.575 497.392C251.263 497.42 251.95 497.302 252.586 497.045C253.223 496.788 253.793 496.399 254.257 495.905C255.245 494.679 255.725 493.14 255.601 491.589C255.545 487.809 253.827 485.915 250.448 485.908C249.766 485.873 249.085 485.992 248.459 486.255C247.833 486.518 247.278 486.919 246.839 487.426C245.891 488.667 245.423 490.191 245.517 491.732V491.701ZM243.866 491.701C243.843 490.657 244.008 489.616 244.353 488.625C244.659 487.789 245.138 487.021 245.76 486.37C246.396 485.747 247.159 485.261 248.002 484.943C248.844 484.625 249.746 484.482 250.649 484.524C251.561 484.468 252.475 484.609 253.324 484.937C254.173 485.265 254.936 485.772 255.559 486.421C256.771 487.928 257.37 489.815 257.241 491.722C257.299 492.675 257.161 493.629 256.836 494.53C256.511 495.431 256.005 496.261 255.347 496.972C254.71 497.597 253.945 498.086 253.102 498.408C252.258 498.729 251.354 498.876 250.448 498.838C249.554 498.882 248.66 498.739 247.829 498.417C246.998 498.094 246.249 497.601 245.633 496.972C244.376 495.503 243.744 493.626 243.866 491.722V491.701ZM229.051 497.218H231.856C232.569 497.262 233.284 497.158 233.952 496.912C234.62 496.667 235.226 496.285 235.728 495.792C236.652 494.742 237.122 493.387 237.041 492.009V491.64C237.136 490.147 236.703 488.668 235.813 487.446C235.306 486.947 234.691 486.562 234.012 486.321C233.333 486.08 232.607 485.988 231.887 486.052H229.051V497.218ZM227.443 498.633V484.647H231.93C235.474 484.647 237.623 486.021 238.363 488.749C238.598 489.702 238.711 490.68 238.702 491.66V492.03C238.801 492.924 238.691 493.828 238.382 494.676C238.073 495.523 237.571 496.293 236.914 496.929C236.258 497.564 235.462 498.049 234.587 498.347C233.711 498.646 232.778 498.75 231.856 498.653L227.443 498.633ZM218.237 493.506L216.755 489.733C216.544 489.189 216.364 488.707 216.226 488.318L215.814 487.108C215.687 486.698 215.538 486.277 215.38 485.826C215.232 486.223 215.094 486.623 214.967 487.026L214.544 488.308L212.554 493.485L218.237 493.506ZM214.343 484.668H216.406L222.11 498.674H220.268L218.776 494.788H211.972L210.491 498.674H208.65L214.343 484.668ZM198.47 492.163C200.403 492.163 201.62 491.619 202.121 490.533C202.3 490.102 202.394 489.643 202.396 489.179C202.427 488.718 202.369 488.256 202.227 487.815C202.116 487.444 201.9 487.109 201.602 486.852C200.766 486.242 199.723 485.96 198.682 486.062H196.364V492.112L198.47 492.163ZM199.338 493.496C199.049 493.51 198.759 493.51 198.47 493.496H196.354V498.622H194.745V484.647H198.671C201.539 484.647 203.253 485.488 203.814 487.282C203.99 487.886 204.072 488.511 204.057 489.138C204.057 490.076 203.777 490.995 203.253 491.783C202.701 492.503 201.908 493.014 201.01 493.229L201.401 493.844C201.592 494.131 201.814 494.46 202.078 494.818L204.491 497.894L202.83 498.868C202.512 498.315 202.174 497.761 201.772 497.197L199.983 494.501C199.856 494.162 199.571 493.814 199.327 493.475L199.338 493.496ZM182.925 497.3C183.913 497.382 184.906 497.223 185.814 496.838C186.171 496.645 186.466 496.36 186.666 496.014C186.866 495.668 186.963 495.276 186.946 494.88C187.028 494.408 186.95 493.923 186.725 493.496C186.5 493.07 186.14 492.725 185.698 492.511C185.201 492.311 184.669 492.207 184.132 492.204H182.746H180.545V497.33L182.925 497.3ZM182.925 490.891C185.042 490.943 186.1 490.051 186.015 488.205C186.038 487.665 185.84 487.137 185.463 486.738C185.087 486.338 184.562 486.099 184.005 486.072C183.503 486.007 182.998 485.976 182.492 485.98H180.502V490.891H182.925ZM178.915 484.647H182.492C183.785 484.56 185.079 484.811 186.238 485.375C186.713 485.684 187.098 486.107 187.354 486.603C187.61 487.099 187.728 487.651 187.698 488.205C187.744 488.724 187.65 489.245 187.425 489.717C187.201 490.19 186.854 490.598 186.417 490.902C186.152 491.084 185.859 491.226 185.55 491.322C186.319 491.347 187.052 491.643 187.613 492.153C187.957 492.482 188.222 492.88 188.388 493.32C188.555 493.759 188.619 494.229 188.576 494.695C188.611 495.282 188.499 495.867 188.251 496.403C188.002 496.938 187.623 497.408 187.148 497.771C185.864 498.482 184.388 498.797 182.915 498.674H178.947L178.915 484.647ZM161.243 491.732C161.223 492.571 161.334 493.407 161.571 494.213C161.774 494.873 162.116 495.484 162.577 496.008C163.05 496.498 163.629 496.879 164.274 497.124C164.918 497.368 165.611 497.471 166.301 497.423C166.99 497.451 167.677 497.333 168.313 497.076C168.949 496.819 169.52 496.43 169.984 495.936C170.976 494.712 171.452 493.17 171.317 491.619C171.317 487.836 169.55 485.939 166.174 485.939C165.493 485.904 164.812 486.022 164.186 486.286C163.559 486.549 163.005 486.95 162.566 487.457C161.644 488.696 161.195 490.207 161.296 491.732H161.243ZM159.582 491.732C159.563 490.687 159.731 489.646 160.079 488.656C160.386 487.82 160.865 487.052 161.487 486.401C162.117 485.767 162.878 485.27 163.721 484.943C164.564 484.616 165.469 484.467 166.376 484.504C167.288 484.448 168.202 484.589 169.051 484.917C169.9 485.245 170.663 485.752 171.285 486.401C172.498 487.908 173.097 489.794 172.968 491.701C173.078 493.625 172.397 495.513 171.074 496.951C170.436 497.576 169.671 498.064 168.828 498.385C167.984 498.707 167.08 498.854 166.174 498.817C165.279 498.861 164.384 498.717 163.551 498.395C162.718 498.073 161.967 497.581 161.349 496.951C160.125 495.477 159.517 493.61 159.646 491.722L159.582 491.732Z" fill="#B82529"/>
<path d="M443.935 9.91204e-05L0 1.23779L1.51255 542L445.447 540.762L443.935 9.91204e-05Z" fill="#E4E1D9"/>
<path d="M103.511 293.282C103.297 295.443 103.148 297.533 103.062 299.55C102.987 301.56 102.955 303.106 102.955 304.187C102.955 305.559 102.955 306.834 103.041 308.023C103.126 309.212 103.169 310.271 103.222 311.179H101.289C101.022 307.999 100.478 304.849 99.665 301.766C99.1639 299.703 97.8877 297.92 96.1076 296.794C94.4197 295.778 91.8344 295.26 88.277 295.281H83.726L83.8649 343.775C83.8014 345.503 84.0179 347.23 84.5059 348.887C84.708 349.442 85.0399 349.939 85.4734 350.336C85.9069 350.734 86.4289 351.019 86.995 351.167C88.7382 351.639 90.5321 351.893 92.3365 351.924V353.631C90.8729 353.512 89.0248 353.458 86.7813 353.437C84.5379 353.415 82.2518 353.437 79.9656 353.437C77.4231 353.437 75.0622 353.437 72.8508 353.437C70.6394 353.437 68.8447 353.556 67.5093 353.664V351.999C69.3327 351.969 71.1451 351.708 72.9042 351.221C73.4698 351.064 73.9899 350.772 74.4211 350.369C74.8523 349.967 75.182 349.466 75.3826 348.908C75.8661 347.251 76.0754 345.523 76.0023 343.796L75.8634 295.303H71.3765C67.9046 295.303 65.2979 295.822 63.5887 296.859C61.791 297.985 60.4992 299.777 59.9885 301.852C59.1899 304.937 58.6643 308.087 58.4181 311.266H56.4845C56.6043 310.218 56.672 309.164 56.6875 308.11C56.6875 306.91 56.6875 305.635 56.6875 304.273C56.6875 303.192 56.6875 301.647 56.5486 299.626C56.4097 297.605 56.3029 295.53 56.0679 293.368L63.781 293.509C66.5585 293.559 69.3503 293.584 72.1564 293.584H79.8267H87.4437C90.2213 293.584 93.0166 293.548 95.8298 293.476C98.6501 293.411 101.203 293.336 103.511 293.282Z" fill="#B82529"/>
<path d="M124.027 350.23C125.861 350.21 127.652 349.687 129.196 348.72C131.161 347.442 132.782 345.72 133.921 343.699V326.899C132.903 328.273 131.491 329.32 129.863 329.909C128.018 330.659 126.128 331.485 124.171 332.376C122.261 333.233 120.55 334.465 119.147 335.995C117.627 337.829 116.88 340.161 117.057 342.515C117.057 345.145 117.735 347.09 119.102 348.372C119.758 348.984 120.53 349.462 121.375 349.781C122.22 350.1 123.121 350.253 124.027 350.23ZM120.181 353.664C116.379 353.664 113.622 352.752 111.887 350.904C110.08 348.855 109.145 346.207 109.275 343.504C109.183 341.378 109.808 339.282 111.054 337.538C112.284 335.942 113.849 334.623 115.645 333.669C117.54 332.65 119.518 331.785 121.559 331.083C123.638 330.355 125.606 329.659 127.473 328.964C129.105 328.398 130.65 327.615 132.064 326.638C132.617 326.284 133.07 325.799 133.382 325.23C133.695 324.661 133.857 324.024 133.854 323.378V318.064C133.962 316.173 133.579 314.285 132.742 312.576C132.117 311.41 131.071 310.512 129.808 310.055C128.48 309.616 127.084 309.407 125.683 309.436C124.105 309.454 122.534 309.654 121.003 310.033C119.416 310.389 118.006 311.272 117.012 312.533C118.146 312.772 119.167 313.372 119.914 314.239C120.75 315.222 121.189 316.471 121.148 317.749C121.182 318.379 121.075 319.008 120.835 319.594C120.595 320.179 120.227 320.707 119.758 321.14C118.768 321.996 117.477 322.443 116.156 322.389C115.451 322.448 114.741 322.335 114.091 322.06C113.441 321.785 112.871 321.357 112.432 320.814C111.651 319.787 111.233 318.539 111.243 317.26C111.179 315.968 111.572 314.695 112.354 313.652C113.193 312.673 114.162 311.807 115.234 311.077C116.856 310.021 118.633 309.212 120.503 308.675C122.847 307.988 125.282 307.647 127.729 307.664C129.805 307.617 131.875 307.889 133.865 308.469C135.432 308.932 136.872 309.734 138.079 310.816C139.58 312.146 140.628 313.895 141.08 315.826C141.586 318.147 141.829 320.516 141.803 322.889L141.88 346.71C141.811 347.76 142.026 348.809 142.503 349.752C142.725 350.091 143.039 350.363 143.41 350.538C143.781 350.712 144.195 350.783 144.604 350.741C145.354 350.759 146.095 350.579 146.75 350.22C147.395 349.858 147.996 349.424 148.539 348.926L149.518 350.383C148.407 351.223 147.237 351.985 146.016 352.665C144.634 353.324 143.106 353.638 141.569 353.578C138.523 353.578 136.511 352.828 135.522 351.274C134.506 349.686 133.984 347.843 134.021 345.971C132.595 348.588 130.384 350.715 127.684 352.067C125.33 353.121 122.77 353.666 120.181 353.664Z" fill="#B82529"/>
<path d="M177.968 307.661C179.323 307.63 180.665 307.951 181.876 308.595C182.932 309.176 183.835 310.026 184.502 311.066C185.176 312.155 185.509 313.439 185.455 314.737C185.4 316.035 184.962 317.283 184.2 318.305C183.794 318.843 183.275 319.274 182.683 319.562C182.091 319.85 181.443 319.988 180.792 319.964C179.677 319.978 178.596 319.564 177.749 318.8C177.308 318.39 176.96 317.881 176.731 317.311C176.502 316.74 176.397 316.123 176.425 315.504C176.399 314.488 176.7 313.493 177.28 312.681C177.811 311.941 178.464 311.309 179.208 310.814C179.012 310.528 178.751 310.299 178.448 310.149C178.145 309.999 177.812 309.933 177.478 309.957C176.354 309.957 175.242 310.201 174.211 310.673C173.18 311.145 172.252 311.836 171.486 312.703C169.756 314.595 168.409 316.837 167.526 319.294C166.631 321.52 166.15 323.907 166.108 326.324V344.69C166.108 347.524 166.893 349.413 168.464 350.358C170.434 351.404 172.628 351.892 174.831 351.775V353.588C173.57 353.533 171.798 353.456 169.485 353.39C167.171 353.324 164.743 353.28 162.19 353.291C160.325 353.291 158.48 353.346 156.646 353.434L152.477 353.664V351.852C154.718 351.852 156.323 351.413 157.292 350.545C158.261 349.677 158.72 348.029 158.72 345.602L158.657 318.492C158.792 316.474 158.325 314.462 157.323 312.736C156.448 311.498 154.805 310.88 152.394 310.88V308.979C154.088 309.15 155.789 309.231 157.49 309.221C159.013 309.228 160.534 309.125 162.044 308.913C163.398 308.729 164.734 308.417 166.035 307.98V318.822C166.694 317.022 167.558 315.314 168.609 313.736C169.708 312.058 171.085 310.603 172.674 309.441C174.204 308.248 176.065 307.623 177.968 307.661Z" fill="#B82529"/>
<path d="M205.265 294.719V309.218H217.65V310.958H205.265L205.35 344.559C205.35 347.278 205.828 349.183 206.794 350.284C207.293 350.841 207.905 351.277 208.585 351.561C209.266 351.844 209.998 351.968 210.731 351.924C211.562 351.927 212.384 351.741 213.14 351.38C213.895 351.018 214.565 350.49 215.103 349.832C216.647 347.707 217.733 345.263 218.286 342.665L219.963 343.094C219.526 346.16 218.399 349.075 216.673 351.605C215.028 353.928 212.513 355.084 209.118 355.095C207.526 355.143 205.938 354.901 204.427 354.379C203.216 353.903 202.108 353.18 201.169 352.254C199.93 350.923 199.045 349.28 198.601 347.487C198.062 345.07 197.82 342.591 197.879 340.111L197.805 311.035H189.772V309.295H197.805V296.007C199.206 296.007 200.532 295.831 201.827 295.655C203 295.463 204.152 295.149 205.265 294.719Z" fill="#B82529"/>
<path d="M237.094 350.262C238.864 350.238 240.593 349.714 242.085 348.748C243.981 347.461 245.545 345.733 246.648 343.708L246.594 326.89C245.606 328.261 244.244 329.309 242.676 329.905C240.894 330.645 239.069 331.473 237.18 332.365C235.337 333.228 233.686 334.461 232.328 335.99C230.866 337.831 230.145 340.164 230.31 342.522C230.31 345.156 230.964 347.105 232.285 348.389C232.921 349.013 233.675 349.501 234.501 349.822C235.327 350.144 236.209 350.294 237.094 350.262ZM233.38 353.658C229.719 353.658 227.046 352.754 225.372 350.893C223.627 348.836 222.724 346.179 222.849 343.469C222.76 341.343 223.364 339.247 224.567 337.503C225.751 335.899 227.263 334.573 229 333.617C230.835 332.605 232.744 331.739 234.711 331.026C236.722 330.301 238.625 329.593 240.422 328.904C241.997 328.34 243.489 327.56 244.855 326.585C245.387 326.228 245.824 325.743 246.125 325.173C246.427 324.603 246.584 323.966 246.583 323.319V317.996C246.68 316.119 246.311 314.248 245.51 312.553C244.909 311.382 243.898 310.482 242.676 310.028C241.395 309.584 240.047 309.371 238.693 309.396C237.168 309.413 235.651 309.618 234.174 310.006C232.642 310.362 231.28 311.247 230.32 312.51C231.418 312.742 232.406 313.344 233.122 314.219C233.932 315.203 234.356 316.454 234.314 317.735C234.346 318.366 234.243 318.996 234.012 319.583C233.78 320.169 233.425 320.698 232.972 321.131C232.018 321.986 230.776 322.435 229.505 322.383C228.822 322.443 228.136 322.329 227.508 322.051C226.879 321.774 226.33 321.342 225.908 320.794C225.146 319.773 224.738 318.525 224.749 317.245C224.687 315.951 225.066 314.675 225.823 313.631C226.633 312.65 227.568 311.783 228.603 311.051C230.155 310.01 231.852 309.21 233.637 308.678C235.899 307.984 238.252 307.643 240.615 307.666C242.62 307.613 244.62 307.885 246.54 308.471C248.057 308.934 249.452 309.737 250.619 310.822C252.063 312.154 253.07 313.901 253.507 315.83C253.995 318.156 254.232 320.528 254.216 322.906L254.28 346.778C254.213 347.83 254.421 348.881 254.881 349.826C255.097 350.164 255.401 350.434 255.759 350.607C256.117 350.78 256.516 350.849 256.91 350.806C257.633 350.827 258.349 350.65 258.982 350.294C259.6 349.924 260.18 349.49 260.71 348.999L261.655 350.458C260.584 351.3 259.454 352.06 258.273 352.733C256.94 353.397 255.464 353.715 253.979 353.658C251.038 353.658 249.092 352.889 248.14 351.35C247.158 349.756 246.655 347.906 246.691 346.027C245.317 348.653 243.181 350.789 240.572 352.145C238.304 353.15 235.855 353.666 233.38 353.658Z" fill="#B82529"/>
<path d="M98.1993 416.993L95.2691 424.484C94.5244 426.748 93.2539 428.807 91.5597 430.496C90.6319 431.352 89.4985 431.958 88.2674 432.257C87.1389 432.555 85.978 432.715 84.8104 432.735C83.7833 432.753 82.7647 432.549 81.8253 432.137C80.9581 431.773 80.2179 431.164 79.6962 430.387C79.1565 429.559 78.8811 428.589 78.9061 427.604C78.8798 427.008 78.9729 426.413 79.1801 425.854C79.3873 425.294 79.7045 424.78 80.1133 424.343C80.5539 423.91 81.0819 423.575 81.6626 423.36C82.2434 423.144 82.8636 423.053 83.4825 423.092C84.6133 423.062 85.7194 423.423 86.6102 424.114C87.0508 424.477 87.3987 424.938 87.6256 425.46C87.8525 425.981 87.9521 426.548 87.9162 427.115C87.9484 427.966 87.7105 428.807 87.2357 429.517C86.804 430.122 86.2416 430.623 85.5896 430.985C85.6852 431.032 85.7901 431.058 85.8969 431.061H86.1163C87.6513 431.067 89.1321 430.5 90.2647 429.474C91.7059 428.032 92.7979 426.285 93.4583 424.364L96.5531 416.385L98.1993 416.993ZM117.888 372.354V374.072C116.742 374.215 115.676 374.731 114.859 375.54C113.666 376.844 112.785 378.397 112.28 380.084L98.1774 416.993H96.7178L80.6839 379.051C79.5865 376.834 78.489 375.478 77.3916 374.985C76.5723 374.571 75.6759 374.326 74.7577 374.268V372.474C76.0307 372.637 77.3587 372.768 78.7414 372.844C80.1242 372.92 81.6278 372.974 83.23 372.963C85.0299 372.963 86.9065 372.898 88.9039 372.779C90.9013 372.659 92.745 372.539 94.4789 372.42V374.224C93.1919 374.21 91.9062 374.312 90.6379 374.529C90.1402 374.582 89.6708 374.784 89.2923 375.109C88.9138 375.433 88.6443 375.864 88.5198 376.344C88.2344 377.334 88.5198 379.041 89.6172 381.443L100.328 407.535L99.8126 407.698L109.624 382.15C110.721 379.291 110.831 377.29 109.953 376.149C109.075 375.007 107.122 374.322 104.071 374.105V372.387L107.835 372.55C108.845 372.55 110.03 372.626 111.336 372.626C112.642 372.626 113.86 372.626 114.936 372.539L117.888 372.354Z" fill="#B82529"/>
<path d="M136.284 359.415V373.232H148.663V374.889H136.284L136.368 406.908C136.368 409.509 136.846 411.324 137.811 412.374C138.311 412.903 138.923 413.317 139.603 413.586C140.284 413.854 141.016 413.971 141.747 413.926C142.577 413.919 143.395 413.734 144.146 413.385C144.897 413.035 145.562 412.529 146.096 411.901C147.646 409.876 148.732 407.543 149.279 405.061L150.955 405.47C150.52 408.395 149.393 411.177 147.666 413.59C146.022 415.794 143.508 416.906 140.103 416.916C138.511 416.961 136.924 416.731 135.414 416.234C134.205 415.776 133.098 415.088 132.157 414.209C130.92 412.939 130.036 411.374 129.59 409.667C129.051 407.363 128.808 405.002 128.868 402.638L128.794 374.921H120.764V373.263H128.794V360.611C130.194 360.559 131.531 360.433 132.815 360.265C133.998 360.104 135.161 359.819 136.284 359.415Z" fill="#B82529"/>
<path d="M168.083 413.589C169.85 413.566 171.576 413.054 173.062 412.113C174.959 410.873 176.524 409.202 177.623 407.241V390.939C176.634 392.273 175.268 393.292 173.695 393.871C171.925 394.588 170.089 395.389 168.201 396.254C166.356 397.085 164.705 398.281 163.35 399.765C161.888 401.548 161.167 403.808 161.332 406.092C161.332 408.654 161.998 410.542 163.307 411.786C163.941 412.384 164.69 412.851 165.51 413.161C166.33 413.471 167.205 413.616 168.083 413.589ZM164.369 416.922C160.706 416.922 158.038 416.029 156.364 414.243C154.619 412.25 153.717 409.677 153.842 407.052C153.758 404.99 154.361 402.958 155.559 401.263C156.746 399.714 158.257 398.434 159.991 397.509C161.821 396.52 163.73 395.68 165.7 394.999C167.707 394.303 169.607 393.607 171.409 392.943C172.985 392.394 174.476 391.634 175.842 390.686C176.376 390.343 176.815 389.873 177.119 389.321C177.422 388.769 177.581 388.151 177.58 387.523V382.366C177.678 380.548 177.309 378.735 176.507 377.094C175.906 375.96 174.896 375.087 173.674 374.648C172.392 374.223 171.045 374.016 169.692 374.036C168.168 374.052 166.65 374.25 165.174 374.627C163.644 374.961 162.283 375.816 161.332 377.041C162.424 377.274 163.405 377.856 164.123 378.697C164.93 379.655 165.354 380.87 165.314 382.113C165.347 382.724 165.244 383.335 165.012 383.903C164.78 384.472 164.426 384.983 163.972 385.403C163.015 386.224 161.775 386.654 160.506 386.605C159.825 386.665 159.139 386.556 158.511 386.289C157.883 386.022 157.333 385.605 156.911 385.076C156.148 384.084 155.741 382.872 155.752 381.628C155.69 380.378 156.069 379.145 156.825 378.138C157.632 377.182 158.567 376.337 159.605 375.628C161.161 374.628 162.856 373.854 164.638 373.33C166.9 372.661 169.252 372.334 171.613 372.359C173.616 372.315 175.615 372.575 177.537 373.129C179.051 373.584 180.443 374.361 181.615 375.407C183.06 376.7 184.067 378.396 184.502 380.268C184.995 382.52 185.232 384.819 185.21 387.122L185.275 410.236C185.206 411.255 185.414 412.274 185.876 413.189C186.09 413.518 186.393 413.781 186.751 413.951C187.11 414.12 187.509 414.189 187.904 414.148C188.628 414.165 189.343 413.99 189.975 413.642C190.596 413.287 191.175 412.867 191.703 412.387L192.647 413.79C191.576 414.606 190.446 415.346 189.267 416.004C187.933 416.644 186.458 416.948 184.974 416.89C182.034 416.89 180.088 416.148 179.136 414.665C178.156 413.119 177.65 411.329 177.677 409.509C176.3 412.048 174.166 414.112 171.56 415.424C169.302 416.431 166.848 416.942 164.369 416.922Z" fill="#B82529"/>
<path d="M224.88 370.924C226.667 370.867 228.449 371.149 230.134 371.757C231.469 372.263 232.675 373.066 233.665 374.107C234.752 375.294 235.525 376.742 235.914 378.315C236.416 380.553 236.645 382.845 236.597 385.14L236.66 407.57C236.66 409.93 237.154 411.532 238.12 412.355C239.087 413.177 240.695 413.615 242.965 413.604V415.377C242.03 415.377 240.59 415.249 238.656 415.174C236.723 415.1 234.852 415.057 233.024 415.057C231.195 415.057 229.42 415.121 227.675 415.196C225.931 415.271 224.617 415.367 223.745 415.42V413.658C225.742 413.658 227.15 413.23 227.948 412.387C228.747 411.543 229.188 409.941 229.178 407.58L229.104 383.239C229.12 381.626 228.975 380.016 228.674 378.432C228.45 377.077 227.793 375.834 226.803 374.897C225.537 373.913 223.958 373.438 222.369 373.562C220.715 373.537 219.081 373.93 217.614 374.705C216.146 375.481 214.891 376.615 213.962 378.005C211.772 381.199 210.665 385.031 210.809 388.921V407.623C210.809 409.984 211.23 411.586 212.06 412.419C212.89 413.252 214.298 413.679 216.263 413.668V415.431L212.333 415.228C210.599 415.153 208.813 415.121 206.995 415.121C205.177 415.121 203.296 415.121 201.352 415.26L197.044 415.484V413.722C199.303 413.722 200.921 413.295 201.898 412.451C202.876 411.607 203.338 410.005 203.338 407.644L203.275 381.284C203.411 379.322 202.94 377.365 201.93 375.687C201.047 374.484 199.39 373.882 196.959 373.882V372.12C198.667 372.286 200.382 372.365 202.098 372.355C203.634 372.361 205.168 372.261 206.69 372.056C208.056 371.877 209.403 371.573 210.715 371.148V381.092C212.144 377.268 214.13 374.609 216.705 373.113C219.194 371.668 222.013 370.913 224.88 370.924Z" fill="#B82529"/>
<path d="M261.361 359.415V373.234H273.74V374.892H261.361L261.445 406.916C261.445 409.508 261.923 411.323 262.888 412.373C263.387 412.904 263.999 413.32 264.679 413.59C265.359 413.86 266.092 413.978 266.824 413.936C267.655 413.931 268.475 413.745 269.226 413.394C269.977 413.042 270.642 412.533 271.173 411.9C272.717 409.875 273.802 407.546 274.356 405.07L276.032 405.479C275.595 408.4 274.468 411.179 272.743 413.59C271.099 415.804 268.585 416.906 265.179 416.916C263.588 416.961 262.001 416.73 260.491 416.234C259.28 415.78 258.173 415.091 257.234 414.209C255.995 412.94 255.11 411.374 254.667 409.666C254.127 407.362 253.885 404.999 253.945 402.635L253.871 374.924H245.841V373.266H253.871V360.601C255.271 360.548 256.597 360.433 257.892 360.265C259.076 360.108 260.239 359.823 261.361 359.415Z" fill="#B82529"/>
<path d="M294.072 413.486C295.774 413.466 297.437 412.942 298.869 411.975C300.694 410.69 302.2 408.964 303.262 406.941L303.21 390.145C302.259 391.514 300.947 392.561 299.437 393.156C297.732 393.895 295.964 394.722 294.145 395.613C292.37 396.474 290.78 397.706 289.472 399.233C288.069 401.074 287.375 403.403 287.529 405.756C287.529 408.387 288.17 410.334 289.431 411.616C290.048 412.236 290.776 412.721 291.573 413.042C292.37 413.363 293.219 413.514 294.072 413.486ZM290.496 416.922C286.971 416.922 284.397 416.019 282.784 414.16C281.106 412.109 280.236 409.46 280.355 406.757C280.268 404.63 280.849 402.532 282.009 400.788C283.147 399.186 284.604 397.865 286.278 396.918C288.043 395.906 289.882 395.045 291.778 394.341C293.714 393.616 295.547 392.913 297.277 392.232C298.793 391.661 300.228 390.878 301.546 389.905C302.059 389.55 302.48 389.065 302.77 388.496C303.061 387.927 303.212 387.29 303.21 386.644V381.295C303.311 379.402 302.956 377.514 302.177 375.805C301.598 374.635 300.625 373.736 299.448 373.282C298.214 372.84 296.916 372.626 295.613 372.652C294.144 372.668 292.682 372.873 291.261 373.261C289.785 373.616 288.473 374.5 287.55 375.761C288.607 375.993 289.558 376.595 290.248 377.468C291.027 378.45 291.436 379.701 291.395 380.98C291.427 381.61 291.327 382.239 291.104 382.825C290.881 383.411 290.539 383.939 290.103 384.372C289.185 385.225 287.989 385.673 286.764 385.622C286.107 385.682 285.446 385.568 284.841 385.291C284.236 385.013 283.707 384.582 283.301 384.035C282.567 383.015 282.174 381.769 282.185 380.49C282.125 379.198 282.49 377.923 283.218 376.881C283.999 375.901 284.899 375.035 285.896 374.304C287.391 373.265 289.025 372.466 290.744 371.934C292.922 371.241 295.188 370.9 297.463 370.923C299.394 370.87 301.32 371.141 303.169 371.728C304.63 372.189 305.973 372.992 307.097 374.076C308.49 375.403 309.461 377.149 309.878 379.077C310.353 381.399 310.581 383.769 310.56 386.144L310.622 409.986C310.558 411.036 310.757 412.086 311.201 413.03C311.409 413.367 311.702 413.637 312.046 413.809C312.391 413.982 312.775 414.051 313.155 414.008C313.851 414.029 314.54 413.853 315.15 413.497C315.746 413.128 316.303 412.694 316.814 412.203L317.724 413.66C316.691 414.499 315.603 415.258 314.467 415.932C313.183 416.596 311.762 416.914 310.333 416.857C307.5 416.857 305.626 416.088 304.709 414.552C303.765 412.958 303.277 411.113 303.303 409.235C301.978 411.856 299.922 413.988 297.411 415.345C295.239 416.383 292.881 416.921 290.496 416.922Z" fill="#B82529"/>
<path d="M337.493 370.925C339.436 370.854 341.371 371.22 343.159 372C344.377 372.523 345.524 373.202 346.573 374.02C348.413 375.545 349.533 374.525 349.903 370.968H351.827C351.711 372.548 351.637 374.428 351.584 376.609C351.531 378.79 351.521 381.702 351.584 385.376H349.671C349.334 383.284 348.755 381.239 347.948 379.284C347.188 377.385 345.966 375.714 344.396 374.428C342.641 373.096 340.484 372.427 338.296 372.537C336.528 372.482 334.799 373.073 333.423 374.202C332.755 374.812 332.233 375.568 331.896 376.413C331.559 377.258 331.416 378.17 331.477 379.08C331.443 380.673 331.98 382.223 332.989 383.442C334.12 384.767 335.447 385.906 336.922 386.816L342.207 390.233C345.089 392.089 347.8 394.207 350.305 396.561C351.423 397.65 352.3 398.968 352.878 400.427C353.455 401.887 353.721 403.455 353.656 405.027C353.745 407.371 353.044 409.676 351.669 411.56C350.319 413.337 348.527 414.717 346.478 415.556C344.243 416.48 341.85 416.944 339.438 416.921C338.276 416.93 337.116 416.836 335.97 416.642C334.887 416.456 333.825 416.161 332.799 415.761C332.212 415.453 331.64 415.116 331.086 414.751C330.505 414.353 329.923 413.934 329.363 413.483C329.27 413.374 329.155 413.286 329.025 413.226C328.896 413.166 328.755 413.135 328.612 413.135C328.47 413.135 328.329 413.166 328.2 413.226C328.071 413.286 327.955 413.374 327.862 413.483C327.285 414.323 326.945 415.308 326.879 416.33H324.912C325.018 414.514 325.103 412.322 325.145 409.712C325.187 407.101 325.219 403.673 325.208 399.387H327.122C327.445 402.197 328.011 404.972 328.813 407.681C329.4 409.828 330.595 411.752 332.249 413.214C334.116 414.637 336.422 415.334 338.751 415.18C340.547 415.132 342.282 414.508 343.709 413.397C345.337 412.201 346.147 410.109 346.14 407.122C346.169 405.967 345.943 404.821 345.478 403.766C345.014 402.712 344.322 401.777 343.455 401.03C341.329 399.203 339.071 397.54 336.7 396.056C334.691 394.767 332.813 393.47 331.065 392.166C329.419 390.962 327.989 389.479 326.836 387.783C325.754 385.943 325.187 383.837 325.198 381.693C325.209 379.549 325.798 377.449 326.9 375.621C328.036 374.01 329.608 372.771 331.425 372.053C333.356 371.281 335.417 370.898 337.493 370.925Z" fill="#B82529"/>
<path d="M41.1863 449.121L40.2053 63.7274H35.9399L36.921 449.121H41.1863ZM397.526 445.785L39.043 446.847V451.426L397.526 450.364V445.785ZM394.423 62.6862L395.404 448.09H399.669L398.688 62.6969L394.423 62.6862ZM38.0833 66.0222L396.566 64.9598V60.3915L38.0833 61.4539V66.0222ZM39.0537 449.121H36.921V451.415H39.0537V449.121ZM397.537 448.058V450.353H399.669V448.058H397.537ZM396.556 62.6862H398.688V60.3809H396.556V62.6862ZM38.0726 63.7486V61.4326H35.9399V63.7274L38.0726 63.7486Z" fill="#B82529"/>
<path d="M267.125 492.112C269.065 492.112 270.281 491.568 270.775 490.481C270.955 490.051 271.048 489.592 271.05 489.128C271.076 488.667 271.019 488.206 270.881 487.764C270.762 487.394 270.543 487.061 270.246 486.8C269.414 486.19 268.374 485.908 267.336 486.011H265.008V492.112H267.125ZM267.992 493.444C267.802 493.444 267.506 493.444 267.125 493.444H265.008V498.571H263.4V484.647H267.336C270.204 484.647 271.918 485.488 272.468 487.282C272.654 487.884 272.739 488.51 272.722 489.138C272.716 490.076 272.438 490.993 271.918 491.783C271.364 492.5 270.572 493.011 269.675 493.229L270.066 493.844C270.257 494.131 270.479 494.46 270.744 494.818L273.156 497.894L271.495 498.868C271.177 498.315 270.839 497.761 270.437 497.197L268.659 494.501C268.468 494.162 268.236 493.814 267.992 493.475V493.444ZM245.517 491.701C245.5 492.54 245.614 493.377 245.855 494.183C246.049 494.845 246.392 495.458 246.86 495.977C247.331 496.467 247.909 496.848 248.552 497.093C249.195 497.338 249.886 497.44 250.575 497.392C251.263 497.42 251.95 497.302 252.586 497.045C253.223 496.788 253.793 496.399 254.257 495.905C255.245 494.679 255.725 493.14 255.601 491.589C255.545 487.809 253.827 485.915 250.448 485.908C249.766 485.873 249.085 485.992 248.459 486.255C247.833 486.518 247.278 486.919 246.839 487.426C245.891 488.667 245.423 490.191 245.517 491.732V491.701ZM243.866 491.701C243.843 490.657 244.008 489.616 244.353 488.625C244.659 487.789 245.138 487.021 245.76 486.37C246.396 485.747 247.159 485.261 248.002 484.943C248.844 484.625 249.746 484.482 250.649 484.524C251.561 484.468 252.475 484.609 253.324 484.937C254.173 485.265 254.936 485.772 255.559 486.421C256.771 487.928 257.37 489.815 257.241 491.722C257.299 492.675 257.161 493.629 256.836 494.53C256.511 495.431 256.005 496.261 255.347 496.972C254.71 497.597 253.945 498.086 253.102 498.408C252.258 498.729 251.354 498.876 250.448 498.838C249.554 498.882 248.66 498.739 247.829 498.417C246.998 498.094 246.249 497.601 245.633 496.972C244.376 495.503 243.744 493.626 243.866 491.722V491.701ZM229.051 497.218H231.856C232.569 497.262 233.284 497.158 233.952 496.912C234.62 496.667 235.226 496.285 235.728 495.792C236.652 494.742 237.122 493.387 237.041 492.009V491.64C237.136 490.147 236.703 488.668 235.813 487.446C235.306 486.947 234.691 486.562 234.012 486.321C233.333 486.08 232.607 485.988 231.887 486.052H229.051V497.218ZM227.443 498.633V484.647H231.93C235.474 484.647 237.623 486.021 238.363 488.749C238.598 489.702 238.711 490.68 238.702 491.66V492.03C238.801 492.924 238.691 493.828 238.382 494.676C238.073 495.523 237.571 496.293 236.914 496.929C236.258 497.564 235.462 498.049 234.587 498.347C233.711 498.646 232.778 498.75 231.856 498.653L227.443 498.633ZM218.237 493.506L216.755 489.733C216.544 489.189 216.364 488.707 216.226 488.318L215.814 487.108C215.687 486.698 215.538 486.277 215.38 485.826C215.232 486.223 215.094 486.623 214.967 487.026L214.544 488.308L212.554 493.485L218.237 493.506ZM214.343 484.668H216.406L222.11 498.674H220.268L218.776 494.788H211.972L210.491 498.674H208.65L214.343 484.668ZM198.47 492.163C200.403 492.163 201.62 491.619 202.121 490.533C202.3 490.102 202.394 489.643 202.396 489.179C202.427 488.718 202.369 488.256 202.227 487.815C202.116 487.444 201.9 487.109 201.602 486.852C200.766 486.242 199.723 485.96 198.682 486.062H196.364V492.112L198.47 492.163ZM199.338 493.496C199.049 493.51 198.759 493.51 198.47 493.496H196.354V498.622H194.745V484.647H198.671C201.539 484.647 203.253 485.488 203.814 487.282C203.99 487.886 204.072 488.511 204.057 489.138C204.057 490.076 203.777 490.995 203.253 491.783C202.701 492.503 201.908 493.014 201.01 493.229L201.401 493.844C201.592 494.131 201.814 494.46 202.078 494.818L204.491 497.894L202.83 498.868C202.512 498.315 202.174 497.761 201.772 497.197L199.983 494.501C199.856 494.162 199.571 493.814 199.327 493.475L199.338 493.496ZM182.925 497.3C183.913 497.382 184.906 497.223 185.814 496.838C186.171 496.645 186.466 496.36 186.666 496.014C186.866 495.668 186.963 495.276 186.946 494.88C187.028 494.408 186.95 493.923 186.725 493.496C186.5 493.07 186.14 492.725 185.698 492.511C185.201 492.311 184.669 492.207 184.132 492.204H182.746H180.545V497.33L182.925 497.3ZM182.925 490.891C185.042 490.943 186.1 490.051 186.015 488.205C186.038 487.665 185.84 487.137 185.463 486.738C185.087 486.338 184.562 486.099 184.005 486.072C183.503 486.007 182.998 485.976 182.492 485.98H180.502V490.891H182.925ZM178.915 484.647H182.492C183.785 484.56 185.079 484.811 186.238 485.375C186.713 485.684 187.098 486.107 187.354 486.603C187.61 487.099 187.728 487.651 187.698 488.205C187.744 488.724 187.65 489.245 187.425 489.717C187.201 490.19 186.854 490.598 186.417 490.902C186.152 491.084 185.859 491.226 185.55 491.322C186.319 491.347 187.052 491.643 187.613 492.153C187.957 492.482 188.222 492.88 188.388 493.32C188.555 493.759 188.619 494.229 188.576 494.695C188.611 495.282 188.499 495.867 188.251 496.403C188.002 496.938 187.623 497.408 187.148 497.771C185.864 498.482 184.388 498.797 182.915 498.674H178.947L178.915 484.647ZM161.243 491.732C161.223 492.571 161.334 493.407 161.571 494.213C161.774 494.873 162.116 495.484 162.577 496.008C163.05 496.498 163.629 496.879 164.274 497.124C164.918 497.368 165.611 497.471 166.301 497.423C166.99 497.451 167.677 497.333 168.313 497.076C168.949 496.819 169.52 496.43 169.984 495.936C170.976 494.712 171.452 493.17 171.317 491.619C171.317 487.836 169.55 485.939 166.174 485.939C165.493 485.904 164.812 486.022 164.186 486.286C163.559 486.549 163.005 486.95 162.566 487.457C161.644 488.696 161.195 490.207 161.296 491.732H161.243ZM159.582 491.732C159.563 490.687 159.731 489.646 160.079 488.656C160.386 487.82 160.865 487.052 161.487 486.401C162.117 485.767 162.878 485.27 163.721 484.943C164.564 484.616 165.469 484.467 166.376 484.504C167.288 484.448 168.202 484.589 169.051 484.917C169.9 485.245 170.663 485.752 171.285 486.401C172.498 487.908 173.097 489.794 172.968 491.701C173.078 493.625 172.397 495.513 171.074 496.951C170.436 497.576 169.671 498.064 168.828 498.385C167.984 498.707 167.08 498.854 166.174 498.817C165.279 498.861 164.384 498.717 163.551 498.395C162.718 498.073 161.967 497.581 161.349 496.951C160.125 495.477 159.517 493.61 159.646 491.722L159.582 491.732Z" fill="#B82529"/>
</svg>
